<svg width="80" height="80" viewBox="0 0 80 80" fill="none" xmlns="http://www.w3.org/2000/svg">
<rect width="80" height="80" rx="16" fill="#239270"/>
<g clip-path="url(#clip0_305_2250)">
<path d="M65.8388 29.1497C61.9003 26.9871 58.4095 26.4411 55.4623 27.5284C53.3434 28.3113 51.9882 29.7755 51.2029 30.916C50.0824 29.8746 48.1527 28.4635 45.2796 27.5815C50.3147 25.6509 53.839 21.2799 53.839 16.2081C53.839 15.5412 53.3027 15 52.6419 15C51.9811 15 51.4448 15.5412 51.4448 16.2081C51.4448 21.7317 46.0865 26.2236 39.5 26.2236C32.9135 26.2236 27.5552 21.7317 27.5552 16.2081C27.5552 15.5412 27.0189 15 26.3581 15C25.6973 15 25.161 15.5412 25.161 16.2081C25.161 21.2799 28.6853 25.6509 33.7204 27.5815C30.8497 28.4659 28.9199 29.877 27.7971 30.916C27.0141 29.7755 25.659 28.3113 23.5377 27.5284C20.5905 26.4411 17.0997 26.9871 13.1612 29.1497L12 29.7852L12.7422 30.887C15.225 34.5791 18.031 36.5701 21.0861 36.7996C21.2848 36.8141 21.4835 36.8214 21.6774 36.8214C23.8346 36.8214 25.6303 35.9298 26.8298 35.1082L31.3597 54.8202C30.232 56.3232 29.5616 58.0218 29.5616 59.59C29.5616 64.9976 37.0435 64.9976 39.5024 64.9976C41.9613 64.9976 49.4432 64.9976 49.4432 59.59C49.4432 58.0508 48.7872 56.3473 47.6451 54.8202L52.175 35.1082C53.3745 35.9298 55.1702 36.8214 57.3274 36.8214C57.5213 36.8214 57.7176 36.8141 57.9187 36.7996C60.9737 36.5677 63.7798 34.5791 66.2626 30.887L67.0048 29.7852L65.8388 29.1497ZM50.0705 33.1704L50.0561 33.2066L50.1327 33.2912L45.6579 52.764C43.8287 51.2852 41.6787 50.4806 39.5 50.4806C37.2063 50.4806 35.0563 51.4012 33.3445 52.7736L32.3844 48.5959C34.295 47.7164 38.0611 45.2276 38.6165 39.1313C39.0427 34.4317 36.8113 31.4524 34.5727 29.8456C35.9494 29.4397 37.5846 29.169 39.5 29.169C45.7369 29.169 49.0027 32.0178 50.0705 33.1704ZM31.7523 31.0127C33.0308 31.5491 36.7155 33.5667 36.2295 38.9115C35.8249 43.3598 33.3349 45.3653 31.8265 46.182L28.8673 33.2936L28.9439 33.2091L28.9295 33.1728C29.4084 32.6533 30.3277 31.8004 31.7523 31.0127ZM21.2441 34.3906C19.2593 34.2336 17.3415 32.9771 15.5291 30.6502C18.3016 29.3599 20.7054 29.0676 22.6854 29.7876C24.4882 30.4424 25.5585 31.8245 26.0708 32.6726C25.1754 33.3975 23.3821 34.5622 21.2441 34.3906ZM39.5 62.5837C31.9534 62.5837 31.9534 60.3318 31.9534 59.5924C31.9534 56.949 35.3341 52.8969 39.5 52.8969C43.6659 52.8969 47.0466 56.9466 47.0466 59.5924C47.0466 60.3318 47.0466 62.5837 39.5 62.5837ZM57.7559 34.3906C55.6155 34.5598 53.8246 33.3975 52.9292 32.6702C53.4415 31.8221 54.5117 30.44 56.3146 29.7852C58.2946 29.0651 60.6984 29.3551 63.4709 30.6478C61.6585 32.9771 59.7407 34.2336 57.7559 34.3906Z" fill="white"/>
<path d="M35.0205 57.7995C34.501 58.3238 34.501 59.1767 35.0205 59.7011C35.5401 60.2254 36.3852 60.2254 36.9048 59.7011C37.4243 59.1767 37.0867 58.6669 36.5672 58.1402C36.0452 57.6158 35.5401 57.2751 35.0205 57.7995Z" fill="white"/>
<path d="M42.5356 58.1402C42.0161 58.6645 41.6761 59.1743 42.198 59.7011C42.7176 60.2254 43.5627 60.2254 44.0823 59.7011C44.6018 59.1767 44.6018 58.3238 44.0823 57.7995C43.5627 57.2751 43.0576 57.6158 42.5356 58.1402Z" fill="white"/>
</g>
<defs>
<clipPath id="clip0_305_2250">
<rect width="55" height="50" fill="white" transform="translate(12 15)"/>
</clipPath>
</defs>
</svg>
