<svg width="688" height="460" viewBox="0 0 688 460" fill="none" xmlns="http://www.w3.org/2000/svg">
<rect width="688" height="460" rx="40" fill="#FDF7EC"/>
<g clip-path="url(#clip0_4718_313)">
<path d="M529.54 131.838C529.61 129.387 529.488 126.891 529.147 124.379C525.387 96.3722 497.058 75.7992 465.867 78.4253C448.74 79.8736 434.318 88.0138 425.41 99.705C400.291 99.2426 381.856 105.551 378.043 117.931C371.805 138.19 407.079 167.034 456.837 182.364C506.594 197.684 551.98 193.68 558.227 173.421C562.04 161.075 550.436 145.554 529.54 131.838Z" fill="#CDAB5D"/>
<path d="M521.025 127.825C520.824 127.825 520.624 127.773 520.44 127.668C508.322 120.784 494.022 114.712 479.102 110.114C463.084 105.184 446.838 102.087 432.119 101.153C431.465 101.11 430.968 100.551 431.011 99.897C431.055 99.2426 431.561 98.7191 432.268 98.7889C447.178 99.7312 463.616 102.863 479.809 107.854C494.894 112.496 509.351 118.638 521.618 125.609C522.185 125.932 522.386 126.656 522.063 127.223C521.836 127.616 521.435 127.825 521.025 127.825Z" fill="#3A222B"/>
<path d="M581.907 317.292L572.344 272.15C570.39 262.911 565.068 254.5 557.216 248.236C552.077 244.126 540.892 241.064 534.296 239.249L501.848 230.315H472.498H443.148L410.718 239.24C404.122 241.055 398.05 244.126 392.902 248.227C385.05 254.5 379.728 262.902 377.773 272.141L368.211 317.283H402.866V398.555H557.957V317.283H581.907V317.292Z" fill="#55B798"/>
<path d="M480.568 358.97H411.486C410.264 358.97 409.104 358.421 408.336 357.47L350.063 285.665C348.964 284.312 349.819 282.288 351.555 282.131L419.687 275.972C422.13 275.753 424.503 276.818 425.969 278.781L482.601 354.922C483.84 356.597 482.654 358.97 480.568 358.97Z" fill="#3A222B"/>
<path d="M361.37 288.029C361.37 289.006 360.576 289.8 359.599 289.8C358.622 289.8 357.828 289.006 357.828 288.029C357.828 287.052 358.622 286.258 359.599 286.258C360.576 286.258 361.37 287.052 361.37 288.029Z" fill="white"/>
<path d="M385.477 343.353C385.181 344.356 385.364 345.438 386.001 346.267L402.866 368.123V350.734L387.711 332.054C387.571 334.663 386.987 338.319 385.477 343.353Z" fill="#F0A76E"/>
<path d="M349.802 307.215C350.474 306.203 355.621 299.86 357.078 298.063C357.34 297.749 357.645 297.487 358.003 297.286L372.591 289.163C373.865 288.448 375.461 288.692 376.473 289.748C377.843 291.179 377.608 293.491 375.976 294.616L366.012 301.474C365.69 301.701 365.41 301.98 365.184 302.303L360.603 308.986L387.318 296.44C388.784 295.751 390.538 296.265 391.402 297.635L391.48 297.757C392.44 299.284 391.96 301.3 390.407 302.224L367.888 315.669L396.872 302.975C398.381 302.312 400.144 302.905 400.955 304.336L401.008 304.423C401.836 305.889 401.391 307.747 399.995 308.681L391.864 314.099L402.002 310.382C402.979 310.024 404.079 310.365 404.672 311.22C405.414 312.267 405.152 313.715 404.096 314.439L388.898 324.935C387.833 325.668 387.345 326.95 387.554 328.224C387.938 330.501 387.964 335.064 385.477 343.362C385.181 344.365 385.364 345.447 386.001 346.276L404.306 369.998C405.972 372.153 407.883 378.008 409.191 383.845C411.111 392.421 407.464 402.428 399.132 405.255C394.499 406.826 387.554 404.357 387.554 404.357C381.516 402.821 374.781 393.582 372.896 387.64C372.896 387.64 368.77 354.817 367.923 343.903C368.028 343.065 367.792 342.219 367.278 341.547L352.777 322.693C352.498 322.335 352.306 321.925 352.201 321.48C351.547 318.714 349.121 308.236 349.802 307.215Z" fill="#F0A76E"/>
<path d="M385.477 343.353C385.181 344.356 385.364 345.438 386.001 346.267L402.866 368.123V363.359L388.13 345.735C387.187 344.644 387.536 342.768 387.999 341.407C388.967 338.537 389.447 335.815 389.648 334.436L387.711 332.054C387.571 334.663 386.987 338.319 385.477 343.353Z" fill="#3A222B"/>
<path d="M511.925 163.396C511.507 163.326 511.096 163.309 510.678 163.335C511.28 157.332 511.254 153.362 511.254 153.362C511.254 150.937 510.974 148.564 510.503 146.26C499.344 138.801 476.128 126.525 447.092 129.186C439.03 129.928 433.516 130.486 429.581 131.324C425.21 137.64 422.715 145.196 422.715 153.327C422.715 153.327 422.584 157.376 423.046 163.501C419.05 164.574 416.747 170.419 417.864 176.893C418.998 183.472 423.255 188.253 427.443 187.747C431.143 199.691 437.695 211.548 449.308 217.402C446.856 224.434 443.157 230.315 443.157 230.315L472.507 279.584L501.857 230.315C501.857 230.315 494.816 219.138 493.734 209.183C499.431 202.937 503.279 194.962 505.879 187.005C506.446 187.354 507.074 187.598 507.729 187.712C512.004 188.453 516.401 183.602 517.562 176.893C518.722 170.175 516.2 164.137 511.925 163.396Z" fill="#F0A76E"/>
<path d="M450.546 166.179C450.546 168.683 448.959 170.707 447.004 170.707C445.05 170.707 443.462 168.683 443.462 166.179C443.462 163.675 445.05 161.651 447.004 161.651C448.959 161.651 450.546 163.675 450.546 166.179Z" fill="#3A222B"/>
<path d="M485.489 166.179C485.489 168.683 483.901 170.707 481.947 170.707C479.992 170.707 478.404 168.683 478.404 166.179C478.404 163.675 479.992 161.651 481.947 161.651C483.901 161.651 485.489 163.675 485.489 166.179Z" fill="#3A222B"/>
<path d="M480.821 191.525C480.821 191.525 475.569 203.739 460.736 202.544C450.982 201.759 447.239 191.525 447.239 191.525H480.821Z" fill="white"/>
<path d="M508.243 179.589C507.964 179.589 507.676 179.484 507.458 179.292C507.056 178.935 506.943 178.341 507.196 177.862L511.907 168.744C512.204 168.16 512.928 167.941 513.504 168.238C514.089 168.535 514.315 169.25 514.01 169.835L511.427 174.825L513.504 173.421C514.045 173.054 514.787 173.194 515.144 173.735C515.511 174.276 515.371 175.017 514.83 175.375L508.906 179.38C508.705 179.519 508.47 179.589 508.243 179.589Z" fill="#3A222B"/>
<path d="M463.232 182.093C463.188 182.093 463.145 182.093 463.101 182.084C460.492 181.788 458.852 180.872 458.232 179.362C457.308 177.094 459.21 174.66 459.428 174.389C459.838 173.883 460.579 173.813 461.094 174.223C461.6 174.633 461.679 175.384 461.269 175.89C460.859 176.396 460.108 177.704 460.431 178.472C460.684 179.1 461.731 179.545 463.363 179.729C464.017 179.798 464.479 180.392 464.41 181.037C464.34 181.648 463.834 182.093 463.232 182.093Z" fill="#3A222B"/>
<path d="M436.744 157.664C436.369 157.664 435.993 157.48 435.767 157.149C435.391 156.608 435.531 155.875 436.072 155.5C436.395 155.282 444.099 150.099 451.393 154.68C451.951 155.029 452.117 155.762 451.768 156.311C451.419 156.87 450.686 157.036 450.136 156.687C444.151 152.926 437.485 157.411 437.416 157.454C437.206 157.594 436.971 157.664 436.744 157.664Z" fill="#3A222B"/>
<path d="M488.927 158.021C488.656 158.021 488.386 157.934 488.159 157.742C487.906 157.533 481.904 152.542 475.587 155.648C474.993 155.936 474.287 155.692 473.999 155.107C473.711 154.523 473.955 153.807 474.54 153.519C482.27 149.724 489.389 155.683 489.695 155.936C490.192 156.364 490.253 157.105 489.826 157.603C489.59 157.882 489.258 158.021 488.927 158.021Z" fill="#3A222B"/>
<path d="M578.311 317.292H536.895V342.603L485.62 325.031L481.091 318.557L471.983 304.318L471.599 303.629C470.665 301.954 468.589 301.291 466.861 302.12L461.461 304.903C461.286 304.545 461.068 304.205 460.763 303.917L454.847 298.351C453.949 297.504 452.666 297.225 451.497 297.618L449.386 298.324C448.914 298.481 448.487 298.743 448.129 299.083L441.769 305.173C439.771 307.084 440.006 310.338 442.257 311.944C443.88 313.095 446.07 313.026 447.606 311.761L449.403 310.286L471.442 339.915L476.31 341.407L544.486 393.896C549.31 397.612 555.444 399.209 561.473 398.31L563 398.083C571.384 396.836 578.346 390.964 580.99 382.92C581.418 381.629 581.714 380.311 581.897 378.976H581.906V378.95C582.307 376.071 578.311 317.292 578.311 317.292Z" fill="#F0A76E"/>
<path d="M451.846 311.342C451.916 312.302 452.221 313.253 452.771 314.108C454.289 316.463 457.29 317.458 460.021 316.42L466.67 313.532C466.67 313.532 474.295 321.89 475.063 321.89L467.551 310.565L459.079 314.247C457.482 314.849 455.685 314.256 454.76 312.825C453.809 311.351 454.088 309.475 455.266 308.314C454.062 307.616 452.553 307.704 451.462 308.594L449.395 310.295L450.808 312.197L451.846 311.342Z" fill="#3A222B"/>
<path d="M536.887 342.603L565.993 352.575L536.887 336.705V342.603Z" fill="#3A222B"/>
<path d="M435.644 232.374L418.788 271.19L447.248 261.201L472.507 279.575L443.156 230.306L435.644 232.374Z" fill="#2F7346"/>
<path d="M509.369 232.374L526.225 271.19L497.774 261.201L472.507 279.575L501.857 230.306L509.369 232.374Z" fill="#2F7346"/>
<path d="M418.343 141.636C417.209 147.072 417.017 155.264 418.84 167.61C419.8 165.542 421.24 164.042 423.054 163.544C422.592 157.402 422.723 153.327 422.723 153.327C422.723 145.213 425.209 137.675 429.563 131.359L429.476 131.341C425.942 132.1 423.691 133.069 422.068 134.604C419.879 136.672 418.832 139.647 418.343 141.636Z" fill="#3A222B"/>
<path d="M510.529 146.278C511 148.581 511.253 150.946 511.253 153.371C511.253 153.371 511.28 157.358 510.669 163.387C511.088 163.352 511.506 163.335 511.925 163.405C513.775 163.727 515.276 165.08 516.314 167.017C517.727 160.988 518.024 155.919 517.684 151.609C517.343 151.303 514.839 149.157 510.529 146.278Z" fill="#3A222B"/>
<path d="M449.316 217.402C447.807 221.721 445.835 225.603 444.526 227.959C444.526 227.959 459.559 240.174 480.455 218.528C476.267 220.212 471.503 221.171 466.094 221.171C459.568 221.171 454.028 219.775 449.316 217.402Z" fill="#3A222B"/>
</g>
<g clip-path="url(#clip1_4718_313)">
<path d="M245.357 227.663L261.516 235.384C271.156 239.991 277.857 249.108 279.375 259.682L297.017 382.772H137.694V264.882C137.694 264.56 137.702 264.228 137.711 263.905C138.104 251.647 147.439 241.517 159.558 239.668L215.501 231.135L245.357 227.663Z" fill="#2F7346"/>
<path d="M154.28 147.813C154.28 120.487 176.432 98.3265 203.766 98.3265C221.46 98.3265 238.683 107.4 247.425 121.377C250.767 125.897 255.731 138.434 259.134 151.373C259.134 151.373 270.206 154.828 272.195 158.213C274.184 161.599 266.244 167.654 266.244 167.654C266.244 167.654 268.094 193.4 261.14 197.946C259.596 198.958 257.598 199.874 255.434 200.703C248.411 203.373 240.951 204.603 233.466 204.585L218.337 243.402L187.591 209.358L192.948 196.079C170.822 191.114 154.28 171.414 154.28 147.813Z" fill="#F0A76E"/>
<path d="M333.643 312.363C333.827 310.766 332.579 309.361 330.965 309.361C327.676 309.361 324.578 310.914 322.598 313.54L316.909 321.131C316.831 321.236 316.752 321.358 316.691 321.471L308.882 336.024C308.603 336.548 308.499 337.141 308.595 337.726L310.549 349.914C310.758 351.223 311.884 352.182 313.21 352.182H329.359C330.302 352.182 331.174 351.694 331.663 350.882L342.412 333.128C342.586 332.848 342.7 332.534 342.761 332.211L343.686 327.055C343.912 325.799 343.223 324.551 342.037 324.08C340.911 323.626 339.62 323.984 338.887 324.952L337.936 326.209L338.381 321.515C338.416 320.04 338.233 319.552 337.299 319.203L336.235 318.758C335.301 318.383 334.228 318.601 333.53 319.325L333.643 312.363Z" fill="#F0A76E"/>
<path d="M149.604 139.185C157.125 90.7708 206.742 91.399 219.673 96.4943C232.603 101.598 254.066 112.696 251.902 130.303C251.902 130.303 250.201 125.775 242.453 117.748C242.453 117.748 237.41 143.695 215.162 157.227C214.193 157.812 213.26 158.51 212.352 159.295C210.049 155.849 206.795 153.921 203.697 154.575C198.969 155.587 196.377 162.262 197.922 169.486C198.471 172.068 199.483 174.372 200.757 176.221C194.903 188.558 191.343 202.265 189.633 205.24C189.633 205.24 142.092 187.598 149.604 139.185Z" fill="#3A222B"/>
<path d="M244.738 150.876C245.742 153.057 247.932 154.182 249.642 153.397C251.343 152.612 251.919 150.213 250.915 148.032C249.912 145.85 247.722 144.725 246.012 145.51C244.302 146.295 243.735 148.703 244.738 150.876Z" fill="#3A222B"/>
<path d="M238.16 144.123C238.379 144.053 238.579 143.905 238.71 143.678C238.858 143.416 242.409 137.361 248.447 138.661C249.005 138.783 249.52 138.382 249.599 137.771C249.677 137.16 249.276 136.567 248.717 136.445C241.336 134.866 237.131 142.09 236.956 142.395C236.668 142.91 236.826 143.608 237.305 143.957C237.576 144.158 237.89 144.201 238.16 144.123Z" fill="#3A222B"/>
<path d="M256.325 182.076C263.174 182.076 265.879 178.088 266.027 177.87C266.367 177.347 266.228 176.64 265.695 176.3C265.181 175.96 264.474 176.099 264.125 176.623C263.959 176.867 260.225 182.102 249.607 178.594C249.014 178.394 248.368 178.725 248.176 179.319C247.975 179.912 248.307 180.557 248.9 180.749C251.788 181.709 254.248 182.076 256.325 182.076Z" fill="#3A222B"/>
<path d="M261.516 235.384C271.156 239.991 277.857 249.108 279.375 259.682L297.017 382.772H281.216C279.017 361.143 261.516 235.384 261.516 235.384Z" fill="#3A222B"/>
<path d="M267.518 386.131H330.084C332.16 386.131 334.158 385.345 335.685 383.941L404.236 320.642C405.745 319.246 404.759 316.725 402.7 316.725H338.704C336.165 316.725 333.713 317.685 331.846 319.403L265.407 380.747C263.339 382.667 264.692 386.131 267.518 386.131Z" fill="#3A222B"/>
<path d="M228.937 366.491L264.936 371.107C267.693 366.369 273.896 356.719 280.283 353.77C288.859 349.818 296.205 347.288 297.636 342.856C298.814 339.217 303.36 343.24 301.842 348.37C301.51 349.495 295.551 357.06 295.551 357.06L326.428 350.35C328.077 349.993 329.717 350.987 330.162 352.619C330.581 354.146 329.796 355.751 328.339 356.37L308.045 364.982L308.08 365.924L331.506 359.712C332.535 359.441 333.591 360.035 333.896 361.056L333.966 361.3C334.237 362.216 333.809 363.193 332.954 363.612L324.666 367.704L330.459 365.941C331.471 365.636 332.544 366.186 332.884 367.189L332.928 367.32C333.233 368.219 332.849 369.204 332.029 369.658L319.727 376.525L324.98 374.692C325.922 374.361 327.021 374.736 327.466 375.635C327.946 376.603 327.571 377.746 326.655 378.243L312.32 386.061C307.286 388.809 301.65 390.257 295.917 390.292L228.955 405.77V366.491H228.937Z" fill="#F0A76E"/>
<path d="M186.875 259.255V357.784L228.938 366.482V405.761C228.938 405.761 197.729 405.761 186.875 405.761C185.584 405.761 184.563 405.761 183.935 405.761H160.78C148.033 405.761 137.703 395.431 137.703 382.684V259.255C137.703 245.67 148.713 234.66 162.298 234.66C175.865 234.669 186.875 245.679 186.875 259.255Z" fill="#3A222B"/>
<path d="M394.918 322.239C394.918 322.998 395.528 323.609 396.287 323.609C397.046 323.609 397.657 322.998 397.657 322.239C397.657 321.48 397.046 320.869 396.287 320.869C395.528 320.869 394.918 321.489 394.918 322.239Z" fill="white"/>
<path d="M229.243 215.378C225.064 213.188 221.417 210.108 218.546 206.365L206.48 190.635C206.48 190.635 220.457 202.43 233.457 204.568L229.243 215.378Z" fill="#3A222B"/>
<path d="M168.536 211.513C172.192 206.374 180.306 200.563 189.632 205.24C195.609 208.232 210.066 226.903 219.681 239.93L229.252 215.378C229.252 215.378 245.497 220.822 245.358 227.663C245.218 234.511 232.602 261.916 232.602 261.916C230.927 267.256 221.521 268.843 209.516 255.207C191.665 234.939 162.289 241.5 155.998 235.375C149.708 229.259 164.88 216.661 168.536 211.513Z" fill="white"/>
<path d="M143.33 146.086C131.971 126.603 140.914 99.9842 163.502 86.4172C186.082 72.8502 213.783 77.4569 225.649 96.6426L272.422 91.7568C276.837 91.2943 279.925 95.9621 277.831 99.8708C271.323 111.981 253.987 135.075 208.967 162.113C163.947 189.151 135.417 193.618 121.667 193.671C117.235 193.688 114.565 188.767 117.043 185.086L143.33 146.086Z" fill="#CDAB5D"/>
<path d="M192.171 128.453C196.935 125.068 199.203 125.208 198.601 125.923C181.422 146.156 144.944 147.726 143.4 147.779C143.382 147.779 143.356 147.779 143.338 147.779C142.989 147.779 142.675 147.648 142.405 147.464L143.338 146.086C143.051 145.597 142.832 145.083 142.571 144.577C142.78 144.472 143.016 144.393 143.269 144.385C143.53 144.376 162.297 143.573 178.848 136.018C185.322 133.077 186.212 132.685 192.171 128.453Z" fill="#3A222B"/>
</g>
<defs>
<clipPath id="clip0_4718_313">
<rect width="337.614" height="355.77" fill="white" transform="translate(296.947 50)"/>
</clipPath>
<clipPath id="clip1_4718_313">
<rect width="350.57" height="355.77" fill="white" transform="matrix(-1 0 0 1 404.969 50)"/>
</clipPath>
</defs>
</svg>
