<svg width="688" height="460" viewBox="0 0 688 460" fill="none" xmlns="http://www.w3.org/2000/svg">
<rect width="688" height="460" rx="40" fill="#FDF7EC"/>
<mask id="mask0_4718_1328" style="mask-type:alpha" maskUnits="userSpaceOnUse" x="0" y="0" width="688" height="460">
<rect width="688" height="460" rx="40" fill="#FDF7EC"/>
</mask>
<g mask="url(#mask0_4718_1328)">
<path opacity="0.34" d="M-3 252.724C-3 252.724 52.6322 252.182 97.4886 305.988L-3 323.742V252.724Z" fill="#FF9A5A"/>
<path opacity="0.34" d="M686.773 253.909C686.773 253.909 606.317 235.079 556 302.336L686.773 314.712V253.909Z" fill="#FF9A5A"/>
<path opacity="0.34" d="M242.179 297.734C242.179 297.734 287.306 240.999 354.537 253.917C421.767 266.826 428.674 301.802 428.674 301.802L242.179 297.734Z" fill="#FF9A5A"/>
<path d="M688 308.004V460H-6V309.994C-6 309.994 -0.253678 309.192 11.5304 307.968C22.5928 306.815 38.999 305.293 60.9432 303.717C82.1658 302.204 108.593 300.638 140.434 299.323C152.065 298.837 164.419 298.386 177.507 297.981C202.297 297.216 229.724 296.621 259.844 296.288C272.1 296.162 284.8 296.063 297.944 296.018C303.08 296.009 308.285 296 313.559 296C335.268 296 356.351 296.117 376.713 296.324C389.608 296.459 402.211 296.63 414.508 296.837C443.254 297.315 470.292 297.963 495.359 298.72C509.531 299.134 523.064 299.593 535.917 300.061C568.618 301.259 596.892 302.583 619.877 303.789C638.421 304.771 653.536 305.671 664.765 306.392C679.894 307.373 688 308.004 688 308.004Z" fill="#C0A719"/>
<g opacity="0.32">
<path d="M47.1781 303.402C41.5549 308.076 27.8166 320.687 15.3573 341.569C7.20908 355.201 -1.29192 373.996 -6 397.897V325.252C-1.22577 318.372 3.54847 312.515 7.92577 307.669C16.7134 306.512 29.7461 304.984 47.1781 303.402Z" fill="#886800"/>
<path d="M122.199 340.231C114.293 364.386 106.597 404.28 112.783 460.291H82.9466C73.1225 369.476 98.1183 318.047 110.324 298.991C119.564 298.502 129.377 298.05 139.774 297.644L142.917 298.611C142.795 298.747 131.384 312.18 122.199 340.231Z" fill="#886800"/>
<path d="M233.816 460.291H203.969C191.377 361.204 201.411 310.345 205.181 295.953C214.917 295.827 225.006 295.727 235.448 295.682C233.827 301.025 219.879 351.441 233.816 460.291Z" fill="#886800"/>
<path d="M354.615 460.291H324.734C308.879 358.157 300.102 307.714 298.019 295.989C308.262 296.125 318.273 296.297 328.042 296.505C330.744 311.891 339.498 362.804 354.615 460.291Z" fill="#886800"/>
<path d="M475.171 460.291H445.202C426.238 361.105 400.161 311.701 392.267 298.394C403.524 298.81 414.274 299.271 424.484 299.741C435.797 320.732 458.279 370.651 475.171 460.291Z" fill="#886800"/>
<path d="M545.296 332.43V395.113C525.703 345.357 503.056 316.411 491.181 303.484C505.911 304.469 517.919 305.373 526.839 306.096C532.352 313.012 538.658 321.726 545.296 332.43Z" fill="#886800"/>
</g>
<mask id="mask1_4718_1328" style="mask-type:luminance" maskUnits="userSpaceOnUse" x="0" y="223" width="146" height="238">
<path d="M145.96 223.235H0V460.291H145.96V223.235Z" fill="white"/>
</mask>
<g mask="url(#mask1_4718_1328)">
<path d="M16.7426 448.557C16.5166 448.557 16.3177 448.368 16.2906 448.105C13.678 418.065 10.7129 384.012 12.2316 350.582C13.8859 314.124 20.8648 282.384 32.9875 256.24C33.105 255.996 33.3762 255.897 33.5931 256.023C33.8191 256.15 33.9005 256.448 33.792 256.701C21.7327 282.719 14.7809 314.322 13.1356 350.636C11.6259 383.985 14.582 418.002 17.1946 448.006C17.2217 448.277 17.0409 448.53 16.7878 448.557C16.7697 448.557 16.7607 448.557 16.7426 448.557Z" fill="#886800"/>
<path d="M17.0588 311.855C17.0497 311.855 17.0497 311.855 17.0407 311.855C16.7876 311.846 16.5977 311.61 16.6068 311.33C17.565 283.668 21.8319 256.24 29.2989 229.826C29.3712 229.563 29.6244 229.41 29.8684 229.5C30.1035 229.582 30.2391 229.862 30.1668 230.133C22.7268 256.466 18.469 283.794 17.5198 311.375C17.5017 311.638 17.3028 311.855 17.0588 311.855Z" fill="#886800"/>
<path d="M14.4005 324.348C14.1655 324.348 13.9666 324.149 13.9485 323.887C11.5439 292.464 15.6752 260.309 25.8994 230.892C25.9898 230.63 26.252 230.504 26.487 230.603C26.7221 230.703 26.8396 230.992 26.7492 231.254C16.5792 260.535 12.466 292.536 14.8525 323.805C14.8706 324.077 14.6898 324.321 14.4367 324.348C14.4277 324.348 14.4186 324.348 14.4005 324.348Z" fill="#886800"/>
<path d="M16.6801 313.229C16.644 313.229 16.5988 313.22 16.5626 313.211C16.3185 313.138 16.1739 312.867 16.2462 312.596C17.3943 307.85 18.8588 303.258 20.6035 298.954C27.8716 281.037 40.2655 266.754 52.2525 252.941C52.4243 252.742 52.7136 252.733 52.8944 252.923C53.0752 253.113 53.0842 253.429 52.9034 253.628C40.9706 267.378 28.631 281.598 21.4261 299.352C19.6995 303.61 18.244 308.148 17.114 312.84C17.0598 313.084 16.879 313.229 16.6801 313.229Z" fill="#886800"/>
<path d="M15.1881 322.413C15.1248 322.413 15.0616 322.395 14.9983 322.368C14.7723 322.251 14.6728 321.952 14.7813 321.699C21.2901 306.358 31.2251 292.916 43.4924 282.809C43.6912 282.646 43.9715 282.692 44.1252 282.909C44.2698 283.135 44.2336 283.442 44.0348 283.614C31.885 293.621 22.0495 306.928 15.604 322.124C15.5226 322.305 15.3599 322.413 15.1881 322.413Z" fill="#886800"/>
<path d="M15.4947 320.822C15.4405 320.822 15.3772 320.813 15.3229 320.786C15.0879 320.687 14.9794 320.388 15.0698 320.135C21.4521 302.57 31.7667 286.904 44.9018 274.818C45.0917 274.637 45.3809 274.673 45.5346 274.881C45.6973 275.098 45.6702 275.414 45.4713 275.586C32.4447 287.564 22.2205 303.095 15.9015 320.506C15.8473 320.705 15.6755 320.822 15.4947 320.822Z" fill="#886800"/>
<path d="M17.763 308.32C17.7359 308.32 17.6997 308.32 17.6726 308.311C17.4285 308.257 17.2658 307.994 17.32 307.723C20.5654 289.752 24.9046 271.834 30.2201 254.487C30.3015 254.224 30.5546 254.089 30.7896 254.17C31.0247 254.261 31.1512 254.541 31.0699 254.803C25.7634 272.115 21.4332 289.987 18.1969 307.922C18.1607 308.157 17.9709 308.32 17.763 308.32Z" fill="#886800"/>
<path d="M17.6104 325.189C16.2634 325.189 14.8984 324.963 13.5424 324.465C11.653 323.769 10.6676 321.627 10.0348 319.846C7.585 313.012 6.64484 304.912 7.25052 295.791C7.78388 287.673 9.42916 279.636 11.0202 271.862C11.0744 271.59 11.3185 271.419 11.5626 271.482C11.8067 271.545 11.9604 271.816 11.9061 272.079C10.3241 279.817 8.68788 287.817 8.15452 295.854C7.56692 304.831 8.47996 312.777 10.8846 319.466C11.4541 321.048 12.3039 322.938 13.8407 323.507C20.6116 325.993 27.6267 321.13 31.5772 316.221C36.1514 310.535 38.8092 303.375 41.3856 296.441C41.485 296.188 41.7472 296.062 41.9732 296.17C42.2082 296.279 42.3167 296.568 42.2172 296.821C39.6137 303.827 36.9198 311.068 32.2461 316.881C28.8832 321.066 23.396 325.189 17.6104 325.189Z" fill="#886800"/>
<path d="M15.7928 324.393C15.6572 324.393 15.5306 324.366 15.4131 324.321C15.151 324.203 14.9702 323.95 14.925 323.634C14.8888 323.362 15.0515 323.118 15.2866 323.064C15.5035 323.019 15.7114 323.163 15.7928 323.389C15.9103 323.389 16.1454 323.317 16.3171 323.173C23.0067 317.486 28.051 309.793 32.9236 302.362C33.0682 302.136 33.3485 302.091 33.5564 302.254C33.7553 302.417 33.8005 302.733 33.6558 302.959C28.7471 310.453 23.6666 318.21 16.8686 323.977C16.5883 324.203 16.1725 324.393 15.7928 324.393Z" fill="#886800"/>
<path d="M6.48142 349.768C4.59206 347.897 2.71174 345.917 1.51846 343.431C0.325175 340.945 -0.0816242 337.845 1.03934 335.323C1.50038 334.292 2.25974 333.352 3.27222 333.081C4.84518 332.656 6.37294 333.967 7.39446 335.368C9.90758 338.812 11.0737 343.205 12.1766 347.463C12.5473 348.901 13.5236 352.164 11.8964 352.987C10.3505 353.764 7.43966 350.718 6.48142 349.768Z" fill="#886800"/>
<path d="M19.2013 351.359C21.4975 350.166 23.8117 348.864 25.5926 346.867C27.3735 344.869 28.5758 342.021 28.1419 339.246C27.9701 338.116 27.4729 336.968 26.578 336.389C25.1768 335.485 23.3778 336.254 22.0399 337.266C18.7403 339.77 16.4984 343.603 14.3378 347.337C13.6056 348.593 11.8337 351.414 13.1807 352.715C14.4553 353.954 18.0352 351.956 19.2013 351.359Z" fill="#886800"/>
<path d="M4.90015 374.791C2.75767 372.676 0.633267 370.443 -0.713693 367.631C-2.06065 364.829 -2.53073 361.312 -1.25609 358.465C-0.731773 357.299 0.127027 356.241 1.26607 355.934C3.04695 355.455 4.76455 356.928 5.92167 358.51C8.76023 362.406 10.0801 367.36 11.3276 372.179C11.7525 373.806 12.8463 377.494 11.0112 378.416C9.27551 379.302 5.98495 375.858 4.90015 374.791Z" fill="#886800"/>
<path d="M19.2743 376.581C21.8688 375.234 24.4813 373.77 26.4973 371.51C28.5132 369.25 29.8601 366.031 29.381 362.904C29.1821 361.62 28.6307 360.336 27.6182 359.676C26.0362 358.646 24.0022 359.523 22.4925 360.671C18.7681 363.5 16.2278 367.83 13.787 372.052C12.9644 373.48 10.9575 376.662 12.4762 378.127C13.9136 379.51 17.9545 377.259 19.2743 376.581Z" fill="#886800"/>
<path d="M4.97231 400.863C2.20607 399.055 -0.560172 397.111 -2.59417 394.354C-4.61913 391.587 -5.82145 387.845 -4.98073 384.41C-4.63721 383.009 -3.89593 381.634 -2.70265 381.02C-0.840412 380.061 1.33823 381.273 2.92023 382.728C6.79839 386.326 9.22111 391.452 11.5353 396.442C12.3218 398.123 14.2473 401.911 12.4122 403.376C10.6675 404.768 6.37351 401.776 4.97231 400.863Z" fill="#886800"/>
<path d="M21.1088 399.362C23.6942 397.256 26.2797 395.014 28.0515 392.04C29.8234 389.065 30.6822 385.214 29.5341 381.888C29.064 380.532 28.2052 379.248 26.9667 378.769C25.0231 378.028 22.971 379.465 21.5337 381.092C17.999 385.097 16.0554 390.476 14.2022 395.692C13.5785 397.454 11.9965 401.432 13.9491 402.689C15.8023 403.873 19.807 400.429 21.1088 399.362Z" fill="#886800"/>
<path d="M6.31025 426.03C3.54401 424.222 0.777771 422.278 -1.25623 419.521C-3.29023 416.764 -4.48351 413.021 -3.64279 409.586C-3.29927 408.185 -2.55799 406.811 -1.36471 406.196C0.49753 405.238 2.67617 406.449 4.25817 407.905C8.13633 411.503 10.5591 416.628 12.8733 421.618C13.6598 423.3 15.5853 427.088 13.7502 428.552C11.9964 429.935 7.71145 426.952 6.31025 426.03Z" fill="#886800"/>
<path d="M22.4467 424.529C25.0321 422.423 27.6176 420.181 29.3894 417.207C31.1613 414.233 32.0201 410.382 30.872 407.055C30.4019 405.699 29.5431 404.415 28.3046 403.936C26.361 403.195 24.3089 404.632 22.8716 406.259C19.3369 410.264 17.3933 415.643 15.5401 420.859C14.9164 422.622 13.3344 426.599 15.287 427.856C17.1402 429.049 21.1359 425.596 22.4467 424.529Z" fill="#886800"/>
<path d="M10.0799 449.796C7.17808 448.277 4.25816 446.623 2.0072 444.083C-0.243761 441.542 -1.7444 437.936 -1.18392 434.428C-0.95792 432.991 -0.334161 431.553 0.804879 430.821C2.58576 429.682 4.8548 430.658 6.54528 431.96C10.7037 435.142 13.5332 440.006 16.2542 444.743C17.1763 446.343 19.4002 449.913 17.7006 451.559C16.0644 453.105 11.5444 450.564 10.0799 449.796Z" fill="#886800"/>
<path d="M26.0257 446.668C28.4304 444.309 30.8169 441.814 32.3357 438.677C33.8544 435.54 34.3877 431.608 32.9775 428.416C32.3989 427.115 31.4317 425.921 30.1661 425.569C28.1773 425.026 26.2427 426.672 24.9409 428.435C21.7498 432.783 20.2582 438.333 18.8389 443.721C18.3598 445.538 17.1213 449.66 19.1644 450.709C21.108 451.703 24.8053 447.861 26.0257 446.668Z" fill="#886800"/>
</g>
<mask id="mask2_4718_1328" style="mask-type:luminance" maskUnits="userSpaceOnUse" x="0" y="223" width="146" height="238">
<path d="M145.96 223.235H0V460.291H145.96V223.235Z" fill="white"/>
</mask>
<g mask="url(#mask2_4718_1328)">
<path d="M37.1644 465.978C37.1463 465.978 37.1282 465.978 37.1101 465.978C36.8661 465.941 36.6852 465.697 36.7214 465.417C40.0662 435.459 43.863 401.513 51.8996 369.259C60.6684 334.075 73.7131 304.785 90.6812 282.203C90.8439 281.996 91.1241 281.959 91.314 282.14C91.5038 282.321 91.5309 282.637 91.3682 282.845C74.4905 305.319 61.5 334.482 52.7674 369.521C44.7489 401.703 40.9612 435.612 37.6164 465.535C37.5892 465.788 37.3904 465.978 37.1644 465.978Z" fill="#886800"/>
<path d="M64.3201 332.629C64.284 332.629 64.2388 332.62 64.2026 332.61C63.9585 332.538 63.8139 332.267 63.8772 331.996C70.2413 305.228 79.7876 279.5 92.2628 255.517C92.3893 255.273 92.6605 255.192 92.8775 255.337C93.0944 255.472 93.1668 255.78 93.0402 256.024C80.6102 279.925 71.0911 305.572 64.745 332.258C64.6998 332.484 64.519 332.629 64.3201 332.629Z" fill="#886800"/>
<path d="M59.2672 344.182C59.2491 344.182 59.231 344.182 59.2039 344.173C58.9598 344.136 58.779 343.883 58.8152 343.612C62.6391 312.37 72.9808 281.977 88.7376 255.734C88.8732 255.499 89.1534 255.445 89.3613 255.599C89.5692 255.752 89.6235 256.06 89.4879 256.295C73.8125 282.411 63.516 312.65 59.7101 343.748C59.683 344.001 59.4932 344.182 59.2672 344.182Z" fill="#886800"/>
<path d="M63.6693 333.885C63.597 333.885 63.5247 333.867 63.4614 333.831C63.2444 333.704 63.154 333.397 63.2716 333.153C65.3236 328.796 67.656 324.673 70.2052 320.895C80.8182 305.165 95.7161 294.227 110.126 283.641C110.334 283.487 110.614 283.551 110.75 283.786C110.885 284.012 110.831 284.328 110.623 284.482C96.2766 295.013 81.4419 305.906 70.9284 321.5C68.4063 325.234 66.1011 329.311 64.0761 333.623C63.9857 333.786 63.832 333.885 63.6693 333.885Z" fill="#886800"/>
<path d="M60.4148 342.482C60.3154 342.482 60.225 342.446 60.1346 342.374C59.9357 342.202 59.8995 341.886 60.0532 341.669C69.4186 328.271 81.7492 317.55 95.707 310.661C95.933 310.553 96.2042 310.661 96.3036 310.915C96.403 311.168 96.3036 311.466 96.0776 311.574C82.2554 318.4 70.0424 329.013 60.7674 342.283C60.686 342.419 60.5504 342.482 60.4148 342.482Z" fill="#886800"/>
<path d="M61.0289 341C60.9385 341 60.8481 340.972 60.7758 340.909C60.5679 340.755 60.5227 340.439 60.6583 340.213C70.3311 324.61 83.4753 311.818 98.6715 303.203C98.8975 303.077 99.1687 303.176 99.2772 303.42C99.3947 303.664 99.3043 303.972 99.0783 304.098C84.0177 312.632 70.991 325.315 61.3996 340.783C61.3092 340.927 61.1736 341 61.0289 341Z" fill="#886800"/>
<path d="M65.6943 329.356C65.631 329.356 65.5677 329.338 65.5135 329.311C65.2875 329.202 65.179 328.904 65.2875 328.651C71.9771 311.9 79.7334 295.465 88.3305 279.808C88.457 279.573 88.7373 279.5 88.9542 279.636C89.1712 279.781 89.2345 280.088 89.1079 280.323C80.5289 295.944 72.7997 312.334 66.1192 329.049C66.0288 329.239 65.8661 329.356 65.6943 329.356Z" fill="#886800"/>
<path d="M65.3145 346.143C62.9099 346.143 60.5052 345.538 58.2995 344.073C56.5909 342.934 56.0575 340.611 55.7773 338.712C54.7287 331.444 55.3976 323.317 57.7751 314.558C59.8905 306.765 63.0726 299.316 66.1552 292.12C66.2637 291.867 66.5349 291.768 66.7609 291.885C66.9869 292.003 67.0863 292.301 66.9779 292.554C63.9133 299.723 60.7403 307.136 58.652 314.856C56.3107 323.471 55.6507 331.444 56.6813 338.568C56.9254 340.249 57.3864 342.301 58.7695 343.223C64.8896 347.282 72.6911 344.245 77.5095 340.403C83.0871 335.955 87.0919 329.609 90.97 323.471C91.1147 323.245 91.3949 323.191 91.6028 323.344C91.8107 323.507 91.8559 323.815 91.7113 324.041C87.7879 330.251 83.738 336.66 78.0428 341.208C74.7071 343.865 69.9972 346.143 65.3145 346.143Z" fill="#886800"/>
<path d="M60.8487 344.588C60.5955 344.588 60.3515 344.525 60.1616 344.39C59.9266 344.209 59.8 343.928 59.8181 343.603C59.8362 343.332 60.0351 343.142 60.2882 343.142C60.5142 343.151 60.686 343.341 60.7221 343.585C60.8306 343.612 61.0747 343.594 61.2735 343.495C68.9214 339.571 75.3488 333.279 81.5683 327.195C81.7582 327.015 82.0384 327.033 82.2102 327.241C82.3729 327.449 82.3548 327.765 82.174 327.946C75.9093 334.075 69.4276 340.412 61.6623 344.399C61.4182 344.516 61.1289 344.588 60.8487 344.588Z" fill="#886800"/>
<path d="M46.4482 367.071C44.9656 364.784 43.5192 362.397 42.8412 359.685C42.1632 356.973 42.3711 353.845 43.9712 351.658C44.6221 350.763 45.5532 350.031 46.5838 350.012C48.2019 349.976 49.4314 351.622 50.1546 353.24C51.9264 357.208 52.2066 361.773 52.4507 366.203C52.5321 367.695 52.8394 371.121 51.0947 371.528C49.4404 371.907 47.1985 368.228 46.4482 367.071Z" fill="#886800"/>
<path d="M58.543 371.69C61.02 371.085 63.5331 370.37 65.6666 368.852C67.8 367.333 69.5266 364.847 69.6532 362.036C69.7074 360.887 69.4543 359.658 68.695 358.872C67.5107 357.642 65.6033 357.959 64.0936 358.627C60.3872 360.273 57.4402 363.473 54.6016 366.592C53.6434 367.649 51.3562 369.964 52.4139 371.564C53.4083 373.082 57.2955 371.998 58.543 371.69Z" fill="#886800"/>
<path d="M39.9943 391.099C38.3219 388.514 36.6857 385.82 35.9263 382.755C35.1579 379.691 35.393 376.156 37.201 373.679C37.9332 372.667 38.9909 371.844 40.1571 371.817C41.9922 371.781 43.3753 373.634 44.1889 375.46C46.1958 379.953 46.5031 385.106 46.7834 390.105C46.8738 391.795 47.2263 395.656 45.2556 396.117C43.3753 396.569 40.8441 392.41 39.9943 391.099Z" fill="#886800"/>
<path d="M53.671 396.324C56.4644 395.637 59.303 394.842 61.7166 393.115C64.1303 391.398 66.0739 388.586 66.2186 385.413C66.2728 384.12 65.9926 382.719 65.1338 381.842C63.7868 380.459 61.6353 380.812 59.9358 381.571C55.7412 383.433 52.4145 387.049 49.2053 390.566C48.1205 391.759 45.5441 394.381 46.7374 396.18C47.8674 397.897 52.2518 396.668 53.671 396.324Z" fill="#886800"/>
<path d="M34.9484 416.565C32.607 414.133 30.2838 411.566 28.8374 408.384C27.391 405.202 26.9661 401.26 28.4577 398.105C29.0724 396.821 30.0578 395.655 31.3414 395.348C33.3483 394.86 35.2377 396.568 36.4852 398.376C39.5678 402.824 40.9148 408.411 42.1985 413.844C42.6324 415.679 43.7714 419.837 41.6922 420.823C39.7306 421.754 36.1326 417.794 34.9484 416.565Z" fill="#886800"/>
<path d="M50.9952 419.006C53.9332 417.577 56.8983 416.013 59.2035 413.546C61.5177 411.078 63.1088 407.516 62.6387 403.99C62.4488 402.553 61.8612 401.088 60.7493 400.329C59.0046 399.136 56.7084 400.04 54.9908 401.287C50.7511 404.343 47.804 409.116 44.9655 413.763C44.0072 415.335 41.684 418.834 43.3473 420.524C44.9203 422.125 49.5036 419.729 50.9952 419.006Z" fill="#886800"/>
<path d="M31.3147 441.452C28.9733 439.02 26.65 436.453 25.2036 433.271C23.7663 430.089 23.3323 426.147 24.8239 422.992C25.4387 421.709 26.424 420.542 27.7077 420.235C29.7146 419.747 31.6039 421.456 32.8515 423.264C35.9341 427.711 37.2811 433.298 38.5647 438.731C38.9987 440.566 40.1377 444.724 38.0585 445.71C36.0968 446.641 32.4989 442.69 31.3147 441.452Z" fill="#886800"/>
<path d="M47.3516 443.893C50.2896 442.464 53.2547 440.901 55.5599 438.433C57.8742 435.965 59.4652 432.403 58.9951 428.877C58.8053 427.44 58.2177 425.976 57.1058 425.216C55.3611 424.023 53.0649 424.927 51.3473 426.174C47.1075 429.23 44.1605 434.003 41.3219 438.65C40.3637 440.223 38.0404 443.721 39.7038 445.412C41.2858 447.021 45.869 444.616 47.3516 443.893Z" fill="#886800"/>
<path d="M30.3205 465.553C27.7893 463.365 25.2581 461.042 23.5676 458.022C21.8681 455.003 21.1178 451.116 22.3472 447.825C22.8535 446.478 23.7394 445.222 24.9959 444.788C26.9576 444.101 28.9735 445.61 30.3747 447.283C33.8099 451.396 35.6179 456.829 37.3355 462.108C37.9141 463.889 39.3967 467.921 37.4079 469.105C35.5095 470.235 31.6042 466.665 30.3205 465.553Z" fill="#886800"/>
<path d="M46.502 466.357C49.3134 464.631 52.1339 462.777 54.2312 460.083C56.3285 457.39 57.6212 453.683 56.8709 450.221C56.5635 448.811 55.8584 447.409 54.6832 446.758C52.8481 445.746 50.6333 446.885 49.0241 448.295C45.0556 451.767 42.5063 456.82 40.0655 461.738C39.2429 463.401 37.2179 467.126 39.0169 468.635C40.7164 470.091 45.0737 467.234 46.502 466.357Z" fill="#886800"/>
</g>
<mask id="mask3_4718_1328" style="mask-type:luminance" maskUnits="userSpaceOnUse" x="0" y="223" width="146" height="238">
<path d="M145.96 223.235H0V460.291H145.96V223.235Z" fill="white"/>
</mask>
<g mask="url(#mask3_4718_1328)">
<path d="M38.4013 500.483C38.3381 500.483 38.2748 500.465 38.2205 500.438C37.9945 500.329 37.8861 500.031 37.9945 499.778C49.0053 472.179 61.4895 440.901 77.5988 412.614C95.1635 381.761 115.296 357.913 137.425 341.75C137.633 341.596 137.914 341.659 138.049 341.894C138.185 342.129 138.131 342.437 137.923 342.59C115.901 358.682 95.8686 382.421 78.3672 413.157C62.2941 441.389 49.8279 472.631 38.8262 500.194C38.7449 500.375 38.5821 500.483 38.4013 500.483Z" fill="#886800"/>
<path d="M99.1685 381.571C99.0871 381.571 99.0058 381.544 98.9334 381.499C98.7255 381.354 98.6532 381.047 98.7888 380.812C111.861 357.226 127.717 335.675 145.905 316.736C146.086 316.546 146.375 316.555 146.547 316.754C146.719 316.953 146.71 317.27 146.529 317.459C128.395 336.335 112.602 357.823 99.5662 381.327C99.4668 381.49 99.3131 381.571 99.1685 381.571Z" fill="#886800"/>
<path d="M91.3215 391.009C91.2583 391.009 91.195 390.991 91.1317 390.964C90.9057 390.846 90.8063 390.548 90.9057 390.295C102.712 361.62 120.539 335.856 142.461 315.796C142.651 315.615 142.94 315.651 143.094 315.859C143.256 316.076 143.229 316.393 143.03 316.564C121.217 336.525 103.471 362.162 91.7193 390.701C91.656 390.9 91.4933 391.009 91.3215 391.009Z" fill="#886800"/>
<path d="M98.2188 382.565C98.1013 382.565 97.9928 382.52 97.9024 382.421C97.7216 382.231 97.7216 381.905 97.8933 381.715C100.994 378.208 104.303 375.008 107.729 372.214C121.985 360.571 139.098 354.885 155.65 349.388C155.885 349.316 156.138 349.461 156.21 349.723C156.283 349.985 156.147 350.265 155.903 350.347C139.423 355.816 122.383 361.475 108.253 373.019C104.863 375.785 101.591 378.949 98.5261 382.421C98.4538 382.52 98.3363 382.565 98.2188 382.565Z" fill="#886800"/>
<path d="M92.867 389.752C92.7223 389.752 92.5867 389.68 92.4963 389.544C92.3517 389.318 92.3969 389.002 92.6048 388.848C105.062 379.04 119.662 372.739 134.822 370.624C135.075 370.587 135.292 370.786 135.328 371.057C135.355 371.329 135.183 371.582 134.939 371.618C119.933 373.706 105.478 379.944 93.1382 389.662C93.0478 389.725 92.9574 389.752 92.867 389.752Z" fill="#886800"/>
<path d="M93.834 388.532C93.6984 388.532 93.5719 388.468 93.4815 388.342C93.3278 388.125 93.3549 387.809 93.5538 387.637C106.879 375.812 122.798 367.794 139.585 364.431C139.83 364.386 140.065 364.567 140.11 364.838C140.155 365.109 139.992 365.371 139.748 365.426C123.106 368.752 107.322 376.707 94.1143 388.432C94.0329 388.496 93.9335 388.532 93.834 388.532Z" fill="#886800"/>
<path d="M101.337 378.877C101.229 378.877 101.129 378.841 101.039 378.76C100.849 378.579 100.831 378.262 100.993 378.054C111.769 364.169 123.476 350.925 135.788 338.712C135.978 338.532 136.259 338.55 136.43 338.748C136.593 338.956 136.584 339.273 136.394 339.454C124.118 351.639 112.438 364.847 101.681 378.705C101.59 378.823 101.464 378.877 101.337 378.877Z" fill="#886800"/>
<path d="M101.962 395.664C97.704 395.664 93.3557 394.317 90.3002 390.584C88.9623 388.948 89.0527 386.552 89.2877 384.645C90.1737 377.349 92.9399 369.792 97.5051 362.171C101.555 355.4 106.545 349.289 111.372 343.386C111.544 343.178 111.824 343.169 112.014 343.35C112.195 343.54 112.213 343.856 112.041 344.055C107.232 349.94 102.269 356.015 98.2554 362.723C93.7716 370.217 91.0505 377.639 90.1827 384.78C89.9748 386.471 89.8844 388.577 90.9692 389.906C95.7694 395.764 104.023 395.357 109.646 393.224C116.146 390.765 121.633 385.973 126.939 381.345C127.138 381.173 127.418 381.209 127.572 381.426C127.726 381.643 127.69 381.96 127.5 382.131C122.13 386.814 116.58 391.651 109.935 394.173C107.585 395.068 104.791 395.664 101.962 395.664Z" fill="#886800"/>
<path d="M93.1657 391.976C92.7317 391.976 92.2526 391.822 91.9995 391.47C91.8187 391.226 91.7735 390.909 91.8729 390.602C91.9543 390.349 92.2074 390.213 92.4425 390.313C92.6504 390.394 92.7679 390.638 92.7408 390.873C92.8402 390.936 93.0753 391 93.2922 390.963C101.636 389.662 109.429 385.711 116.968 381.887C117.194 381.77 117.465 381.887 117.565 382.131C117.664 382.384 117.565 382.683 117.339 382.8C109.745 386.651 101.889 390.638 93.4188 391.958C93.3374 391.976 93.2561 391.976 93.1657 391.976Z" fill="#886800"/>
<path d="M72.9531 408.772C72.1304 406.106 71.3711 403.357 71.4344 400.546C71.4976 397.735 72.5101 394.806 74.6074 393.224C75.4662 392.582 76.542 392.175 77.5454 392.491C79.1093 392.979 79.8506 394.95 80.1218 396.722C80.7817 401.097 79.8596 405.554 78.9376 409.866C78.6302 411.322 78.0245 414.694 76.2527 414.522C74.5532 414.368 73.3689 410.119 72.9531 408.772Z" fill="#886800"/>
<path d="M83.3306 417.089C85.8618 417.297 88.4472 417.433 90.888 416.664C93.3288 415.896 95.625 414.07 96.4838 411.421C96.8363 410.336 96.9087 409.08 96.3843 408.085C95.5617 406.531 93.6633 406.223 92.0451 406.377C88.0675 406.756 84.4154 408.872 80.8807 410.951C79.6875 411.647 76.8941 413.139 77.4907 415.001C78.0512 416.764 82.0469 416.981 83.3306 417.089Z" fill="#886800"/>
<path d="M60.505 429.7C59.5829 426.69 58.7151 423.58 58.7874 420.407C58.8507 417.225 59.9988 413.916 62.3763 412.126C63.3436 411.394 64.564 410.942 65.694 411.294C67.4568 411.846 68.3065 414.07 68.6049 416.077C69.3552 421.021 68.3066 426.057 67.267 430.929C66.9144 432.575 66.2364 436.389 64.2295 436.191C62.3221 436.019 60.9751 431.228 60.505 429.7Z" fill="#886800"/>
<path d="M72.2295 439.093C75.0861 439.337 78.0151 439.481 80.7633 438.613C83.5205 437.746 86.1149 435.684 87.0822 432.683C87.48 431.463 87.5613 430.034 86.9737 428.914C86.0517 427.16 83.9001 426.807 82.0741 426.988C77.5812 427.422 73.4499 429.808 69.4542 432.15C68.1073 432.945 64.9523 434.618 65.6213 436.733C66.2721 438.731 70.7831 438.975 72.2295 439.093Z" fill="#886800"/>
<path d="M49.0331 452.454C47.424 449.371 45.8691 446.162 45.3177 442.654C44.7663 439.147 45.381 435.233 47.6319 432.692C48.554 431.653 49.8015 430.866 51.1123 430.984C53.1554 431.164 54.5204 433.406 55.2527 435.54C57.0426 440.792 56.8799 446.578 56.69 452.183C56.6267 454.081 56.6267 458.429 54.3848 458.7C52.2604 458.953 49.8467 454.018 49.0331 452.454Z" fill="#886800"/>
<path d="M63.7585 459.948C66.9405 459.523 70.1859 458.981 73.0425 457.353C75.8992 455.735 78.349 452.842 78.8281 449.317C79.018 447.879 78.8372 446.288 77.9693 445.204C76.6133 443.495 74.1725 443.631 72.2018 444.263C67.3473 445.827 63.2793 449.443 59.356 452.987C58.0271 454.18 54.8993 456.793 56.0473 458.944C57.1321 460.987 62.1493 460.156 63.7585 459.948Z" fill="#886800"/>
<path d="M39.0615 475.108C37.4523 472.025 35.8975 468.816 35.346 465.309C34.7946 461.801 35.4093 457.887 37.6603 455.347C38.5823 454.307 39.8299 453.52 41.1407 453.638C43.1837 453.819 44.5487 456.061 45.281 458.194C47.0709 463.446 46.9082 469.223 46.7183 474.837C46.6551 476.735 46.6551 481.083 44.4131 481.355C42.2887 481.617 39.8751 476.672 39.0615 475.108Z" fill="#886800"/>
</g>
<mask id="mask4_4718_1328" style="mask-type:luminance" maskUnits="userSpaceOnUse" x="0" y="223" width="146" height="238">
<path d="M145.96 223.235H0V460.291H145.96V223.235Z" fill="white"/>
</mask>
<g mask="url(#mask4_4718_1328)">
<path d="M61.5255 493.179C61.3899 493.179 61.2633 493.115 61.1729 492.989C61.0192 492.772 61.0463 492.456 61.2452 492.284C88.3652 468.057 109.582 436.299 122.591 400.455C122.681 400.193 122.952 400.076 123.178 400.175C123.413 400.275 123.522 400.573 123.431 400.826C110.36 436.832 89.0523 468.726 61.8147 493.061C61.7243 493.143 61.6249 493.179 61.5255 493.179Z" fill="#886800"/>
<path d="M111.852 427.657C111.689 427.657 111.526 427.557 111.454 427.386C111.336 427.142 111.427 426.834 111.653 426.708C116.58 423.896 119.825 418.544 122.736 413.301C128.594 402.761 133.909 391.623 139.062 380.866C139.18 380.622 139.451 380.522 139.677 380.658C139.894 380.784 139.984 381.092 139.867 381.336C134.714 392.112 129.38 403.258 123.513 413.835C120.539 419.195 117.203 424.674 112.069 427.603C111.996 427.639 111.924 427.657 111.852 427.657Z" fill="#886800"/>
<path d="M115.54 419.458C115.504 419.458 115.476 419.458 115.44 419.449C115.196 419.385 115.043 419.123 115.097 418.852C117.99 404.65 122.374 390.81 128.133 377.72C128.241 377.476 128.512 377.367 128.738 377.494C128.964 377.611 129.055 377.919 128.946 378.163C123.224 391.18 118.857 404.948 115.983 419.078C115.929 419.304 115.739 419.458 115.54 419.458Z" fill="#886800"/>
<path d="M113.931 422.567C113.813 422.567 113.687 422.513 113.596 422.405C111.617 420.045 111.607 416.51 111.87 413.355C112.801 401.866 115.413 390.701 119.653 380.161C119.753 379.907 120.024 379.799 120.25 379.907C120.476 380.025 120.584 380.314 120.476 380.567C116.281 391 113.687 402.056 112.765 413.437C112.53 416.366 112.521 419.638 114.256 421.708C114.428 421.907 114.419 422.233 114.238 422.414C114.148 422.522 114.039 422.567 113.931 422.567Z" fill="#886800"/>
<path d="M110.504 431.101C110.332 431.101 110.16 430.983 110.088 430.794C109.988 430.54 110.097 430.242 110.323 430.134C120.312 425.361 128.9 417.035 134.505 406.684C134.631 406.449 134.912 406.368 135.129 406.512C135.346 406.657 135.409 406.964 135.282 407.199C129.587 417.731 120.854 426.201 110.684 431.047C110.63 431.083 110.567 431.101 110.504 431.101Z" fill="#886800"/>
<path d="M112.358 425.56C112.177 425.56 112.005 425.442 111.933 425.243C110.296 420.588 110.423 415.417 110.803 410.517C111.399 402.86 112.593 395.203 114.337 387.763C114.401 387.492 114.645 387.329 114.889 387.402C115.133 387.474 115.278 387.745 115.214 388.016C113.479 395.402 112.303 403.005 111.707 410.607C111.336 415.381 111.2 420.416 112.773 424.882C112.864 425.144 112.746 425.433 112.52 425.532C112.466 425.55 112.412 425.56 112.358 425.56Z" fill="#886800"/>
<path d="M121.254 433.18C123.017 433.696 124.807 434.672 125.693 436.444C126.642 438.342 126.307 440.81 125.177 442.582C124.047 444.354 122.239 445.475 120.368 446.062C116.174 447.373 111.409 446.126 108.2 442.862C107.17 441.814 104.566 440.042 104.864 438.695C105.072 437.746 108.634 435.612 109.403 435.115C112.919 432.801 117.285 432.014 121.254 433.18Z" fill="#886800"/>
<path d="M94.377 425.397C94.4584 423.372 94.9375 421.22 96.3025 419.891C97.767 418.463 100.018 418.3 101.817 419.15C103.616 420 104.981 421.718 105.903 423.634C107.955 427.901 107.865 433.343 105.668 437.519C104.963 438.857 103.959 442.067 102.712 442.03C101.835 442.003 99.2044 438.595 98.5896 437.872C95.8144 434.518 94.1962 429.953 94.377 425.397Z" fill="#886800"/>
<path d="M111.553 448.81C113.316 449.326 115.106 450.302 115.992 452.074C116.941 453.972 116.607 456.44 115.477 458.212C114.347 459.984 112.539 461.105 110.667 461.692C106.473 463.003 101.709 461.756 98.4994 458.492C97.4688 457.444 94.8563 455.672 95.1636 454.325C95.3716 453.376 98.9333 451.242 99.7017 450.745C103.218 448.431 107.585 447.644 111.553 448.81Z" fill="#886800"/>
<path d="M85.7627 439.481C85.8441 437.456 86.3232 435.305 87.6883 433.976C89.1527 432.548 91.4037 432.385 93.2027 433.235C95.0016 434.084 96.3667 435.802 97.2887 437.718C99.3408 441.985 99.2504 447.418 97.0537 451.604C96.3486 452.942 95.3451 456.151 94.0976 456.115C93.2207 456.088 90.5901 452.68 89.9754 451.956C87.2001 448.603 85.5819 444.037 85.7627 439.481Z" fill="#886800"/>
<path d="M74.417 453.484C74.4983 451.459 74.9774 449.308 76.3425 447.979C77.807 446.55 80.0579 446.388 81.8569 447.237C83.6558 448.087 85.0209 449.805 85.943 451.721C87.995 455.988 87.9047 461.421 85.7079 465.607C85.0028 466.945 83.9994 470.154 82.7518 470.118C81.875 470.091 79.2443 466.683 78.6296 465.959C75.8634 462.605 74.2362 458.049 74.417 453.484Z" fill="#886800"/>
</g>
<path opacity="0.71" d="M571 109.372C559.999 98.585 541.434 103.871 540.881 126.791C525.436 110.099 491.871 126.674 496.859 149.693C484.651 145.565 467.628 154.853 464.626 167.651C458.586 170.271 429.492 178.123 431.061 185.15C440.783 187.726 450.923 183.939 460.382 180.555C495.734 167.92 533.417 160.148 570.891 163.029C570.927 162.948 570.955 162.876 570.991 162.796V109.372H571Z" fill="white"/>
<path opacity="0.71" d="M503.115 75.3819C507.201 74.1779 506.857 68.2577 502.653 67.5607C497.606 67.0357 493.212 64.8088 488.872 62.4734C477.52 56.345 463.64 56.1368 452.396 62.4643C450.439 40.2772 414.062 39.8518 407.122 59.2236C408.961 -6.02506 320.343 31.0349 358.405 76.5858C344.036 70.032 324.267 78.0432 329.331 96.6275C290.517 95.1701 275.287 116.253 327.592 108.133C384.544 88.3356 442.611 72.8201 503.115 75.3819Z" fill="white"/>
<path d="M330.708 103.718C331.584 103.555 329.053 123.38 307.366 128.74C307.357 128.749 308.397 107.93 330.708 103.718Z" fill="#C0A719"/>
<path d="M327.11 107.279C327.11 107.279 318.043 115.244 307.357 128.749" stroke="#005B39" stroke-miterlimit="10" stroke-linecap="round" stroke-linejoin="round"/>
<path opacity="0.71" d="M302.077 179.854C297.467 178.338 292.504 178.064 287.432 178.694C281.536 161.36 259.347 152.345 243.443 161.277C242.437 145.496 230.473 134.207 215.393 143.797C214.986 144.044 214.424 144.509 214.071 144.957C214.868 132.18 212.504 117.795 202.107 109.439C188.548 98.0682 166.087 105.493 161.83 122.745C154.775 117.229 147.058 111.603 138.001 110.562C131.127 109.119 123.836 111.795 119 116.526V139.989C131.281 149.35 162.202 153.505 176.077 159.049C210.167 166.785 265.804 190.348 301.615 185.297C304.532 184.886 304.876 180.767 302.077 179.854Z" fill="white"/>
<path d="M158.233 63.1461C157.356 62.9834 159.887 82.8081 181.574 88.1689C181.574 88.1689 180.544 67.3497 158.233 63.1461Z" fill="#C0A719"/>
<path d="M161.831 66.708C161.831 66.708 170.898 74.6722 181.583 88.178" stroke="#005B39" stroke-miterlimit="10" stroke-linecap="round" stroke-linejoin="round"/>
<path d="M469.03 342.527C468.008 340.041 465.803 338.251 463.561 336.769C458.128 333.171 451.953 330.703 445.544 329.546C445.878 331.598 446.81 333.749 448.256 335.25C450.661 337.736 453.183 340.294 456.401 341.551C458.146 342.238 460.026 342.5 461.888 342.762C464.239 343.088 466.689 342.193 469.03 342.527Z" fill="#C0A719"/>
<path d="M468.162 341.614C462.557 337.655 456.229 334.726 449.585 333.026" stroke="#005B39" stroke-miterlimit="10" stroke-linecap="round" stroke-linejoin="round"/>
<path d="M341.602 217.35C341.602 217.35 299.665 223.118 274.507 311.285L278.43 385.142L319.517 344.516L341.602 217.35Z" fill="white"/>
<path d="M262.963 286.127C262.963 286.127 290.399 327.403 296.067 367.704L278.43 385.151C278.43 385.151 260.196 396.46 248.652 370.144C237.108 343.829 240.344 333.225 240.344 333.225L244.964 346.667L262.963 286.127Z" fill="white"/>
<path d="M244.964 346.667C244.964 346.667 226.034 340.141 221.424 328.135C221.424 328.135 236.656 316.365 236.656 301.25C236.656 301.241 245.425 333.695 244.964 346.667Z" fill="white"/>
<path d="M244.964 346.667C244.964 346.667 265.114 327.06 285.59 342.446C285.59 342.446 299.9 309.206 262.972 286.127L244.964 346.667Z" fill="white"/>
<path d="M244.964 346.667C244.964 346.667 265.114 327.06 285.59 342.446C285.59 342.446 299.9 309.206 262.972 286.127" stroke="#7B0A32" stroke-miterlimit="10" stroke-linecap="round" stroke-linejoin="round"/>
<path d="M245.199 345.673L243.265 343.802C240.056 340.701 238.166 336.488 237.976 332.041L235.725 278.741C235.725 278.741 235.029 260.742 221.415 247.354C221.415 247.354 197.089 226.625 193.011 217.052C192.171 215.081 194.268 213.138 196.194 214.078C198.951 215.416 203.697 218.878 211.489 227.511C211.489 227.511 191.854 206.267 192.46 195.338C192.559 193.512 194.91 192.825 196.013 194.28C199.629 199.044 207.81 209.377 218.812 220.65C218.812 220.65 206.915 200.961 207.457 191.008C207.602 188.25 211.435 187.69 212.375 190.284C215.159 197.987 221.072 212.722 225.348 211.944C225.348 211.944 229.967 190.583 247.279 207.207C247.279 207.207 253.507 213.671 235.735 210.435C235.735 210.435 238.04 223.524 250.741 225.405C250.741 225.405 244.973 206.746 250.741 204.432C250.741 204.432 255.035 203.537 260.034 224.166C260.161 224.7 260.269 225.242 260.341 225.794C260.866 229.654 262.439 245.103 257.666 265.705L262.972 286.136L245.199 345.673Z" fill="#FF9A5A"/>
<path opacity="0.39" d="M245.199 345.673L243.265 343.802C240.056 340.701 238.166 336.488 237.976 332.041L235.725 278.741C235.725 278.741 235.029 260.742 221.415 247.354C221.415 247.354 197.089 226.625 193.011 217.052C192.171 215.081 194.268 213.138 196.194 214.078C198.951 215.416 203.697 218.878 211.489 227.511C211.489 227.511 191.854 206.267 192.46 195.338C192.559 193.512 194.91 192.825 196.013 194.28C199.629 199.044 207.81 209.377 218.812 220.65C218.812 220.65 206.915 200.961 207.457 191.008C207.602 188.25 211.435 187.69 212.375 190.284C215.159 197.987 221.072 212.722 225.348 211.944C225.348 211.944 229.967 190.583 247.279 207.207C247.279 207.207 253.507 213.671 235.735 210.435C235.735 210.435 238.04 223.524 250.741 225.405C250.741 225.405 244.973 206.746 250.741 204.432C250.741 204.432 255.035 203.537 260.034 224.166C260.161 224.7 260.269 225.242 260.341 225.794C260.866 229.654 262.439 245.103 257.666 265.705L262.972 286.136L245.199 345.673Z" fill="#7B0A32"/>
<path d="M227.707 206.195C227.707 206.195 223.069 211.809 227.707 215.804" stroke="#7B0A32" stroke-miterlimit="10" stroke-linecap="round" stroke-linejoin="round"/>
<path d="M233.203 214.575C233.203 214.575 215.24 219.357 211.326 231.887" stroke="#7B0A32" stroke-miterlimit="10" stroke-linecap="round" stroke-linejoin="round"/>
<path d="M229.271 208.346C229.271 208.346 237.587 211.33 246.673 211.004" stroke="#7B0A32" stroke-miterlimit="10" stroke-linecap="round" stroke-linejoin="round"/>
<path d="M381.142 184.336V203.492L369.137 209.495C369.137 209.495 377.68 274.583 391.529 273.886C405.378 273.19 405.378 240.42 405.378 240.42L418.766 220.804V175.802L381.142 184.336Z" fill="#FF9A5A"/>
<path opacity="0.39" d="M381.142 184.336V203.492L369.137 209.495C369.137 209.495 377.68 274.583 391.529 273.886C405.378 273.19 405.378 240.42 405.378 240.42L418.766 220.804V175.802L381.142 184.336Z" fill="#7B0A32"/>
<path d="M381.503 198.185C381.503 198.185 397.025 200.861 408.858 187.202H381.503V198.185Z" fill="#7B0A32"/>
<path d="M385.878 247.155C386.954 249.442 387.46 251.955 387.316 254.487C386.972 260.833 386.9 273.209 391.519 273.887C397.748 274.809 395.904 252.426 395.904 252.426C395.904 252.426 400.957 231.154 415.394 234.291L447.603 200.265C447.603 200.265 488.69 207.65 499.303 221.039C499.303 221.039 478.529 436.426 510.847 460.291H327.127C327.127 460.291 299.754 261.203 341.6 217.35L367.292 207.714L385.878 247.155Z" fill="white"/>
<path d="M385.525 255.897C385.525 255.897 392.333 258.6 397.639 256.765" stroke="white" stroke-miterlimit="10" stroke-linecap="round" stroke-linejoin="round"/>
<path d="M385.525 261.619C385.525 261.619 392.333 264.322 397.639 262.487" stroke="white" stroke-miterlimit="10" stroke-linecap="round" stroke-linejoin="round"/>
<path d="M385.525 267.333C385.525 267.333 392.333 270.036 397.639 268.201" stroke="white" stroke-miterlimit="10" stroke-linecap="round" stroke-linejoin="round"/>
<path d="M318.341 284.78C318.341 284.78 314.969 290.9 320.284 389.065" stroke="#7B0A32" stroke-miterlimit="10" stroke-linecap="round" stroke-linejoin="round"/>
<path d="M395.914 252.426C395.914 252.426 393.374 232.574 417.61 221.039L422.248 239.272C422.248 239.272 405.84 228.198 395.914 252.426Z" fill="white"/>
<path d="M422.248 239.272C422.248 239.272 405.84 228.189 395.914 252.426" stroke="#7B0A32" stroke-miterlimit="10" stroke-linecap="round" stroke-linejoin="round"/>
<path d="M381.142 194.877V203.492C381.142 203.492 367.257 211.61 380.365 230.296C383.52 234.798 385.635 239.968 386.385 245.411C386.774 248.231 387.1 251.693 387.253 255.888C387.253 255.888 383.447 226.562 343.138 245.031C343.138 245.031 331.44 215.488 372.681 197.634L381.142 194.877Z" fill="white"/>
<path d="M387.253 255.897C387.253 255.897 383.447 226.571 343.138 245.04C343.138 245.04 331.44 215.497 372.681 197.643" stroke="#7B0A32" stroke-miterlimit="10" stroke-linecap="round" stroke-linejoin="round"/>
<path d="M470.773 215.614C486.756 224.573 472.952 235.738 464.011 243.675C456.3 251.784 446.203 256.466 435.563 259.531C434.134 260.155 432.606 259.892 431.621 258.636C416.913 238.413 419.625 195.699 438.916 179.012C443.753 176.571 445.85 185.077 447.495 188.35C452.937 199.126 460.974 208.599 470.773 215.614Z" fill="#FFB715"/>
<path d="M434.016 259.874C428.483 249.849 427.67 237.763 429.559 226.472C431.449 215.181 435.851 204.486 440.317 193.946C442.812 188.043 445.388 181.922 445.225 175.522C445.018 167.015 439.494 158.87 431.675 155.526C427.001 159.133 424.569 163.354 420.275 167.404C422.851 169.294 425.726 170.776 428.764 171.78C413.622 193.087 411.127 222.72 422.49 246.26C425.708 252.968 426.892 257.768 434.016 259.874Z" fill="#FFB715"/>
<path d="M428.746 171.798C428.746 171.798 441.438 177.882 445.216 175.531C445.216 175.531 438.726 184.002 425.319 177.131L428.746 171.798Z" fill="#7B0A32"/>
<path d="M437.469 204.269C437.469 204.269 419.344 252.335 440.227 257.406L432.913 259.513C432.913 259.513 412.148 252.724 437.469 204.269Z" fill="#7B0A32"/>
<path d="M443.698 168.164C443.698 168.164 451.761 174.844 431.449 217.947C431.449 217.947 417.337 246.269 430.31 256.945" stroke="#7B0A32" stroke-miterlimit="10" stroke-linecap="round" stroke-linejoin="round"/>
<path d="M362.211 108.924C362.211 108.924 341.437 169.556 368.214 183.947C394.99 198.348 413.911 191.622 423.15 168.109C423.15 168.109 439.765 114.891 381.141 103.347L362.211 108.924Z" fill="#FF9A5A"/>
<path opacity="0.39" d="M362.211 108.924C362.211 108.924 341.437 169.556 368.214 183.947C394.99 198.348 413.911 191.622 423.15 168.109C423.15 168.109 439.765 114.891 381.141 103.347L362.211 108.924Z" fill="#7B0A32"/>
<path d="M377.516 164.294C379.487 166.518 382.28 168.191 385.246 168.163C388.22 168.136 391.239 166.057 391.709 163.119C390.326 161.519 388.31 160.57 386.249 160.109C384.188 159.648 382.054 159.639 379.939 159.657C379.035 159.666 378.104 159.684 377.254 159.991C374.533 160.986 376.233 162.839 377.516 164.294Z" fill="#7B0A32"/>
<path d="M394.99 158.238C392.757 156.755 389.277 155.336 385.58 154.92C382.904 158.726 379.233 156.918 377.733 155.932C376.621 156.412 374.307 157.984 373.339 158.843C369.85 161.935 368.358 163.788 363.233 164.629C363.142 165.822 368.06 167.151 369.262 167.178C373.927 167.657 374.686 164.15 378.248 162.043C380.354 165.632 386.149 166.283 388.834 162.685C393.065 167.522 400.649 169.031 406.408 166.175C402.15 164.312 398.859 160.814 394.99 158.238Z" fill="#FFF0D3"/>
<path d="M384.612 132.636C384.612 132.636 371.848 152.271 378.528 156.656C383.256 159.756 386.411 153.492 386.411 153.492" stroke="#7B0A32" stroke-miterlimit="10" stroke-linecap="round" stroke-linejoin="round"/>
<path d="M394.023 140.465C398.914 138.377 404.944 139.254 409.048 142.653" stroke="#7B0A32" stroke-miterlimit="10" stroke-linecap="round" stroke-linejoin="round"/>
<path d="M361.244 133.278C363.757 132.564 366.46 132.745 368.973 133.459C371.486 134.173 373.828 135.394 376.07 136.731" stroke="#7B0A32" stroke-miterlimit="10" stroke-linecap="round" stroke-linejoin="round"/>
<path d="M407.276 128.885C409.482 130.241 410.44 132.031 410.82 133.522C411 134.255 410.214 134.86 409.536 134.526C406.128 132.862 404.302 129.906 396.789 131.018C389.467 132.112 397.413 122.792 407.276 128.885Z" fill="#FFF0D3"/>
<path d="M367.165 120.875C364.588 121.147 362.943 122.331 361.958 123.506C361.47 124.085 361.922 124.97 362.681 124.97C366.469 124.961 369.407 123.081 375.681 127.357C381.801 131.524 378.7 119.673 367.165 120.875Z" fill="#FFF0D3"/>
<path d="M365.041 152.389C369.08 152.389 372.354 149.114 372.354 145.075C372.354 141.036 369.08 137.762 365.041 137.762C361.002 137.762 357.728 141.036 357.728 145.075C357.728 149.114 361.002 152.389 365.041 152.389Z" fill="#FF9A5A"/>
<path d="M408.848 150.201C408.848 154.242 405.576 157.514 401.535 157.514C397.494 157.514 394.222 154.242 394.222 150.201C394.222 146.16 397.494 142.888 401.535 142.888C405.576 142.888 408.848 146.16 408.848 150.201Z" fill="#FF9A5A"/>
<path d="M358.658 121.535C358.658 121.535 366.83 105.173 388.752 109.096C410.684 113.02 425.31 151.096 425.31 151.096L423.746 165.777C423.746 165.777 449.221 153.636 449.221 120.866C449.221 88.0963 420.148 78.1703 420.148 78.1703C420.148 78.1703 411.145 55.3172 384.603 65.9392C358.062 76.5522 358.658 121.535 358.658 121.535Z" fill="#FFB715"/>
<path d="M420.149 78.1704C420.149 78.1704 405.296 68.0908 388.373 74.5544" stroke="#7B0A32" stroke-miterlimit="10" stroke-linecap="round" stroke-linejoin="round"/>
<path d="M448.38 111.537C448.38 111.537 428.229 80.8553 387.143 100.4" stroke="#7B0A32" stroke-miterlimit="10" stroke-linecap="round" stroke-linejoin="round"/>
<path d="M384.812 105.327C384.812 105.327 422.563 113.011 425.311 151.096" stroke="#7B0A32" stroke-miterlimit="10" stroke-linecap="round" stroke-linejoin="round"/>
<path d="M445.813 140.275C445.813 140.275 438.671 159.702 423.602 163.906" stroke="#7B0A32" stroke-miterlimit="10" stroke-linecap="round" stroke-linejoin="round"/>
<path d="M499.313 221.039C499.313 221.039 543.898 275.911 552.739 337.537C554.511 349.85 549.611 362.189 539.893 369.954C534.252 374.465 526.804 379.727 517.312 385.142L492.741 355.364C492.75 355.373 475.773 233.044 499.313 221.039Z" fill="white"/>
<path d="M451.681 308.021C430.22 298.267 406.237 294.109 382.751 296.08" stroke="#FFB715" stroke-miterlimit="10" stroke-linecap="round" stroke-linejoin="round"/>
<path d="M400.606 295.555C397.523 293.313 393.554 292.798 389.767 292.473C382.227 291.822 374.652 291.659 367.076 291.496" stroke="#FFB715" stroke-miterlimit="10" stroke-linecap="round" stroke-linejoin="round"/>
<path d="M395.019 295.573C386.413 297.716 377.554 298.864 368.686 298.972" stroke="#FFB715" stroke-miterlimit="10" stroke-linecap="round" stroke-linejoin="round"/>
<path d="M397.197 295.691C396.555 297.436 394.693 298.358 392.966 299.045C386.475 301.612 379.56 303.104 372.59 303.429" stroke="#FFB715" stroke-miterlimit="10" stroke-linecap="round" stroke-linejoin="round"/>
<path d="M402.901 295.42C397.206 290.638 389.983 287.7 382.57 287.148" stroke="#FFB715" stroke-miterlimit="10" stroke-linecap="round" stroke-linejoin="round"/>
<path d="M399.312 295.817C397.315 298.041 394.521 299.361 391.746 300.464C387.389 302.2 382.896 303.574 378.312 304.559" stroke="#FFB715" stroke-miterlimit="10" stroke-linecap="round" stroke-linejoin="round"/>
<path d="M401.021 288.206C400.768 286.994 400.75 285.647 401.446 284.626C402.187 283.532 403.642 283.053 404.953 283.252C406.264 283.451 407.421 284.237 408.316 285.214C410.314 287.392 411.082 290.619 410.278 293.458C410.025 294.371 409.853 296.432 409.021 296.622C408.443 296.758 406.192 295.185 405.685 294.859C403.362 293.359 401.599 290.936 401.021 288.206Z" fill="#FFB715"/>
<path d="M404.98 306.62C403.85 307.126 402.531 307.425 401.392 306.964C400.162 306.467 399.394 305.156 399.303 303.836C399.222 302.516 399.737 301.214 400.497 300.129C402.196 297.716 405.188 296.278 408.135 296.459C409.076 296.513 411.137 296.242 411.498 297.011C411.751 297.553 410.694 300.075 410.486 300.645C409.519 303.239 407.521 305.472 404.98 306.62Z" fill="#FFB715"/>
<path d="M412.511 289.788C412.258 288.576 412.24 287.229 412.936 286.208C413.677 285.114 415.133 284.635 416.443 284.834C417.754 285.033 418.911 285.819 419.806 286.796C421.804 288.974 422.573 292.201 421.768 295.04C421.515 295.953 421.343 298.014 420.511 298.204C419.933 298.34 417.682 296.767 417.176 296.441C414.843 294.932 413.09 292.509 412.511 289.788Z" fill="#FFB715"/>
<path d="M415.287 307.958C414.157 308.464 412.837 308.763 411.698 308.302C410.469 307.804 409.7 306.494 409.61 305.165C409.529 303.845 410.044 302.543 410.803 301.458C412.503 299.045 415.495 297.607 418.442 297.788C419.382 297.842 421.443 297.571 421.805 298.34C422.058 298.882 421 301.404 420.792 301.974C419.825 304.586 417.827 306.819 415.287 307.958Z" fill="#FFB715"/>
<path d="M425.322 292.572C425.069 291.361 425.05 290.014 425.747 288.992C426.488 287.898 427.943 287.419 429.254 287.618C430.565 287.817 431.722 288.604 432.617 289.58C434.615 291.759 435.383 294.986 434.579 297.824C434.325 298.737 434.154 300.799 433.322 300.988C432.743 301.124 430.493 299.551 429.986 299.226C427.663 297.725 425.9 295.293 425.322 292.572Z" fill="#FFB715"/>
<path d="M426.379 310.978C425.249 311.484 423.929 311.782 422.79 311.321C421.561 310.824 420.792 309.513 420.702 308.193C420.62 306.873 421.136 305.572 421.895 304.487C423.595 302.073 426.587 300.636 429.534 300.817C430.474 300.871 432.535 300.6 432.897 301.368C433.15 301.911 432.092 304.433 431.884 305.002C430.917 307.606 428.919 309.839 426.379 310.978Z" fill="#FFB715"/>
<path d="M445.56 324.312C422.083 322.178 398.073 326.156 376.549 335.756" stroke="#FFB715" stroke-miterlimit="10" stroke-linecap="round" stroke-linejoin="round"/>
<path d="M393.227 329.374C389.584 328.271 385.661 329.094 381.973 330.034C374.641 331.905 367.436 334.247 360.231 336.597" stroke="#FFB715" stroke-miterlimit="10" stroke-linecap="round" stroke-linejoin="round"/>
<path d="M387.957 331.236C380.535 336.1 372.553 340.095 364.218 343.124" stroke="#FFB715" stroke-miterlimit="10" stroke-linecap="round" stroke-linejoin="round"/>
<path d="M390.063 330.63C390.027 332.484 388.581 333.975 387.171 335.187C381.891 339.752 375.853 343.431 369.38 346.044" stroke="#FFB715" stroke-miterlimit="10" stroke-linecap="round" stroke-linejoin="round"/>
<path d="M395.343 328.497C388.391 325.857 380.608 325.469 373.421 327.394" stroke="#FFB715" stroke-miterlimit="10" stroke-linecap="round" stroke-linejoin="round"/>
<path d="M392.089 330.052C390.941 332.809 388.726 334.979 386.475 336.931C382.94 340.005 379.143 342.789 375.139 345.23" stroke="#FFB715" stroke-miterlimit="10" stroke-linecap="round" stroke-linejoin="round"/>
<path d="M391.202 322.296C390.56 321.238 390.099 319.963 390.425 318.77C390.768 317.495 391.979 316.564 393.281 316.32C394.583 316.076 395.939 316.438 397.105 317.061C399.709 318.454 401.499 321.256 401.679 324.203C401.734 325.143 402.258 327.159 401.544 327.602C401.037 327.918 398.398 327.177 397.81 327.042C395.107 326.391 392.648 324.682 391.202 322.296Z" fill="#FFB715"/>
<path d="M401.002 338.378C400.107 339.228 398.959 339.951 397.72 339.887C396.4 339.824 395.234 338.839 394.719 337.618C394.204 336.398 394.267 334.997 394.628 333.722C395.442 330.884 397.792 328.542 400.631 327.738C401.544 327.485 403.388 326.544 403.985 327.15C404.401 327.575 404.238 330.314 404.229 330.92C404.175 333.686 403.027 336.461 401.002 338.378Z" fill="#FFB715"/>
<path d="M402.566 319.999C401.924 318.942 401.463 317.667 401.789 316.474C402.132 315.199 403.344 314.268 404.645 314.024C405.947 313.78 407.303 314.141 408.469 314.765C411.073 316.157 412.863 318.96 413.044 321.907C413.098 322.847 413.622 324.863 412.908 325.306C412.402 325.622 409.762 324.881 409.174 324.745C406.462 324.095 404.004 322.386 402.566 319.999Z" fill="#FFB715"/>
<path d="M411.18 336.244C410.285 337.094 409.137 337.817 407.899 337.754C406.579 337.691 405.413 336.705 404.898 335.485C404.382 334.265 404.446 332.863 404.807 331.589C405.621 328.75 407.971 326.409 410.81 325.604C411.723 325.351 413.576 324.411 414.164 325.017C414.579 325.442 414.417 328.181 414.408 328.786C414.344 331.562 413.196 334.328 411.18 336.244Z" fill="#FFB715"/>
<path d="M415.584 318.408C414.942 317.351 414.481 316.076 414.806 314.883C415.15 313.608 416.361 312.677 417.663 312.433C418.965 312.189 420.321 312.55 421.487 313.174C424.09 314.566 425.88 317.369 426.061 320.316C426.115 321.256 426.64 323.272 425.926 323.715C425.419 324.031 422.78 323.29 422.192 323.145C419.489 322.503 417.021 320.795 415.584 318.408Z" fill="#FFB715"/>
<path d="M422.643 335.44C421.748 336.29 420.6 337.013 419.362 336.949C418.042 336.886 416.876 335.901 416.36 334.68C415.845 333.46 415.908 332.059 416.27 330.784C417.084 327.946 419.434 325.604 422.273 324.8C423.186 324.547 425.039 323.606 425.626 324.212C426.042 324.637 425.88 327.376 425.871 327.982C425.816 330.757 424.668 333.523 422.643 335.44Z" fill="#FFB715"/>
<path d="M458.253 310.896C450.297 288.703 436.575 268.607 418.793 253.131" stroke="#FFB715" stroke-miterlimit="10" stroke-linecap="round" stroke-linejoin="round"/>
<path d="M431.612 265.57C431.069 261.8 428.683 258.591 426.269 255.644C421.478 249.777 416.316 244.235 411.163 238.694" stroke="#FFB715" stroke-miterlimit="10" stroke-linecap="round" stroke-linejoin="round"/>
<path d="M427.706 261.574C420.166 256.891 413.179 251.341 406.923 245.049" stroke="#FFB715" stroke-miterlimit="10" stroke-linecap="round" stroke-linejoin="round"/>
<path d="M429.144 263.219C427.444 263.97 425.482 263.283 423.792 262.523C417.428 259.658 411.543 255.734 406.453 250.961" stroke="#FFB715" stroke-miterlimit="10" stroke-linecap="round" stroke-linejoin="round"/>
<path d="M433.302 267.115C432.759 259.703 429.84 252.471 425.066 246.766" stroke="#FFB715" stroke-miterlimit="10" stroke-linecap="round" stroke-linejoin="round"/>
<path d="M430.518 264.819C427.535 264.937 424.642 263.843 421.912 262.623C417.627 260.715 413.514 258.437 409.608 255.833" stroke="#FFB715" stroke-miterlimit="10" stroke-linecap="round" stroke-linejoin="round"/>
<path d="M437.171 260.751C437.858 259.721 438.816 258.772 440.037 258.564C441.339 258.338 442.695 259.043 443.463 260.119C444.231 261.194 444.475 262.577 444.403 263.897C444.231 266.844 442.451 269.647 439.856 271.048C439.024 271.5 437.424 272.811 436.71 272.35C436.213 272.024 435.77 269.321 435.652 268.725C435.11 266.013 435.625 263.066 437.171 260.751Z" fill="#FFB715"/>
<path d="M426.721 276.409C425.573 275.957 424.433 275.215 423.972 274.076C423.475 272.847 423.873 271.373 424.768 270.397C425.654 269.421 426.956 268.878 428.257 268.679C431.177 268.218 434.287 269.366 436.213 271.599C436.827 272.313 438.455 273.606 438.156 274.393C437.948 274.953 435.399 275.957 434.839 276.201C432.307 277.313 429.315 277.439 426.721 276.409Z" fill="#FFB715"/>
<path d="M444.042 270.081C444.729 269.05 445.687 268.101 446.907 267.893C448.209 267.667 449.565 268.372 450.333 269.448C451.102 270.524 451.346 271.907 451.274 273.227C451.102 276.174 449.321 278.976 446.727 280.377C445.895 280.829 444.295 282.14 443.581 281.679C443.083 281.353 442.64 278.651 442.523 278.054C441.981 275.351 442.487 272.395 444.042 270.081Z" fill="#FFB715"/>
<path d="M432.94 284.744C431.792 284.292 430.653 283.55 430.192 282.411C429.695 281.182 430.093 279.708 430.988 278.732C431.874 277.756 433.175 277.213 434.477 277.014C437.397 276.553 440.507 277.701 442.432 279.934C443.047 280.648 444.674 281.941 444.376 282.728C444.168 283.288 441.619 284.292 441.058 284.536C438.518 285.648 435.526 285.765 432.94 284.744Z" fill="#FFB715"/>
<path d="M450.975 281.218C451.662 280.187 452.62 279.238 453.841 279.03C455.143 278.804 456.499 279.509 457.267 280.585C458.035 281.661 458.28 283.044 458.207 284.364C458.035 287.311 456.255 290.113 453.66 291.514C452.828 291.966 451.228 293.277 450.514 292.816C450.017 292.491 449.574 289.788 449.456 289.191C448.905 286.488 449.42 283.532 450.975 281.218Z" fill="#FFB715"/>
<path d="M438.5 294.805C437.352 294.353 436.213 293.612 435.752 292.473C435.255 291.243 435.652 289.77 436.547 288.793C437.433 287.817 438.735 287.275 440.037 287.076C442.957 286.615 446.066 287.763 447.992 289.996C448.607 290.71 450.234 292.003 449.936 292.789C449.728 293.35 447.178 294.353 446.618 294.597C444.087 295.7 441.094 295.827 438.5 294.805Z" fill="#FFB715"/>
<path d="M465.449 305.418C464.599 281.86 469.887 258.103 480.654 237.13" stroke="#FFB715" stroke-miterlimit="10" stroke-linecap="round" stroke-linejoin="round"/>
<path d="M473.368 253.447C472.473 249.75 473.504 245.88 474.643 242.246C476.912 235.023 479.651 227.954 482.381 220.894" stroke="#FFB715" stroke-miterlimit="10" stroke-linecap="round" stroke-linejoin="round"/>
<path d="M475.51 248.285C480.771 241.144 485.201 233.387 488.681 225.233" stroke="#FFB715" stroke-miterlimit="10" stroke-linecap="round" stroke-linejoin="round"/>
<path d="M474.796 250.355C476.649 250.428 478.222 249.054 479.506 247.725C484.351 242.707 488.356 236.877 491.312 230.558" stroke="#FFB715" stroke-miterlimit="10" stroke-linecap="round" stroke-linejoin="round"/>
<path d="M472.374 255.517C470.123 248.43 470.159 240.637 472.473 233.568" stroke="#FFB715" stroke-miterlimit="10" stroke-linecap="round" stroke-linejoin="round"/>
<path d="M474.108 252.353C476.929 251.35 479.207 249.271 481.286 247.119C484.55 243.756 487.533 240.113 490.191 236.253" stroke="#FFB715" stroke-miterlimit="10" stroke-linecap="round" stroke-linejoin="round"/>
<path d="M466.415 251.042C465.394 250.346 464.146 249.822 462.935 250.075C461.642 250.346 460.648 251.503 460.331 252.796C460.015 254.08 460.295 255.454 460.865 256.656C462.121 259.332 464.815 261.266 467.744 261.61C468.684 261.718 470.664 262.351 471.152 261.655C471.496 261.167 470.899 258.491 470.791 257.895C470.284 255.155 468.712 252.606 466.415 251.042Z" fill="#FFB715"/>
<path d="M481.929 261.7C482.824 260.851 483.61 259.748 483.619 258.509C483.628 257.19 482.706 255.969 481.513 255.391C480.32 254.812 478.918 254.794 477.635 255.083C474.76 255.734 472.283 257.958 471.325 260.751C471.017 261.646 469.987 263.445 470.556 264.069C470.954 264.512 473.702 264.494 474.308 264.512C477.083 264.611 479.904 263.617 481.929 261.7Z" fill="#FFB715"/>
<path d="M463.495 262.261C462.474 261.565 461.226 261.041 460.015 261.294C458.722 261.565 457.728 262.722 457.412 264.015C457.095 265.298 457.375 266.673 457.945 267.875C459.201 270.551 461.895 272.485 464.824 272.829C465.764 272.937 467.744 273.57 468.232 272.874C468.576 272.386 467.979 269.71 467.871 269.113C467.374 266.383 465.801 263.825 463.495 262.261Z" fill="#FFB715"/>
<path d="M479.253 271.744C480.148 270.894 480.934 269.791 480.943 268.553C480.952 267.233 480.03 266.013 478.837 265.434C477.644 264.856 476.243 264.837 474.959 265.127C472.084 265.778 469.607 268.002 468.649 270.795C468.342 271.69 467.311 273.489 467.881 274.113C468.278 274.555 471.026 274.537 471.632 274.556C474.398 274.655 477.228 273.661 479.253 271.744Z" fill="#FFB715"/>
<path d="M461.2 275.17C460.178 274.474 458.931 273.95 457.719 274.203C456.426 274.474 455.432 275.631 455.116 276.924C454.799 278.208 455.079 279.582 455.649 280.784C456.906 283.46 459.6 285.394 462.528 285.738C463.469 285.846 465.448 286.479 465.937 285.783C466.28 285.295 465.683 282.619 465.575 282.022C465.069 279.292 463.496 276.743 461.2 275.17Z" fill="#FFB715"/>
<path d="M477.815 283.152C478.71 282.303 479.497 281.2 479.506 279.961C479.515 278.641 478.593 277.421 477.4 276.842C476.206 276.264 474.805 276.246 473.521 276.535C470.647 277.186 468.17 279.41 467.211 282.203C466.904 283.098 465.874 284.897 466.443 285.521C466.841 285.964 469.589 285.946 470.195 285.964C472.97 286.063 475.79 285.069 477.815 283.152Z" fill="#FFB715"/>
<path d="M487.625 322.377C486.775 298.819 492.063 275.062 502.83 254.089" stroke="#FFB715" stroke-miterlimit="10" stroke-linecap="round" stroke-linejoin="round"/>
<path d="M495.535 270.406C494.64 266.709 495.671 262.84 496.81 259.206C499.079 251.983 501.818 244.913 504.548 237.853" stroke="#FFB715" stroke-miterlimit="10" stroke-linecap="round" stroke-linejoin="round"/>
<path d="M497.686 265.244C502.947 258.103 507.376 250.346 510.857 242.192" stroke="#FFB715" stroke-miterlimit="10" stroke-linecap="round" stroke-linejoin="round"/>
<path d="M496.963 267.305C498.816 267.378 500.389 266.004 501.673 264.675C506.518 259.658 510.523 253.827 513.479 247.508" stroke="#FFB715" stroke-miterlimit="10" stroke-linecap="round" stroke-linejoin="round"/>
<path d="M494.541 272.467C492.29 265.38 492.326 257.587 494.64 250.518" stroke="#FFB715" stroke-miterlimit="10" stroke-linecap="round" stroke-linejoin="round"/>
<path d="M496.275 269.303C499.096 268.3 501.374 266.22 503.453 264.069C506.717 260.706 509.7 257.063 512.358 253.203" stroke="#FFB715" stroke-miterlimit="10" stroke-linecap="round" stroke-linejoin="round"/>
<path d="M488.582 267.992C487.561 267.296 486.313 266.772 485.102 267.025C483.809 267.296 482.815 268.453 482.498 269.746C482.182 271.03 482.462 272.404 483.032 273.606C484.288 276.282 486.982 278.217 489.911 278.56C490.851 278.669 492.831 279.301 493.319 278.605C493.663 278.117 493.066 275.441 492.958 274.845C492.452 272.115 490.888 269.565 488.582 267.992Z" fill="#FFB715"/>
<path d="M504.104 278.66C504.999 277.81 505.786 276.707 505.795 275.468C505.804 274.149 504.882 272.928 503.689 272.35C502.495 271.771 501.094 271.753 499.81 272.042C496.936 272.693 494.459 274.917 493.5 277.71C493.193 278.605 492.163 280.404 492.732 281.028C493.13 281.471 495.878 281.453 496.484 281.471C499.25 281.57 502.079 280.576 504.104 278.66Z" fill="#FFB715"/>
<path d="M485.671 279.211C484.65 278.515 483.402 277.991 482.191 278.244C480.898 278.515 479.904 279.672 479.587 280.965C479.271 282.248 479.551 283.622 480.121 284.825C481.368 287.501 484.071 289.435 487 289.779C487.94 289.887 489.92 290.52 490.408 289.824C490.752 289.336 490.155 286.66 490.047 286.063C489.54 283.333 487.967 280.784 485.671 279.211Z" fill="#FFB715"/>
<path d="M501.42 288.703C502.315 287.853 503.101 286.75 503.11 285.512C503.119 284.192 502.197 282.972 501.004 282.393C499.811 281.815 498.41 281.796 497.126 282.086C494.251 282.737 491.774 284.961 490.816 287.754C490.509 288.649 489.478 290.448 490.048 291.072C490.445 291.514 493.193 291.496 493.799 291.514C496.574 291.614 499.395 290.62 501.42 288.703Z" fill="#FFB715"/>
<path d="M483.367 292.12C482.345 291.424 481.098 290.9 479.886 291.153C478.593 291.424 477.599 292.581 477.283 293.874C476.966 295.158 477.246 296.532 477.816 297.734C479.073 300.41 481.766 302.344 484.695 302.688C485.636 302.796 487.615 303.429 488.103 302.733C488.447 302.245 487.85 299.569 487.742 298.972C487.245 296.242 485.672 293.693 483.367 292.12Z" fill="#FFB715"/>
<path d="M499.991 300.111C500.886 299.262 501.673 298.159 501.682 296.92C501.691 295.601 500.769 294.38 499.575 293.802C498.382 293.223 496.981 293.205 495.697 293.494C492.822 294.145 490.345 296.369 489.387 299.162C489.08 300.057 488.049 301.856 488.619 302.48C489.017 302.923 491.765 302.905 492.37 302.923C495.137 303.013 497.966 302.019 499.991 300.111Z" fill="#FFB715"/>
<path d="M443.925 299.171C443.925 299.171 451.075 281.281 475.312 287.98L461.137 300.726L443.925 299.171Z" fill="#FF6B40"/>
<path d="M435.979 356.449C433.158 355.21 430.491 353.655 428.042 351.829C426.179 350.437 424.426 348.882 423.061 347.038C420.873 344.091 419.743 340.529 419.182 336.959C417.519 326.328 420.909 315.064 428.231 306.919C429.515 305.49 430.916 304.143 432.489 302.995C436.72 299.886 442.063 298.304 447.396 298.168C452.73 298.032 458.045 299.298 462.882 301.449C465.991 292.735 475.158 286.036 484.768 285.855C488.058 285.792 491.394 286.407 494.305 287.862C498.273 289.851 501.293 293.323 503.164 297.219C505.044 301.115 505.849 305.409 506.12 309.685C506.31 312.596 506.256 315.552 505.505 318.372C503.661 325.279 497.93 330.531 492.289 335.187C484.966 341.225 477.319 346.975 468.911 351.558C465.268 353.538 461.462 355.31 457.385 356.232C450.614 357.76 442.289 359.224 435.979 356.449Z" fill="#FF6B40"/>
<path opacity="0.23" d="M438.773 308.067C437.417 309.179 435.5 311.737 434.876 313.979C434.225 316.311 437.028 318.065 438.89 316.519C441.756 314.142 446.14 310.092 445.037 307.75C443.455 305.879 440.201 306.033 438.773 308.067Z" fill="white"/>
<path opacity="0.23" d="M469.102 314.331C469.879 315.904 471.932 318.354 473.966 319.475C476.09 320.641 478.44 318.318 477.356 316.148C475.692 312.813 472.745 307.624 470.214 308.157C468.044 309.269 467.448 312.469 469.102 314.331Z" fill="white"/>
<path opacity="0.23" d="M451.772 319.014C451.13 320.235 450.515 322.684 450.75 324.492C450.994 326.382 453.562 326.807 454.439 325.116C455.795 322.513 457.738 318.237 456.229 316.872C454.502 316.004 452.188 317.107 451.772 319.014Z" fill="white"/>
<path opacity="0.23" d="M485.031 295.989C483.647 296.007 481.207 296.622 479.724 297.689C478.178 298.801 479.019 301.26 480.926 301.232C483.864 301.187 488.547 300.871 489.035 298.891C488.981 296.957 486.911 295.447 485.031 295.989Z" fill="white"/>
<path d="M447.767 316.609C447.767 316.609 439.757 331.444 446.835 351.911" stroke="#7B0A32" stroke-miterlimit="10" stroke-linecap="round" stroke-linejoin="round"/>
<path d="M442.496 302.742C442.496 302.742 419.806 306.711 427.806 349.181" stroke="#7B0A32" stroke-miterlimit="10" stroke-linecap="round" stroke-linejoin="round"/>
<path d="M443.608 298.737C448.562 298.267 451.564 298.611 454.972 298.873C457.593 299.072 459.266 299.307 459.266 299.307" stroke="#7B0A32" stroke-miterlimit="10" stroke-linecap="round" stroke-linejoin="round"/>
<path d="M468.586 302.118C468.586 302.118 490.616 282.312 503.779 298.611" stroke="#7B0A32" stroke-miterlimit="10" stroke-linecap="round" stroke-linejoin="round"/>
<path d="M477.617 305.4C477.617 305.4 493.284 314.829 499.259 325.83" stroke="#7B0A32" stroke-miterlimit="10" stroke-linecap="round" stroke-linejoin="round"/>
<path d="M464.689 307.108C464.689 307.108 457.258 335.06 476.902 345.791" stroke="#7B0A32" stroke-miterlimit="10" stroke-linecap="round" stroke-linejoin="round"/>
<path d="M441.601 302.462C437.696 305.825 456.553 303.375 458.389 303.945C452.955 306.837 446.609 311.384 447.007 318.219C463.984 310.589 456.508 303.863 481.196 307.588C478.105 302.769 471.252 302.715 468.296 302.055C470.213 296.577 476.026 292.943 477.183 287.257C470.249 287.266 463.424 292.536 460.838 298.692C454.212 300.338 449.737 296.559 441.601 302.462Z" fill="#005B39"/>
<path d="M453.606 292.31C451.156 290.421 448.227 289.164 445.171 288.685C443.698 288.45 443.11 286.588 444.213 285.584C446.636 283.36 449.664 281.787 452.882 281.128C453.271 281.046 453.669 280.983 454.067 281.019C455.305 281.119 456.263 282.122 456.987 283.125C460.838 288.405 461.94 295.14 462.89 301.603C463.016 302.489 460.81 302.805 460.313 302.39C459.581 301.775 459.283 299.632 458.84 298.737C457.61 296.242 455.811 294.019 453.606 292.31Z" fill="#005B39"/>
<path d="M503.696 311.448C503.434 304.297 505.414 297.192 508.532 290.746C511.651 284.31 515.891 278.479 520.366 272.892C522.12 277.801 520.086 284.436 518.287 289.327C514.942 298.466 510.657 304.641 503.696 311.448Z" fill="#008054"/>
<path d="M519.435 277.258C513.035 286.47 507.485 296.468 504.872 307.371" stroke="#005B39" stroke-miterlimit="10" stroke-linecap="round" stroke-linejoin="round"/>
<path d="M399.312 336.959C379.776 432.448 541.99 447.337 509.618 334.256C509.609 334.256 420.321 357.968 399.312 336.959Z" fill="#7B0A32"/>
<path d="M478.105 363.22L437.452 366.917C437.452 366.917 430.464 354.523 423.205 351.359C421.433 350.582 419.68 352.525 420.584 354.243L428.919 370.153C428.919 370.153 409.708 361.195 402.35 353.999C401.021 352.697 398.969 352.354 397.414 353.366C394.838 355.039 394.648 359.531 414.608 371.537C414.608 371.537 388.998 356.865 387.389 361.086C385.771 365.308 392.93 369.231 411.851 381.001C411.851 381.001 387.154 372.694 384.152 375.921C381.151 379.148 414.608 392.771 414.608 392.771C414.608 392.771 390.851 386.543 388.076 389.074C385.31 391.614 399.846 399.922 433.547 404.081C467.248 408.239 493.555 396.46 493.555 396.46C493.555 396.46 509.528 361.367 478.105 363.22Z" fill="#FF9A5A"/>
<path opacity="0.39" d="M478.105 363.22L437.452 366.917C437.452 366.917 430.464 354.523 423.205 351.359C421.433 350.582 419.68 352.525 420.584 354.243L428.919 370.153C428.919 370.153 409.708 361.195 402.35 353.999C401.021 352.697 398.969 352.354 397.414 353.366C394.838 355.039 394.648 359.531 414.608 371.537C414.608 371.537 388.998 356.865 387.389 361.086C385.771 365.308 392.93 369.231 411.851 381.001C411.851 381.001 387.154 372.694 384.152 375.921C381.151 379.148 414.608 392.771 414.608 392.771C414.608 392.771 390.851 386.543 388.076 389.074C385.31 391.614 399.846 399.922 433.547 404.081C467.248 408.239 493.555 396.46 493.555 396.46C493.555 396.46 509.528 361.367 478.105 363.22Z" fill="#7B0A32"/>
<path d="M478.104 363.22C478.104 363.22 492.559 378.073 483.61 399.913C483.61 399.913 494.693 423.697 517.311 385.151L505.044 345.384L478.104 363.22Z" fill="white"/>
<path d="M485.916 326.282C463.072 339.842 449.141 368.002 455.686 394.227C471.235 377.539 483.448 358.618 493.482 338.188C501.185 325.514 504.846 315.706 485.916 326.282Z" fill="#C0A719"/>
<path d="M477.969 342.184C467.401 353.194 460.323 367.514 458.009 382.602" stroke="#005B39" stroke-miterlimit="10" stroke-linecap="round" stroke-linejoin="round"/>
<path d="M516.842 299.94C520.033 299.515 523.83 300.202 525.366 303.031C526.117 304.406 526.18 306.033 526.37 307.588C526.939 312.243 529.046 317.052 533.159 319.312C537.598 321.753 543.076 320.65 548.075 321.437C551.347 321.952 554.9 323.805 555.47 327.069C555.84 329.184 554.846 331.336 555.072 333.469C555.388 336.398 557.838 338.541 560.017 340.529C562.186 342.509 564.41 345.076 564.012 347.996C563.976 348.286 563.904 348.584 563.696 348.792C563.461 349.027 563.099 349.09 562.774 349.117C560.668 349.253 558.643 348.295 556.898 347.11C555.831 346.387 554.728 345.547 553.436 345.519C552.297 345.492 551.257 346.125 550.245 346.658C548.057 347.816 545.535 348.629 543.13 348.06C538.411 346.948 536.486 341.46 533.394 337.727C530.718 334.5 526.75 332.366 522.582 331.932C519.463 331.607 516.29 332.194 513.181 331.779C509.158 331.245 505.406 328.967 503.065 325.649C495.507 314.901 505.216 301.504 516.842 299.94Z" fill="#C0A719"/>
<path d="M501.193 315.434C502.595 313.355 505.279 312.505 507.793 312.451C512.71 312.352 517.33 314.72 521.461 317.378C524.282 319.195 527.003 321.175 529.597 323.308C534.207 327.105 538.411 331.363 542.985 335.196C547.569 339.02 552.613 342.455 558.308 344.227" stroke="#005B39" stroke-miterlimit="10" stroke-linecap="round" stroke-linejoin="round"/>
<path d="M506.808 312.451C508.028 317.712 512.376 322.323 515.974 326.355" stroke="#005B39" stroke-miterlimit="10" stroke-linecap="round" stroke-linejoin="round"/>
<path d="M522.003 317.984C523.115 321.889 525.709 325.206 528.548 328.108" stroke="#005B39" stroke-miterlimit="10" stroke-linecap="round" stroke-linejoin="round"/>
<path d="M537.489 330.567C538.592 334.599 540.527 338.405 543.139 341.659" stroke="#005B39" stroke-miterlimit="10" stroke-linecap="round" stroke-linejoin="round"/>
<path d="M547.451 338.857C548.183 340.611 549.223 342.238 550.498 343.639" stroke="#005B39" stroke-miterlimit="10" stroke-linecap="round" stroke-linejoin="round"/>
<path d="M544.901 336.516C548.68 336.624 552.45 337.402 555.957 338.803" stroke="#005B39" stroke-miterlimit="10" stroke-linecap="round" stroke-linejoin="round"/>
<path d="M537.516 330.088C540.734 329.609 544.052 329.754 547.225 330.513" stroke="#005B39" stroke-miterlimit="10" stroke-linecap="round" stroke-linejoin="round"/>
<path d="M522.51 317.776C525.059 317.685 527.626 318.119 530.004 319.05" stroke="#005B39" stroke-miterlimit="10" stroke-linecap="round" stroke-linejoin="round"/>
<path d="M506.808 312.451C508.2 311.411 511.572 310.11 513.28 309.839C514.998 309.567 516.743 309.576 518.469 309.585" stroke="#005B39" stroke-miterlimit="10" stroke-linecap="round" stroke-linejoin="round"/>
<path d="M535.492 349.714C528.206 348.005 521.281 344.751 515.315 340.231C512.63 338.197 510.099 335.874 508.354 332.99C506.609 330.115 505.696 326.617 506.41 323.326C508.752 324.709 511.201 325.912 513.534 327.295C516.291 328.922 519.057 330.567 521.516 332.61C523.704 334.427 525.611 336.552 527.519 338.658C530.592 342.075 532.418 346.306 535.492 349.714Z" fill="#008054"/>
<path d="M506.699 326.725C508.715 327.34 510.487 328.57 512.187 329.808C518.099 334.12 523.676 338.875 528.865 344.037" stroke="#005B39" stroke-miterlimit="10" stroke-linecap="round" stroke-linejoin="round"/>
<path d="M539.17 369.882C537.381 368.364 535.148 367.487 532.824 367.143C518.406 364.983 527.861 354.559 524.58 344.046C521.651 333.939 511.58 340.222 509.311 331.019C503.399 292.292 474.354 321.509 467.664 342.048C468.767 341.036 489.17 334.825 489.866 361.819C490.427 365.751 495.363 367.161 497.93 364.133C499.783 361.945 501.519 360.444 503.327 362.307C505.289 364.503 505.813 367.586 506.88 370.325C510.812 380.649 517.999 371.112 524.842 378.145C538.836 394.128 549.865 378.976 539.17 369.882Z" fill="#005B39"/>
<path d="M468.504 340.05C490.263 289.173 503.841 342.898 518.224 364.648C523.332 372.016 531.151 377.331 539.676 379.989" stroke="#008054" stroke-miterlimit="10" stroke-linecap="round" stroke-linejoin="round"/>
<path d="M487.424 318.49C483.293 323.055 483.437 330.007 484.613 335.711" stroke="#008054" stroke-miterlimit="10" stroke-linecap="round" stroke-linejoin="round"/>
<path d="M495.398 323.48C492.659 333.171 491.457 344.1 496.085 353.384" stroke="#008054" stroke-miterlimit="10" stroke-linecap="round" stroke-linejoin="round"/>
<path d="M504.058 337.763C503.823 345.384 503.723 354.333 506.797 361.412" stroke="#008054" stroke-miterlimit="10" stroke-linecap="round" stroke-linejoin="round"/>
<path d="M514.22 357.832C514.22 361.855 514.916 365.877 516.254 369.674" stroke="#008054" stroke-miterlimit="10" stroke-linecap="round" stroke-linejoin="round"/>
<path d="M525.339 372.287C526.749 374.963 528.503 377.458 530.537 379.7" stroke="#008054" stroke-miterlimit="10" stroke-linecap="round" stroke-linejoin="round"/>
<path d="M530.718 375.595C533.104 375.234 535.536 375.134 537.941 375.315" stroke="#008054" stroke-miterlimit="10" stroke-linecap="round" stroke-linejoin="round"/>
<path d="M515.16 358.935C518.198 360.454 521.009 362.424 523.486 364.757" stroke="#008054" stroke-miterlimit="10" stroke-linecap="round" stroke-linejoin="round"/>
<path d="M504.059 337.763C508.606 339.707 513.994 343.422 517.781 346.595" stroke="#008054" stroke-miterlimit="10" stroke-linecap="round" stroke-linejoin="round"/>
<path d="M494.584 323.209C499.158 323.335 503.091 326.635 506.282 329.627" stroke="#008054" stroke-miterlimit="10" stroke-linecap="round" stroke-linejoin="round"/>
<path d="M487.425 318.219C490.046 315.724 495.064 316.392 498.481 316.6" stroke="#008054" stroke-miterlimit="10" stroke-linecap="round" stroke-linejoin="round"/>
<path d="M434.722 345.637C436.015 345.745 438.085 345.483 440.779 345.474C437.172 337.528 435.997 331.688 431.278 324.972C424.67 315.498 407.521 313.934 403.471 326.273C403.272 334.4 396.808 337.347 389.829 339.969C378.665 343.449 371.026 372.404 387.768 352.797C393.961 345.266 399.963 351.531 406.996 352.996C417.347 352.986 423.883 334.165 434.722 345.637Z" fill="#005B39"/>
<path d="M440.327 344.389C434.352 327.177 420.738 316.935 410.26 334.319C408.95 336.497 406.897 338.125 404.466 338.848C394.015 341.912 381.052 342.672 378.72 356.214" stroke="#008054" stroke-miterlimit="10" stroke-linecap="round" stroke-linejoin="round"/>
<path d="M435.121 334.283C430.619 332.52 426.912 335.576 423.848 338.622" stroke="#008054" stroke-miterlimit="10" stroke-linecap="round" stroke-linejoin="round"/>
<path d="M428.078 326.879C423.006 327.819 419.508 332.61 417.646 337.121" stroke="#008054" stroke-miterlimit="10" stroke-linecap="round" stroke-linejoin="round"/>
<path d="M411.535 332.285C411.797 336.705 411.363 342.157 408.832 345.872" stroke="#008054" stroke-miterlimit="10" stroke-linecap="round" stroke-linejoin="round"/>
<path d="M403.363 339.39C402.16 341.759 400.777 344.046 399.231 346.206" stroke="#008054" stroke-miterlimit="10" stroke-linecap="round" stroke-linejoin="round"/>
<path d="M393.889 341.632C392.045 343.928 389.17 346.188 388.32 349.009" stroke="#008054" stroke-miterlimit="10" stroke-linecap="round" stroke-linejoin="round"/>
<path d="M402.938 339.426C401.808 338.251 400.199 337.546 398.562 337.537" stroke="#008054" stroke-miterlimit="10" stroke-linecap="round" stroke-linejoin="round"/>
<path d="M411.535 332.285C409.916 331.86 407.656 331.733 406.382 333.279" stroke="#008054" stroke-miterlimit="10" stroke-linecap="round" stroke-linejoin="round"/>
<path d="M425.195 325.622C421.841 322.151 417.475 320.994 412.656 321.835" stroke="#008054" stroke-miterlimit="10" stroke-linecap="round" stroke-linejoin="round"/>
</g>
</svg>
