<svg width="688" height="460" viewBox="0 0 688 460" fill="none" xmlns="http://www.w3.org/2000/svg">
<rect width="688" height="460" rx="40" fill="#ECFDF0"/>
<path d="M141.947 390.316H551.882C551.882 390.316 578 343.278 578 302.981C578 283.519 573.858 263.592 562.68 246.867C551.501 230.141 531.025 217.262 509.197 218.287C491.14 219.132 473.908 229.064 456.094 226.264C437.615 223.369 425.348 207.901 416.6 193.13C408.971 180.25 402.4 166.885 396.948 153.16C393.641 144.845 390.661 136.234 384.744 129.155C375.109 117.628 358.531 111.701 342.387 111.553C334.854 111.489 327.194 112.599 320.495 115.652C303.632 123.355 296.543 140.999 289.517 156.668C274.207 190.805 248.078 225.566 207.771 233.617C191.193 236.924 173.316 235.403 157.785 241.52C142 247.733 131.064 260.982 123.668 274.855C107.123 305.907 105.717 344.408 125.824 373.749C130.113 380.035 135.428 385.868 141.947 390.316Z" fill="#FFF5D9"/>
<path d="M550.466 351.308H457.51V363.595H550.466V351.308Z" fill="#FFC366"/>
<path d="M550.466 322.421H457.51V334.709H550.466V322.421Z" fill="#FFC366"/>
<path d="M473.379 390.316H451.836V311.528L462.613 299.621L473.379 311.528V390.316Z" fill="#FFDFAD"/>
<path d="M515.895 390.316H494.352V311.528L505.118 299.621L515.895 311.528V390.316Z" fill="#FFDFAD"/>
<path d="M558.401 390.316H536.868V311.528L547.635 299.621L558.401 311.528V390.316Z" fill="#FFDFAD"/>
<path d="M373.449 216.311C373.016 215.825 372.287 216.49 372.71 216.987C373.069 217.42 373.407 217.853 373.734 218.308C373.322 217.949 372.783 217.758 372.245 217.906C372.002 217.885 371.748 217.896 371.516 217.98C371.399 218.022 371.294 218.075 371.199 218.139C370.913 217.927 370.375 218.149 370.438 218.625C370.459 218.794 370.501 218.952 370.533 219.111C370.533 219.132 370.522 219.142 370.522 219.164C370.153 218.963 369.614 219.322 369.878 219.755C372.477 224.193 374.072 228.926 374.622 234.04C374.643 234.209 374.812 234.378 374.971 234.42C378.087 235.16 378.077 229.465 378.013 227.627C377.855 223.422 376.228 219.438 373.449 216.311Z" fill="#193441"/>
<path d="M365.42 218.741C365.019 218.234 364.248 218.857 364.639 219.364C364.977 219.819 365.283 220.273 365.579 220.748C365.199 220.358 364.66 220.136 364.11 220.262C363.867 220.22 363.624 220.231 363.381 220.294C363.265 220.326 363.159 220.379 363.054 220.431C362.779 220.21 362.23 220.4 362.272 220.865C362.282 221.034 362.314 221.192 362.335 221.361C362.335 221.382 362.325 221.393 362.314 221.404C361.965 221.182 361.395 221.509 361.627 221.963C363.952 226.549 365.251 231.367 365.494 236.512C365.505 236.681 365.663 236.861 365.822 236.914C368.886 237.844 369.235 232.159 369.277 230.31C369.372 226.116 367.998 222.027 365.42 218.741Z" fill="#193441"/>
<path d="M398.237 325.76C399.6 325.137 401.079 324.492 402.611 323.901C400.435 320.308 398.205 316.748 395.891 313.261C394.941 311.824 444.884 316.188 444.884 316.188C443.976 303.002 442.042 289.911 439.274 276.958L373.123 296.271L372.763 296.536C368.59 299.642 367.259 305.432 369.847 310.102C371.252 312.638 372.827 315.068 374.38 317.508C375.986 319.917 377.581 322.316 379.261 324.672C380.17 325.95 382.547 329.416 385.643 333.864C389.225 330.367 393.715 327.82 398.237 325.76Z" fill="#75AAEE"/>
<path d="M457.266 223.295C457.224 223.2 457.14 223.073 457.097 222.946L457.023 222.756L456.96 222.703V222.682C456.96 222.724 456.886 222.238 456.95 222.46L457.013 222.492L457.108 222.756L457.298 223.284L457.351 223.432C457.33 223.39 457.309 223.358 457.266 223.295Z" fill="#FFC0A9"/>
<path d="M423.552 360.922C420.287 352.449 401.745 322.432 401.745 322.432C401.745 322.432 386.974 328.729 384.893 332.765C384.893 332.765 412.268 366.1 413.652 371.129C413.747 374.267 412.976 377.605 410.081 379.148C409.574 379.222 409.067 379.264 408.549 379.275L406.858 379.307C405.717 379.349 404.735 380.226 404.619 381.43C404.492 382.804 405.654 383.945 407.038 383.955L413.906 383.977L424.714 375.344C427.335 373.696 428.127 370.241 426.479 367.621L423.552 360.922Z" fill="#193441"/>
<path d="M447.419 355.439C448.993 351.72 450.272 347.853 450.05 344.239C449.976 342.982 450.103 341.725 450.451 340.584C446.595 339.284 442.717 338.048 438.808 336.896C437.149 336.41 435.491 335.945 433.821 335.502L473.685 303.403C476.063 301.491 477.827 298.881 478.535 295.912C478.535 295.891 478.545 295.87 478.545 295.859C479.866 290.27 478.788 284.67 475.978 280.148C473.178 275.637 462.126 261.553 462.126 261.553L428.887 276.514C428.887 276.514 438.544 284.522 438.111 286.34L410.45 338.534L410.344 338.967C409.151 344.028 411.845 349.321 416.842 351.234C419.558 352.269 422.315 353.125 425.073 353.991C427.852 354.805 430.62 355.618 433.42 356.337C435.047 356.76 439.59 358.017 445.391 359.591C446.003 358.186 446.69 356.802 447.419 355.439Z" fill="#91BAEE"/>
<path d="M486.766 372.344C486.629 375.091 485.72 377.806 483.195 379.138C482.688 379.212 482.181 379.254 481.663 379.264L479.972 379.296C479.032 379.328 478.218 379.919 477.88 380.796C477.299 382.318 478.419 383.945 480.046 383.945L487.02 383.966L497.828 375.334C500.448 373.686 501.241 370.231 499.593 367.61L493.613 360.278C480.532 344.958 448.814 340.024 448.814 340.024C448.814 340.024 446.194 344.049 445.391 349.469C444.588 354.879 445.391 359.57 445.391 359.57C445.391 359.57 461.313 363.384 471.192 366.332C481.061 369.29 485.857 368.001 486.766 372.344Z" fill="#193441"/>
<path d="M403.71 246.539C403.71 246.539 403.129 247.87 402.125 250.195C401.089 252.562 399.705 256.006 398.11 260.126C396.557 264.236 394.824 269.097 393.577 274.084C392.975 276.545 392.531 279.113 392.478 281.099C392.447 282.05 392.584 282.853 392.552 282.906C392.531 282.938 392.394 282.769 392.119 282.578C392.056 282.526 391.971 282.494 391.908 282.452C391.876 282.43 391.834 282.409 391.802 282.399L391.739 282.378H391.728C391.771 282.399 391.295 282.166 391.506 282.272L391.57 282.304L392.531 282.832C392.69 282.906 392.817 282.98 393.007 283.075L393.778 283.403C394.338 283.614 394.919 283.804 395.542 284.005C396.789 284.396 398.121 284.755 399.515 285.072C402.294 285.748 405.199 286.319 408.073 286.91C413.821 288.073 419.368 289.361 424.08 290.957C425.253 291.348 426.383 291.77 427.44 292.225C428.497 292.679 429.5 293.112 430.504 293.429C431.497 293.767 432.459 294.074 433.325 294.422C434.191 294.803 434.963 295.194 435.607 295.669C436.917 296.567 437.731 297.582 438.175 298.342C438.629 299.103 438.766 299.578 438.766 299.578C439.274 301.417 438.196 303.329 436.357 303.836C435.914 303.963 435.459 303.995 435.026 303.942L434.329 303.858C434.329 303.858 433.906 303.805 433.315 303.562C433.029 303.435 432.659 303.287 432.269 303.097C431.899 302.885 431.455 302.642 431.001 302.326C430.06 301.744 429.067 300.709 427.62 299.821C426.901 299.378 426.056 299.05 425.126 298.818C424.207 298.564 423.203 298.332 422.147 298.131C420.044 297.719 417.677 297.465 415.142 297.307C412.595 297.169 409.869 297.138 406.996 297.117C404.122 297.085 401.079 297.096 397.846 296.937C396.229 296.831 394.549 296.673 392.795 296.419C391.918 296.293 391.01 296.092 390.091 295.88L388.664 295.5C388.125 295.331 387.534 295.12 386.974 294.919L385.833 294.475L385.769 294.444C385.959 294.539 385.473 294.296 385.484 294.306L385.41 294.264L385.104 294.095L384.501 293.746C384.11 293.503 383.73 293.218 383.36 292.933C381.892 291.749 380.856 290.302 380.159 288.96C378.785 286.234 378.468 283.952 378.247 281.881C377.898 277.792 378.331 274.401 378.807 271.199C379.303 268.008 379.979 265.082 380.698 262.345C381.406 259.609 382.166 257.094 382.927 254.791C384.406 250.184 385.907 246.476 386.942 243.866C387.46 242.556 387.914 241.552 388.221 240.844C388.548 240.115 388.717 239.735 388.717 239.735C390.577 235.583 395.447 233.723 399.6 235.572C403.72 237.41 405.59 242.228 403.794 246.37L403.71 246.539Z" fill="#FFC0A9"/>
<path d="M434.16 288.411C434.16 288.411 423.891 277.264 415.977 268.262C410.071 261.542 406.426 265.589 401.175 261.289C396.948 257.823 396.695 252.445 396.494 252.097L384.153 249.603C384.153 249.603 385.738 238.911 392.585 230.934L398.227 222.661C403.89 217.642 406.045 215.698 411.973 213.987C415.142 213.067 423.183 211.398 423.183 211.398C423.183 211.398 427.314 218.9 430.716 224.573C435.84 233.11 442.042 241.69 447.938 248.494C451.604 252.72 462.677 259.894 466.734 262.937C462.201 273.122 449.216 283.022 434.16 288.411Z" fill="#FFDFAD"/>
<path d="M471.066 267.216C470.992 266.92 470.907 266.55 470.791 266.138C470.654 265.737 470.485 265.293 470.263 264.797C469.84 263.803 469.058 262.673 468.403 261.162C467.717 259.662 467.674 257.739 467.569 255.668C467.484 253.586 467.611 251.283 467.843 248.832C468.108 246.37 468.488 243.76 468.932 241.013C469.365 238.256 469.861 235.371 470.263 232.276C470.474 230.733 470.601 229.127 470.686 227.447C470.77 225.767 470.76 224.003 470.538 222.069C470.517 221.847 470.485 221.573 470.432 221.277L470.284 220.41L470.136 219.681L470.02 219.132L469.957 218.857L469.946 218.826C470.009 219.026 469.861 218.519 469.861 218.54L469.809 218.382L469.703 218.075C469.555 217.663 469.407 217.251 469.206 216.86C468.837 216.068 468.351 215.297 467.833 214.642C466.776 213.289 465.551 212.307 464.389 211.578C463.226 210.849 462.106 210.341 461.05 209.94C456.855 208.45 453.443 208.271 450.188 208.123C446.966 208.028 443.997 208.175 441.229 208.429C438.46 208.672 435.893 209 433.558 209.369C429.3 210.014 421.302 211.778 418.682 212.381C417.076 216.036 417.593 219.016 418.925 221.34C421.355 225.577 426.458 227.521 431.213 226.401C432.914 226 434.805 225.566 436.432 225.207C438.513 224.774 440.764 224.33 443.109 223.95C445.455 223.591 447.917 223.253 450.315 223.105C451.509 223.031 452.692 223.01 453.791 223.052C454.879 223.084 455.883 223.2 456.591 223.348C457.098 223.443 457.352 223.57 457.362 223.496L457.373 223.538L457.405 223.654L457.479 223.887C457.51 223.95 457.542 224.045 457.574 224.193C458.091 226.274 458.334 229.053 458.493 231.842C458.673 234.653 458.736 237.558 458.842 240.411C459.042 246.138 459.423 251.674 460.215 256.45C460.574 258.859 461.293 260.993 461.567 263.022C461.715 264.036 461.884 265.008 462.085 265.895C462.328 266.783 462.582 267.586 462.952 268.273C463.279 268.97 463.659 269.551 464.05 270.027C464.431 270.502 464.79 270.882 465.128 271.147C465.783 271.706 466.227 271.907 466.227 271.907C466.618 272.087 467.072 272.203 467.537 272.224C469.449 272.309 471.066 270.83 471.15 268.928L471.182 268.241C471.182 268.241 471.203 267.829 471.066 267.216Z" fill="#FFC0A9"/>
<path d="M384.184 190.605C375.298 182.543 364.215 183.367 357.96 189.273C351.705 195.18 350.184 206.231 357.654 215.635C362.028 221.139 368.251 225.693 372.002 228.165C374.231 229.634 376.725 230.543 379.229 230.765C384.977 231.282 390.999 230.374 393.883 227.648C396.778 224.922 398.046 218.942 397.898 213.152C397.835 210.627 397.085 208.08 395.764 205.756C393.535 201.857 389.393 195.328 384.184 190.605Z" fill="#FFC0A9"/>
<path d="M383.836 204.171C384.364 204.752 385.262 204.794 385.843 204.266C386.424 203.738 386.467 202.84 385.938 202.259C385.41 201.678 384.512 201.635 383.931 202.164C383.35 202.692 383.308 203.59 383.836 204.171Z" fill="#193441"/>
<path d="M371.601 215.349C372.129 215.931 372.087 216.829 371.505 217.357C370.924 217.885 370.026 217.843 369.498 217.262C368.97 216.681 369.012 215.783 369.593 215.254C370.164 214.726 371.072 214.768 371.601 215.349Z" fill="#193441"/>
<path d="M388.537 214.684C389.065 214.198 389.964 214.473 390.059 215.191C390.344 217.272 389.636 219.46 387.967 220.992C386.329 222.492 384.142 223.01 382.113 222.576C381.363 222.418 381.078 221.499 381.648 220.981L388.537 214.684Z" fill="white"/>
<path d="M386.582 209.739C387.448 210.69 389.139 210.553 390.354 209.433C391.579 208.313 391.865 206.643 390.998 205.703C390.132 204.763 388.441 204.9 387.226 206.009C386.011 207.129 385.715 208.799 386.582 209.739Z" fill="#FFAF8A"/>
<path d="M376.894 218.593C377.76 219.544 377.464 221.213 376.249 222.323C375.024 223.443 373.333 223.58 372.477 222.629C371.611 221.678 371.907 220.009 373.122 218.899C374.347 217.78 376.038 217.642 376.894 218.593Z" fill="#FFAF8A"/>
<path d="M387.079 227.827L390.862 233.131C390.862 233.131 397.529 232.719 399.916 229.888C402.304 227.046 400.561 220.59 400.561 220.59L395.838 217.315L387.079 227.827Z" fill="#FFC0A9"/>
<path d="M368.695 179.722C366.455 177.356 362.546 176.457 359.82 178.243C358.098 179.374 357.094 181.307 355.784 182.892C353.512 185.618 350.279 187.319 347.374 189.358C344.468 191.397 341.668 194.102 341.087 197.599C340.474 201.287 342.461 204.879 344.711 207.858C346.962 210.838 349.614 213.67 350.681 217.251C351.558 220.167 351.304 223.379 352.456 226.2C353.66 229.148 356.428 231.399 359.566 231.969C361.87 232.392 364.606 231.716 365.705 229.655C366.593 227.986 366.17 225.926 365.388 224.203C364.606 222.481 363.497 220.907 362.958 219.1C361.532 214.261 364.331 209.264 367.005 204.985C371.601 197.61 371.273 190.879 371.432 188.798C371.685 185.554 370.935 182.089 368.695 179.722Z" fill="#193441"/>
<path d="M391.243 198.709C391.887 194.208 392.437 188.227 389.405 184.836C387.704 182.934 385.189 181.983 382.717 181.328C378.279 180.145 359.726 178.243 368.284 187.329C374.38 193.806 385.242 191.968 391.243 198.709Z" fill="#193441"/>
<path d="M350.343 197.705C357.508 197.705 363.317 191.896 363.317 184.73C363.317 177.565 357.508 171.756 350.343 171.756C343.177 171.756 337.368 177.565 337.368 184.73C337.368 191.896 343.177 197.705 350.343 197.705Z" fill="#193441"/>
<path d="M330.099 344.662C333.206 342.084 333.237 336.664 330.173 334.043C328.61 332.702 326.444 332.057 325.229 330.388C322.122 326.088 327.669 319.051 324.14 315.089C322.513 313.261 319.576 313.187 317.368 314.233C315.16 315.279 313.522 317.212 311.948 319.083L305.703 324.946C302.639 329.902 301.762 335.966 302.196 341.777C302.629 347.589 304.277 353.231 305.967 358.809C306.908 361.905 307.88 365.064 309.75 367.716C311.61 370.368 314.536 372.481 317.769 372.544C322.45 372.64 326.179 368.614 328.345 364.472C329.856 361.577 330.945 358.07 329.571 355.111C328.43 352.66 325.662 350.399 326.634 347.874C327.204 346.373 328.874 345.676 330.099 344.662Z" fill="#93CB89"/>
<path d="M319.597 341.735C318.403 340.943 316.945 340.531 315.973 339.474C314.726 338.111 314.642 336.083 314.663 334.234C314.705 331.36 314.853 328.496 315.117 325.633C315.402 322.421 315.793 319.019 314.409 316.103C313.015 313.187 309.031 311.274 306.464 313.229C303.548 315.437 304.636 320.445 302.069 323.045C300.991 324.143 299.438 324.608 298.107 325.39C294.81 327.324 292.951 331.423 293.669 335.174C294.546 339.781 298.857 344.081 297.145 348.455C296.617 349.797 295.571 350.885 294.979 352.206C291.799 359.327 305.893 379.549 313.522 371.002C318.308 365.645 327.976 347.324 319.597 341.735Z" fill="#5DB18C"/>
<path d="M391.391 331.635C392.088 329.986 392.099 327.852 390.778 326.648C389.426 325.433 387.196 325.612 385.907 324.334C383.689 322.136 386.182 318.364 385.601 315.29C385.115 312.68 381.924 310.958 379.473 311.993C378.638 312.342 377.93 312.944 377.117 313.335C371.855 315.871 364.85 309.257 360.222 312.817C358.342 314.265 357.824 316.832 357.433 319.167C357.021 321.639 356.609 324.112 356.197 326.584C356.028 327.588 355.859 328.634 356.091 329.627C356.556 331.635 358.458 332.902 360.053 334.191C363.836 337.245 366.657 341.482 367.999 346.152L374.232 371.52C375.997 364.515 387.778 364.483 389.891 357.584C391.19 353.357 388.01 349.173 387.144 344.831C386.552 341.904 387.08 338.766 388.57 336.178C389.468 334.635 390.694 333.283 391.391 331.635Z" fill="#93CB89"/>
<path d="M356.144 355.735C355.309 353.136 358.162 350.6 357.835 347.895C357.581 345.782 355.542 344.429 354.147 342.823C350.671 338.809 351.453 331.867 355.743 328.729C358.088 327.017 361.49 325.992 362.135 323.161C362.325 322.295 362.219 321.386 362.483 320.541C363.138 318.501 365.621 317.825 367.735 317.455C369.457 317.149 371.485 316.938 372.7 318.195C373.366 318.882 373.62 319.854 373.746 320.794C374.454 325.919 372.204 331.011 372.235 336.188C372.246 337.16 372.352 338.196 372.954 338.967C373.662 339.855 374.845 340.161 375.891 340.605C379.642 342.232 381.998 346.585 381.301 350.621C380.973 352.502 380.075 354.234 379.515 356.052C378.152 360.468 379.082 380.247 369.478 373.823C365.864 371.403 366.308 367.367 364.723 363.86C362.98 360.003 357.296 359.306 356.144 355.735Z" fill="#5DB18C"/>
<path d="M408.666 329.437C407.239 330.557 405.253 331.201 404.577 332.892C403.066 336.643 409.701 340.024 408.328 343.827C407.863 345.116 406.595 345.919 405.866 347.082C404.64 349.057 405.232 351.646 406.162 353.78C408.349 358.852 412.184 363.183 416.96 365.962C417.773 366.438 418.64 366.892 419.221 367.632C421.26 370.231 419.052 375.197 421.978 376.739C423.341 377.458 425.127 376.76 426.078 375.545C427.029 374.33 427.335 372.735 427.525 371.203C428.381 364.377 427.472 357.531 427.261 350.695C427.05 344.123 428.202 337.942 429.1 331.476C430.082 324.376 428.783 312.035 417.9 314.233C411.36 315.554 413.315 325.792 408.666 329.437Z" fill="#93CB89"/>
<path d="M439.285 360.859C439.159 357.784 437.32 354.963 437.236 351.889C437.151 348.804 438.842 345.983 439.645 343.003C440.448 340.024 439.898 336.104 437.035 334.973C435.926 334.54 434.594 334.582 433.675 333.822C432.597 332.924 432.566 331.307 432.619 329.902C432.798 325.38 432.978 320.858 433.157 316.325C433.179 315.86 433.189 315.374 432.946 314.973C432.724 314.613 432.323 314.402 431.932 314.244C426.818 312.162 420.944 317.096 420.31 322.58C419.834 326.637 421.187 331.423 418.366 334.382C417.362 335.428 415.967 336.03 414.921 337.044C411.857 339.971 412.734 345.169 414.932 348.783C417.129 352.396 420.405 355.386 421.958 359.327C422.877 361.662 423.088 364.166 422.951 366.649C422.845 368.657 421.039 372.661 421.62 374.468C423.289 379.592 429.533 374.911 431.985 372.735C435.587 369.533 439.476 365.666 439.285 360.859Z" fill="#5DB18C"/>
<path d="M477.734 327.482C477.163 328.666 475.874 329.278 474.786 330.029C471.986 331.952 470.211 335.28 470.169 338.682C470.158 339.569 470.285 340.51 470.855 341.186C471.986 342.507 474.458 342.348 475.145 343.943C475.642 345.095 474.807 346.395 473.856 347.208C472.894 348.022 471.722 348.666 471.172 349.797C470.137 351.91 471.88 354.382 473.877 355.629C475.874 356.876 478.283 357.615 479.752 359.454C481.516 361.662 481.4 364.747 481.865 367.536C482.319 370.315 484.105 373.464 486.926 373.39C490.317 373.295 491.585 368.931 491.765 365.55C492.525 350.832 493.318 333.779 490.148 319.252C489.377 315.712 488.088 310.556 483.566 310.926C475.113 311.602 479.91 322.971 477.734 327.482Z" fill="#93CB89"/>
<path d="M486.08 349.828C484.95 352.068 483.597 355.027 485.383 356.77C486.08 357.457 487.105 357.71 487.866 358.323C491.638 361.345 486.26 369.047 490.222 371.805C492.694 373.527 496.054 371.012 497.227 368.244C500.249 361.091 496.677 351.656 501.738 345.771C503.049 344.25 504.824 343.161 506.155 341.661C507.486 340.161 508.342 337.889 507.359 336.125C506.113 333.895 502.636 333.61 501.601 331.275C500.365 328.486 503.154 325.242 502.784 322.273C502.425 319.442 500.301 316.642 497.84 315.268C493.709 312.965 488.669 314.539 485.742 318.079C481.843 322.802 483.956 326.204 486.799 330.525C490.518 336.178 489.007 344.017 486.08 349.828Z" fill="#5DB18C"/>
<path d="M521.633 388.879C515.516 375.968 502.985 367.98 488.193 367.98V368.001C476.571 368.001 466.058 373.263 459.138 381.937C452.217 373.263 441.704 368.023 430.082 368.023C419.516 368.023 408.296 373.041 401.375 381.716C394.455 373.041 383.974 367.558 372.573 367.558H372.616C361.215 367.558 350.671 373.041 343.74 381.716C336.819 373.041 326.254 367.906 314.854 367.906C300.569 367.906 287.563 375.915 281.445 388.816L280.906 389.735H338.69H348.822H396.473H406.605H454.256H464.389H522.172L521.633 388.879Z" fill="#B56B1F"/>
<path opacity="0.6" d="M199.275 94.3731C199.275 94.3309 199.264 94.2992 199.264 94.2569C199.021 93.0947 198.503 92.0698 197.711 91.1823C197.257 90.8019 196.813 90.4216 196.359 90.0412C195.376 89.4178 194.309 89.0798 193.147 89.0164C192.27 88.9424 191.446 89.0692 190.653 89.4178C189.797 89.6397 189.037 90.0623 188.382 90.6963C188.001 91.0133 187.684 91.3725 187.42 91.7528C187.156 90.9287 186.744 90.1786 186.152 89.5235C185.74 89.1748 185.318 88.8156 184.906 88.4669C183.997 87.8964 183.014 87.5794 181.947 87.516C181.144 87.4421 180.373 87.5689 179.644 87.8964C179.126 88.0337 178.651 88.2556 178.207 88.5515C178.186 88.2451 178.165 87.9387 178.133 87.6323C177.901 86.5334 177.415 85.572 176.664 84.7267C176.242 84.3675 175.819 84.0083 175.396 83.649C174.467 83.0679 173.463 82.7404 172.375 82.677C171.551 82.603 170.769 82.7298 170.029 83.0574C169.216 83.2687 168.508 83.6702 167.895 84.2618C167.24 84.8112 166.764 85.4769 166.469 86.2587C166.067 86.9561 165.856 87.7273 165.845 88.5515C165.866 88.8262 165.887 89.0903 165.909 89.365C165.433 89.2065 164.937 89.1114 164.419 89.0797C163.679 89.0164 162.971 89.1326 162.306 89.4284C161.577 89.6186 160.932 89.9778 160.383 90.5167C159.791 91.0133 159.358 91.6155 159.104 92.3234C158.988 92.5241 158.904 92.7249 158.819 92.9362C158.185 92.6509 157.519 92.4819 156.801 92.4396C156.061 92.3762 155.354 92.4924 154.688 92.7883C153.959 92.9785 153.314 93.3377 152.765 93.8765C152.575 94.035 152.416 94.2041 152.258 94.3837H199.275V94.3731Z" fill="#D3E3F8"/>
<path d="M450.472 67.0188C450.303 66.7969 450.123 66.575 449.933 66.3637C449.236 65.772 448.538 65.1803 447.83 64.5781C446.309 63.6166 444.64 63.0778 442.843 62.9827C441.48 62.8559 440.191 63.0672 438.966 63.6166C437.782 63.923 436.726 64.483 435.796 65.2966C435.786 65.1804 435.775 65.0641 435.764 64.9479C435.479 63.5744 434.866 62.3593 433.926 61.3133C433.398 60.859 432.859 60.4153 432.331 59.9609C431.168 59.2319 429.911 58.8199 428.538 58.7459C427.502 58.6508 426.52 58.8093 425.6 59.2319C425.22 59.327 424.871 59.4644 424.523 59.6334C424.026 55.2487 420.275 51.1598 415.669 51.1598C410.587 51.1598 406.054 54.8049 405.779 60.0666C405.726 61.0598 405.864 62.0635 406.138 63.025C405.959 63.0038 405.79 62.9721 405.61 62.9616C404.606 62.877 403.656 63.025 402.747 63.4265C401.754 63.68 400.887 64.1661 400.137 64.8951C399.419 65.4973 398.89 66.2052 398.531 67.0399H450.472V67.0188Z" fill="#D3E3F8"/>
<path d="M513.855 110.623H540.608C540.301 109.767 539.847 108.985 539.234 108.277C538.727 107.834 538.22 107.379 537.702 106.936C536.582 106.207 535.367 105.784 534.036 105.689C533.032 105.583 532.071 105.721 531.162 106.112C531.003 106.143 530.866 106.196 530.718 106.249C530.57 103.217 528.045 100.269 524.875 100.216C521.484 100.152 518.409 102.54 518.166 106.059C518.113 106.872 518.23 107.696 518.504 108.478C518.494 108.478 518.494 108.478 518.483 108.478C516.402 108.415 514.849 109.323 513.855 110.623Z" fill="#D3E3F8"/>
<path opacity="0.6" d="M358.225 40.404H396.303C395.954 39.601 395.49 38.8509 394.887 38.1747C394.317 37.6887 393.757 37.2132 393.186 36.7272C391.95 35.9453 390.598 35.5121 389.14 35.4276C388.041 35.3325 386.984 35.5016 386.002 35.9453C385.484 36.0721 384.998 36.2729 384.544 36.5159C383.572 34.7409 381.754 33.473 379.049 33.473C377.919 33.473 376.926 33.6949 376.07 34.0858C376.397 31.1063 374.728 28 370.872 28C366.91 28 364.892 31.3282 365.039 34.3922C361.077 34.4767 358.763 37.3189 358.225 40.404Z" fill="#D3E3F8"/>
<path opacity="0.6" d="M524.42 135.875C524.082 134.586 523.47 133.424 522.571 132.409C522.001 131.923 521.43 131.448 520.87 130.962C519.634 130.18 518.282 129.747 516.813 129.662C515.704 129.567 514.658 129.736 513.665 130.18C513.01 130.349 512.418 130.613 511.858 130.972C511.826 130.613 511.805 130.254 511.773 129.895C511.53 128.743 511.013 127.718 510.22 126.841C509.777 126.461 509.322 126.081 508.878 125.7C507.906 125.087 506.839 124.739 505.688 124.675C504.821 124.601 503.997 124.728 503.215 125.077C502.359 125.299 501.609 125.721 500.965 126.345C500.267 126.926 499.771 127.623 499.465 128.458C499.253 128.817 499.095 129.197 498.989 129.588C498.006 128.986 496.939 128.648 495.777 128.585C494.868 128.5 494.013 128.648 493.21 129.007C492.322 129.229 491.54 129.673 490.864 130.328C490.146 130.93 489.628 131.659 489.311 132.526C489.195 132.726 489.1 132.927 489.015 133.128C488.455 132.959 487.874 132.853 487.272 132.811C486.331 132.726 485.433 132.874 484.588 133.255C483.658 133.487 482.845 133.952 482.137 134.639C481.693 135.009 481.334 135.431 481.038 135.896H524.42V135.875Z" fill="#D3E3F8"/>
<path d="M233.635 354.773H135.882V375.788H233.635V354.773Z" fill="#FFC366"/>
<path opacity="0.4" d="M160.869 354.773H135.882V375.788H160.869V354.773Z" fill="#E89A49"/>
<path d="M236.804 368.244H132.712V389.259H236.804V368.244Z" fill="#FFE79F"/>
<path opacity="0.4" d="M160.869 368.244H132.712V389.259H160.869V368.244Z" fill="#FFC366"/>
<path d="M236.804 340.045H132.712V363.173H236.804V340.045Z" fill="#FFE79F"/>
<path opacity="0.4" d="M160.869 340.045H132.712V363.173H160.869V340.045Z" fill="#FFC366"/>
<path d="M152.111 354.498H140.753C139.073 354.498 137.71 353.135 137.71 351.455C137.71 349.776 139.073 348.413 140.753 348.413H152.111C153.791 348.413 155.154 349.776 155.154 351.455C155.143 353.135 153.791 354.498 152.111 354.498Z" fill="#FFC366"/>
<path opacity="0.4" d="M152.111 354.498H140.753C139.073 354.498 137.71 353.135 137.71 351.455C137.71 349.776 139.073 348.413 140.753 348.413H152.111C153.791 348.413 155.154 349.776 155.154 351.455C155.143 353.135 153.791 354.498 152.111 354.498Z" fill="#E89A49"/>
<path d="M254.133 139.129C254.133 139.129 253.425 140.598 252.178 143.154C252.02 143.471 251.851 143.81 251.682 144.158C251.544 144.475 251.396 144.803 251.238 145.151C250.921 145.838 250.583 146.588 250.213 147.381C249.833 148.152 249.463 149.05 249.072 150.012C248.67 150.962 248.237 151.956 247.793 152.991C246.99 155.104 246.061 157.376 245.205 159.838C244.75 161.053 244.338 162.331 243.916 163.631C243.483 164.93 243.06 166.261 242.648 167.635C241.803 170.361 241.095 173.235 240.345 176.151C239.647 179.078 239.013 182.078 238.464 185.121C238.179 186.643 237.904 188.164 237.65 189.717C237.502 190.531 237.365 191.344 237.217 192.147L237.164 192.464L237.154 192.538C237.143 192.676 237.207 191.46 237.175 191.989V192.031L237.164 192.179L236.942 192.485L236.731 192.612V192.528C236.731 192.411 236.9 192.306 236.858 192.2C236.847 192.221 236.953 192.401 236.953 192.485C236.964 193.447 237.228 194.947 237.481 196.331C237.735 197.747 238.052 199.216 238.358 200.663C238.982 203.558 239.69 206.4 240.408 209.073C241.137 211.746 241.877 214.282 242.616 216.596C242.997 217.748 243.356 218.857 243.694 219.914C244.021 220.97 244.402 221.953 244.909 222.809C245.955 224.51 247.064 225.894 247.582 227.214C248.734 229.792 248.237 231.768 248.237 231.768L248.216 231.842C247.55 234.505 244.846 236.111 242.194 235.445C241.782 235.339 241.38 235.181 241.031 234.991C241.031 234.991 239.204 233.998 238.084 231.346C237.46 230.057 237.196 228.26 236.689 226.316C236.414 225.344 235.97 224.383 235.432 223.39C234.914 222.386 234.375 221.34 233.805 220.241C232.674 218.044 231.417 215.677 230.085 213.141C228.754 210.616 227.338 207.943 225.912 205.08C225.204 203.643 224.486 202.174 223.809 200.6C223.133 198.994 222.446 197.419 221.865 195.243C221.791 194.937 221.728 194.725 221.654 194.345C221.57 193.838 221.506 193.331 221.453 192.813L221.379 191.946L221.369 191.799V191.756C221.337 192.263 221.4 191.017 221.4 191.133V191.059L221.39 190.774C221.379 189.971 221.358 189.168 221.348 188.365C221.358 186.685 221.4 184.963 221.453 183.24C221.601 179.796 221.929 176.352 222.299 172.971C222.7 169.59 223.228 166.261 223.862 163.071C224.169 161.475 224.475 159.89 224.855 158.369C225.215 156.837 225.563 155.347 225.975 153.9C226.715 150.994 227.602 148.3 228.416 145.796C228.86 144.56 229.282 143.376 229.694 142.256C230.107 141.136 230.508 140.069 230.952 139.044C231.385 138.02 231.786 137.069 232.156 136.181C232.346 135.737 232.526 135.315 232.706 134.913C232.875 134.554 233.033 134.216 233.192 133.888C234.438 131.321 235.146 129.863 235.146 129.863C237.693 124.612 244.021 122.425 249.262 124.982C254.503 127.549 256.69 133.878 254.133 139.129Z" fill="#B56B1F"/>
<path d="M353.417 92.017C353.311 88.8262 353.142 85.7727 353.016 82.8883C352.878 80.0039 352.752 77.2885 352.635 74.7739C352.582 73.5166 352.477 72.3227 352.519 71.1816C352.561 70.0405 352.72 68.9628 352.889 67.9485C353.259 65.9199 353.428 64.1449 353.322 62.6763C353.238 61.2182 352.931 60.0666 352.646 59.2847C352.361 58.5029 352.086 58.0802 352.086 58.0802C351.758 57.5837 351.304 57.1188 350.776 56.7595C348.62 55.3226 345.704 55.9037 344.267 58.0485L344.183 58.1753C344.183 58.1753 343.908 58.5768 343.644 59.3481C343.369 60.1194 343.073 61.2499 342.999 62.6868C342.894 64.1238 343.063 65.8671 343.401 67.8851C343.559 68.8889 343.707 69.956 343.718 71.0865C343.739 72.217 343.591 73.3898 343.496 74.626C343.105 79.5496 342.471 85.2973 341.51 91.3302C341.013 94.3414 340.453 97.4371 339.777 100.438C339.439 101.928 339.08 103.407 338.668 104.727C338.572 105.034 338.467 105.34 338.372 105.615L338.023 105.805L336.068 106.83C334.758 107.506 333.406 108.13 332.064 108.774C329.38 110.042 326.612 111.141 323.918 112.155C321.234 113.212 318.551 114.078 316.015 114.923C314.736 115.325 313.49 115.716 312.285 116.096C312.011 116.181 311.746 116.254 311.472 116.339C311.662 123.418 312.053 130.486 312.56 137.555C313.416 137.248 314.303 136.931 315.222 136.593C317.684 135.695 320.326 134.607 323.104 133.413C325.873 132.177 328.768 130.814 331.726 129.25C334.674 127.686 337.674 125.933 340.675 123.978C342.175 123.006 343.644 121.939 345.113 120.829C345.842 120.269 346.571 119.709 347.279 119.097L348.325 118.188L348.451 118.072L348.515 118.019L348.546 117.987C348.05 118.389 349.265 117.417 349.149 117.501L349.455 117.184C349.92 116.73 350.353 116.223 350.723 115.695C350.924 115.399 351.072 115.145 351.23 114.86C351.779 113.856 352.065 113.074 352.276 112.409C352.392 112.06 352.477 111.743 352.551 111.447C352.635 111.141 352.699 110.855 352.752 110.57C352.984 109.45 353.111 108.447 353.227 107.485C353.428 105.562 353.523 103.777 353.555 102.033C353.628 98.5254 353.533 95.2184 353.417 92.017ZM337.896 106.777C337.854 106.883 337.801 106.957 337.769 106.999C337.696 107.115 337.643 107.094 337.78 106.809C337.833 106.703 337.875 106.629 337.96 106.502C338.012 106.428 338.065 106.365 338.118 106.291C338.097 106.344 338.065 106.418 338.044 106.471C337.991 106.587 337.939 106.693 337.896 106.777Z" fill="#B56B1F"/>
<path d="M340.242 92.1226C339.64 95.2712 338.964 98.5043 338.15 101.642C343.539 103.893 349.244 105.435 355.098 106.65C355.172 105.615 355.214 104.601 355.235 103.597C355.32 99.8567 355.214 96.2961 355.055 92.8728C354.918 89.4495 354.707 86.1742 354.559 83.0679C354.39 79.9722 354.231 77.0561 354.083 74.3513C354.02 73.0095 353.883 71.7205 353.935 70.4948C353.988 69.2692 354.189 68.107 354.4 67.0188C354.855 64.8422 355.066 62.9299 354.939 61.3662C354.833 59.7919 354.453 58.5663 354.094 57.721C353.745 56.8863 353.397 56.4215 353.397 56.4215C352.985 55.8826 352.425 55.386 351.769 55.0057C349.086 53.4631 345.462 54.0865 343.666 56.3898L343.56 56.5165C343.56 56.5165 343.222 56.9497 342.884 57.7739C342.546 58.598 342.176 59.813 342.081 61.3556C341.954 62.8982 342.165 64.7789 342.588 66.9342C342.789 68.0119 342.968 69.1636 342.979 70.3681C343 71.5725 342.82 72.8404 342.704 74.1717C342.229 79.4756 341.447 85.6354 340.242 92.1226Z" fill="#91BAEE"/>
<path d="M312.775 78.4256C312.804 64.4794 295.051 53.1365 273.122 53.0905C251.193 53.0445 233.393 64.3128 233.364 78.2589C233.334 92.2051 251.087 103.548 273.016 103.594C294.945 103.64 312.745 92.3718 312.775 78.4256Z" fill="#FFDFAD"/>
<path d="M293.785 65.8565C293.785 65.8565 291.535 46.849 272.781 47.5357C254.037 48.2225 252.474 65.9727 252.474 65.9727L293.785 65.8565Z" fill="#E89C63"/>
<path d="M250.794 119.952C264.455 119.54 263.229 107.929 263.229 107.929L272.369 107.644L281.508 107.929C281.508 107.929 280.272 119.54 293.944 119.952C298.381 120.09 307.299 134.512 307.299 134.512H244.645C244.634 134.512 248.744 120.016 250.794 119.952Z" fill="#B56B1F"/>
<path d="M281.941 111.542C282.205 112.62 282.628 113.824 283.304 114.987C279.025 124.263 267.171 125.447 261.835 114.353C262.247 113.666 262.543 112.609 262.754 111.542H281.941Z" fill="#885017"/>
<path d="M293.595 79.1163C292.338 65.6769 282.501 57.964 272.823 58.1225C263.145 58.2809 253.509 66.3002 252.569 79.7819C252.02 87.6745 253.742 96.1798 254.978 101.072C255.718 103.977 257.091 106.629 259.003 108.711C263.378 113.497 269.073 117.311 273.542 117.237C278.011 117.163 283.6 113.169 287.869 108.246C289.728 106.101 291.038 103.407 291.704 100.48C292.824 95.5458 294.335 86.9877 293.595 79.1163Z" fill="#B56B1F"/>
<path d="M242.457 202.248H284.825C291.735 202.248 298.666 202.1 305.576 202.343L307.277 143.345L321.266 135.325C321.266 135.325 319.639 123.925 318.192 113.708C310.679 112.472 289.495 118.579 289.495 118.579C289.495 118.579 286.77 130.37 272.464 130.37C258.147 130.37 254.724 119.076 254.724 119.076C254.724 119.076 241.158 118.854 235.389 124.517C229.62 130.191 228.183 138.685 224.654 151.449L239.203 157.946L242.457 202.248Z" fill="#FFE3BC"/>
<path d="M282.459 90.1151C282.459 91.0026 283.177 91.7105 284.054 91.7105C284.942 91.7105 285.65 90.9921 285.65 90.1151C285.65 89.2382 284.931 88.5197 284.054 88.5197C283.177 88.5197 282.459 89.2276 282.459 90.1151Z" fill="#193441"/>
<path d="M252.537 80.5638C253.837 89.3861 255.792 97.6695 263.145 102.413C263.906 101.198 267.604 97.9865 273.373 97.9865C278.909 97.9865 282.396 101.103 283.262 102.413C287.805 99.3917 290.31 95.0176 291.577 89.5234C291.884 88.2027 291.789 87.0405 291.429 86.0474C292.486 84.0505 293.194 81.8422 293.627 79.5284C294.282 87.2835 292.803 95.6409 291.704 100.48C291.039 103.407 289.728 106.101 287.869 108.246C283.611 113.169 278.022 117.163 273.542 117.237C269.073 117.311 263.388 113.497 259.004 108.711C257.091 106.619 255.718 103.977 254.978 101.072C253.795 96.3383 252.157 88.2239 252.537 80.5638Z" fill="#193441"/>
<path d="M263.811 90.1151C263.811 91.0026 263.092 91.7105 262.216 91.7105C261.328 91.7105 260.62 90.9921 260.62 90.1151C260.62 89.2382 261.339 88.5197 262.216 88.5197C263.103 88.5197 263.811 89.2276 263.811 90.1151Z" fill="#193441"/>
<path d="M278.381 103.301C279.195 103.301 279.723 104.21 279.269 104.875C277.916 106.819 275.687 108.098 273.13 108.098C270.626 108.098 268.428 106.862 267.065 104.981C266.558 104.284 267.023 103.301 267.89 103.301H278.381Z" fill="white"/>
<path d="M280.515 96.8243C280.515 98.2612 282.026 99.434 283.885 99.434C285.745 99.434 287.256 98.2612 287.256 96.8243C287.256 95.3874 285.745 94.2146 283.885 94.2146C282.026 94.2146 280.515 95.3874 280.515 96.8243Z" fill="#D18015"/>
<path d="M265.756 96.8243C265.756 98.2612 264.245 99.434 262.385 99.434C260.526 99.434 259.015 98.2612 259.015 96.8243C259.015 95.3874 260.526 94.2146 262.385 94.2146C264.255 94.2146 265.756 95.3874 265.756 96.8243Z" fill="#D18015"/>
<path d="M251.65 75.1014C252.579 65.5501 259.13 56.4637 273.14 56.4637C287.161 56.4637 293.701 65.5501 294.631 75.1014C295.56 84.6527 293.521 90.6646 292.813 90.3793C291.662 89.9038 290.362 87.6745 290.362 83.3637C290.362 75.1225 286.104 72.2276 283.051 72.8826C280.177 73.4954 278.074 75.6825 273.13 75.6825C268.185 75.6825 266.093 73.4954 263.208 72.8826C260.155 72.2276 255.897 75.1225 255.897 83.3637C255.897 88.5197 254.608 89.9038 253.456 90.3793C252.759 90.6751 250.709 84.6527 251.65 75.1014Z" fill="#193441"/>
<path d="M271.502 53.1355C253.382 53.6215 238.601 61.7676 234.522 72.4494C237.523 70.5899 239.752 76.2636 239.752 76.2636C239.752 76.2636 246.282 71.414 256.784 69.7341C265.163 68.3922 291.059 68.2971 299.955 81.0076C300.209 81.0181 300.473 81.0392 300.727 81.0709C304.065 81.483 307.288 82.9411 310.098 84.7372C310.457 84.9697 310.806 85.2127 311.155 85.4451C312.359 82.8671 312.93 80.12 312.75 77.2779C311.884 63.3524 293.415 52.5332 271.502 53.1355Z" fill="#FFDFAD"/>
<path d="M277.24 294.982C276.68 300.561 276.732 311.665 277.039 323.689H301.646C302.65 309.341 303.548 295.194 303.844 287.048C304.594 265.863 305.08 240.168 305.503 228.123C305.714 222.048 305.017 202.945 305.017 202.945L269.02 213.532C269.22 220.907 270.879 228.894 272.105 236.798C275.803 260.475 278.835 279.208 277.24 294.982Z" fill="#B56B1F"/>
<path d="M289.189 207.605L269.02 213.532C269.22 220.907 270.879 228.894 272.105 236.798C273.246 244.067 274.313 250.871 275.211 257.274C282.702 241.647 287.224 224.784 289.189 207.605Z" fill="#B15D16"/>
<path d="M244.972 295.933C244.243 300.973 243.926 310.535 243.831 321.227H269.04C270.319 308.453 271.492 296.314 272.073 288.981C273.763 267.712 275.38 241.901 276.331 229.803C276.88 222.83 277.768 217.885 278.708 213.521L246.029 198.677C239.256 216.342 241.475 229.169 242.373 237.231C245.046 261.183 247.265 280.138 244.972 295.933Z" fill="#B56B1F"/>
<path d="M299.639 201.128C302.565 170.836 297.747 143.81 297.747 143.81C283.431 149.356 250.963 145.13 250.963 145.13V201.128C250.963 201.128 285.259 206.77 299.639 201.128Z" fill="#B56B1F"/>
<path d="M305.322 199.342H241.812V212.803H305.322V199.342Z" fill="#B15D16"/>
<path d="M248.109 119.54C248.109 119.54 252.484 116.35 255.421 119.276C255.421 119.276 259.732 135.368 259.034 152.273C259.034 152.273 253.382 154.122 250.973 152.273C250.962 152.262 251.881 138.58 248.109 119.54Z" fill="#B15D16"/>
<path d="M256.741 148.596C256.741 149.673 255.864 150.55 254.787 150.55C253.709 150.55 252.832 149.673 252.832 148.596C252.832 147.518 253.709 146.641 254.787 146.641C255.864 146.641 256.741 147.518 256.741 148.596Z" fill="#FFE3BC"/>
<path d="M287.202 118.484C287.202 118.484 291.576 115.293 294.514 118.22C294.514 118.22 298.824 134.311 298.127 151.216C298.127 151.216 292.474 153.065 290.065 151.216C290.055 151.205 290.974 137.523 287.202 118.484Z" fill="#B15D16"/>
<path d="M295.834 147.539C295.834 148.617 294.957 149.494 293.879 149.494C292.802 149.494 291.925 148.617 291.925 147.539C291.925 146.461 292.802 145.585 293.879 145.585C294.957 145.585 295.834 146.461 295.834 147.539Z" fill="#FFE3BC"/>
<path d="M279.099 368.392L278.856 381.06C278.761 385.868 282.586 389.83 287.383 389.925L313.469 390.474C315.994 390.527 317.78 388.044 316.945 385.667C316.459 384.293 315.202 383.353 313.755 383.268L313.86 383.163C304.858 382.814 296.585 377.415 295.708 368.445C294.25 353.547 303.759 340.171 302.703 321.238C302.703 321.238 286.855 318.459 276.162 321.238C276.162 338.227 278.761 346.944 278.93 357.668C279.099 368.392 279.099 368.392 279.099 368.392Z" fill="#FFB71F"/>
<path d="M245.817 368.392L245.574 381.06C245.479 385.868 249.304 389.83 254.101 389.925L280.187 390.474C282.712 390.527 284.498 388.044 283.663 385.667C283.177 384.293 281.92 383.353 280.472 383.268L280.578 383.163C271.576 382.814 263.303 377.415 262.426 368.445C260.968 353.547 270.477 340.171 269.421 321.238C269.421 321.238 253.572 318.459 242.88 321.238C242.88 338.227 245.479 346.944 245.648 357.668C245.817 368.392 245.817 368.392 245.817 368.392Z" fill="#FFB71F"/>
<path d="M246.916 223.886C246.282 222.819 245.817 221.594 245.405 220.273C244.972 218.952 244.528 217.579 244.053 216.131C243.123 213.247 242.214 210.077 241.306 206.738C240.492 203.696 239.71 200.484 238.981 197.208C233.625 198.888 228.099 199.987 222.499 200.399C222.721 200.853 222.943 201.318 223.165 201.762C224.94 205.333 226.715 208.672 228.373 211.831C230.032 214.99 231.607 217.949 233.022 220.696C233.73 222.069 234.406 223.379 235.051 224.626C235.727 225.862 236.287 227.067 236.625 228.282C237.27 230.722 237.587 232.952 238.369 234.568C239.774 237.865 242.056 239.111 242.056 239.111C242.5 239.354 243.007 239.555 243.514 239.682C246.832 240.517 250.202 238.499 251.037 235.181L251.058 235.086C251.058 235.086 251.681 232.624 250.244 229.391C249.621 227.743 248.216 226.01 246.916 223.886Z" fill="#91BAEE"/>
<path d="M287.277 161.095C287.277 161.095 263.283 160.26 262.385 161.095C261.487 161.93 263.97 173.71 273.658 173.721C289.19 173.742 287.277 161.095 287.277 161.095Z" fill="#B15D16"/>
<path d="M421.102 198.508V212.771H416.348" stroke="#FF9800" stroke-miterlimit="10"/>
<path d="M414.763 194.282V212.771H410.009" stroke="#FF9800" stroke-miterlimit="10"/>
<path d="M441.896 189.221C438.462 198.423 428.625 203.526 419.127 201.054C410.283 198.751 403.712 191.313 402.518 182.258L401.884 177.482C401.081 171.428 405.127 165.786 411.129 164.613C417.214 163.419 423.152 167.234 424.6 173.267L429.566 193.954L441.896 189.221Z" fill="#FFB71F"/>
<path d="M409.48 181.201C409.131 182.448 410.145 183.832 411.762 184.286C413.378 184.741 414.963 184.096 415.322 182.85C415.671 181.603 414.657 180.219 413.04 179.764C411.424 179.31 409.839 179.955 409.48 181.201Z" fill="#E89A49"/>
<path d="M412.575 176.13C412.279 176.869 412.639 177.704 413.378 178C414.118 178.296 414.953 177.936 415.248 177.197C415.544 176.457 415.185 175.623 414.445 175.327C413.706 175.031 412.871 175.39 412.575 176.13Z" fill="#193441"/>
<path d="M401.777 174.608C401.777 174.608 404.482 175.866 402.189 178.856L398.185 179.416L399.463 177.25L397.393 173.552L401.777 174.608Z" fill="#FF9800"/>
<path d="M185.308 312.722H175.768V391.552H185.308V312.722Z" fill="#B56B1F"/>
<path d="M185.308 312.722H175.768V329.849H185.308V312.722Z" fill="#885017"/>
<path d="M228.87 322.622H132.216C130.24 322.622 128.645 321.027 128.645 319.051V259.07C128.645 257.094 130.24 255.499 132.216 255.499H228.87C230.846 255.499 232.441 257.094 232.441 259.07V319.051C232.441 321.016 230.835 322.622 228.87 322.622Z" fill="#193441" stroke="#E89C63" stroke-width="3" stroke-miterlimit="10"/>
<path d="M141.227 293.235C141.11 293.235 140.977 293.212 140.826 293.165C140.686 293.107 140.57 293.032 140.477 292.939C140.396 292.846 140.355 292.741 140.355 292.625C140.355 292.579 140.361 292.532 140.372 292.486L143.946 280.892C143.993 280.718 144.103 280.59 144.277 280.509C144.452 280.427 144.638 280.387 144.835 280.387C145.045 280.387 145.236 280.433 145.411 280.526C145.585 280.608 145.695 280.73 145.742 280.892L149.298 292.486C149.322 292.532 149.333 292.573 149.333 292.608C149.333 292.724 149.281 292.828 149.176 292.921C149.083 293.014 148.967 293.09 148.828 293.148C148.688 293.206 148.554 293.235 148.427 293.235C148.299 293.235 148.188 293.212 148.095 293.165C148.002 293.107 147.938 293.02 147.904 292.904L147.119 290.306H142.534L141.785 292.904C141.75 293.02 141.68 293.107 141.575 293.165C141.482 293.212 141.366 293.235 141.227 293.235ZM142.883 289.104H146.788L144.835 282.549L142.883 289.104ZM153.881 293.375C153.137 293.375 152.486 293.264 151.928 293.043C151.37 292.811 150.94 292.544 150.638 292.242C150.336 291.928 150.185 291.649 150.185 291.405C150.185 291.288 150.214 291.172 150.272 291.056C150.342 290.928 150.423 290.824 150.516 290.742C150.621 290.649 150.725 290.603 150.83 290.603C150.969 290.603 151.103 290.673 151.231 290.812C151.37 290.951 151.539 291.12 151.736 291.318C151.946 291.504 152.213 291.666 152.538 291.806C152.864 291.945 153.288 292.015 153.811 292.015C154.299 292.015 154.723 291.939 155.084 291.788C155.444 291.626 155.723 291.387 155.92 291.073C156.13 290.748 156.234 290.341 156.234 289.853C156.234 289.353 156.13 288.947 155.92 288.633C155.711 288.319 155.432 288.058 155.084 287.848C154.747 287.639 154.375 287.453 153.968 287.29C153.573 287.128 153.166 286.965 152.748 286.802C152.341 286.628 151.969 286.419 151.632 286.175C151.295 285.919 151.022 285.594 150.812 285.198C150.603 284.803 150.499 284.304 150.499 283.699C150.499 283.06 150.615 282.531 150.847 282.113C151.08 281.694 151.388 281.363 151.771 281.119C152.155 280.875 152.567 280.706 153.009 280.613C153.462 280.509 153.904 280.457 154.334 280.457C154.648 280.457 154.979 280.48 155.328 280.526C155.676 280.573 156.008 280.643 156.321 280.735C156.635 280.828 156.891 280.95 157.088 281.102C157.286 281.241 157.385 281.41 157.385 281.607C157.385 281.7 157.362 281.811 157.315 281.938C157.269 282.055 157.199 282.165 157.106 282.27C157.013 282.363 156.897 282.409 156.757 282.409C156.629 282.409 156.472 282.357 156.287 282.252C156.101 282.136 155.851 282.026 155.537 281.921C155.235 281.805 154.834 281.747 154.334 281.747C153.916 281.747 153.52 281.805 153.148 281.921C152.788 282.037 152.498 282.229 152.277 282.496C152.068 282.764 151.963 283.118 151.963 283.56C151.963 283.978 152.068 284.321 152.277 284.588C152.486 284.856 152.759 285.076 153.096 285.251C153.433 285.425 153.805 285.588 154.212 285.739C154.619 285.878 155.025 286.047 155.432 286.244C155.839 286.43 156.211 286.663 156.548 286.942C156.897 287.221 157.176 287.587 157.385 288.04C157.594 288.482 157.699 289.04 157.699 289.714C157.699 290.55 157.53 291.242 157.193 291.788C156.868 292.323 156.42 292.724 155.851 292.991C155.281 293.247 154.625 293.375 153.881 293.375ZM162.631 293.375C161.888 293.375 161.237 293.264 160.679 293.043C160.121 292.811 159.691 292.544 159.389 292.242C159.087 291.928 158.936 291.649 158.936 291.405C158.936 291.288 158.965 291.172 159.023 291.056C159.092 290.928 159.174 290.824 159.267 290.742C159.371 290.649 159.476 290.603 159.581 290.603C159.72 290.603 159.854 290.673 159.982 290.812C160.121 290.951 160.29 291.12 160.487 291.318C160.696 291.504 160.964 291.666 161.289 291.806C161.614 291.945 162.039 292.015 162.562 292.015C163.05 292.015 163.474 291.939 163.834 291.788C164.195 291.626 164.474 291.387 164.671 291.073C164.88 290.748 164.985 290.341 164.985 289.853C164.985 289.353 164.88 288.947 164.671 288.633C164.462 288.319 164.183 288.058 163.834 287.848C163.497 287.639 163.125 287.453 162.719 287.29C162.323 287.128 161.917 286.965 161.498 286.802C161.091 286.628 160.72 286.419 160.383 286.175C160.045 285.919 159.772 285.594 159.563 285.198C159.354 284.803 159.249 284.304 159.249 283.699C159.249 283.06 159.366 282.531 159.598 282.113C159.83 281.694 160.138 281.363 160.522 281.119C160.906 280.875 161.318 280.706 161.76 280.613C162.213 280.509 162.655 280.457 163.085 280.457C163.399 280.457 163.73 280.48 164.078 280.526C164.427 280.573 164.758 280.643 165.072 280.735C165.386 280.828 165.642 280.95 165.839 281.102C166.037 281.241 166.136 281.41 166.136 281.607C166.136 281.7 166.112 281.811 166.066 281.938C166.019 282.055 165.95 282.165 165.857 282.27C165.764 282.363 165.647 282.409 165.508 282.409C165.38 282.409 165.223 282.357 165.037 282.252C164.851 282.136 164.601 282.026 164.288 281.921C163.985 281.805 163.584 281.747 163.085 281.747C162.666 281.747 162.271 281.805 161.899 281.921C161.539 282.037 161.248 282.229 161.028 282.496C160.818 282.764 160.714 283.118 160.714 283.56C160.714 283.978 160.818 284.321 161.028 284.588C161.237 284.856 161.51 285.076 161.847 285.251C162.184 285.425 162.556 285.588 162.963 285.739C163.369 285.878 163.776 286.047 164.183 286.244C164.59 286.43 164.962 286.663 165.299 286.942C165.647 287.221 165.926 287.587 166.136 288.04C166.345 288.482 166.449 289.04 166.449 289.714C166.449 290.55 166.281 291.242 165.944 291.788C165.618 292.323 165.171 292.724 164.601 292.991C164.032 293.247 163.375 293.375 162.631 293.375ZM171.975 293.34C171.266 293.34 170.627 293.218 170.057 292.974C169.499 292.718 169.052 292.317 168.715 291.771C168.389 291.213 168.227 290.469 168.227 289.539V284.292C168.227 283.362 168.389 282.624 168.715 282.078C169.052 281.52 169.499 281.119 170.057 280.875C170.627 280.619 171.266 280.491 171.975 280.491C172.684 280.491 173.323 280.619 173.893 280.875C174.462 281.119 174.91 281.52 175.235 282.078C175.572 282.624 175.741 283.362 175.741 284.292V289.539C175.741 290.469 175.572 291.213 175.235 291.771C174.91 292.317 174.462 292.718 173.893 292.974C173.323 293.218 172.684 293.34 171.975 293.34ZM171.975 292.015C172.696 292.015 173.259 291.817 173.666 291.422C174.073 291.015 174.276 290.388 174.276 289.539V284.292C174.276 283.443 174.073 282.822 173.666 282.427C173.259 282.02 172.696 281.816 171.975 281.816C171.254 281.816 170.691 282.02 170.284 282.427C169.889 282.822 169.691 283.443 169.691 284.292V289.539C169.691 290.388 169.889 291.015 170.284 291.422C170.691 291.817 171.254 292.015 171.975 292.015ZM181.696 293.34C181.022 293.34 180.4 293.218 179.83 292.974C179.261 292.718 178.808 292.311 178.471 291.753C178.133 291.196 177.965 290.458 177.965 289.539V284.292C177.965 283.374 178.133 282.636 178.471 282.078C178.819 281.52 179.278 281.119 179.848 280.875C180.417 280.619 181.039 280.491 181.713 280.491C182.503 280.491 183.178 280.625 183.735 280.892C184.293 281.16 184.723 281.526 185.025 281.991C185.328 282.444 185.479 282.955 185.479 283.525C185.479 283.85 185.415 284.065 185.287 284.17C185.171 284.274 184.991 284.327 184.747 284.327C184.514 284.327 184.334 284.28 184.206 284.187C184.09 284.094 184.026 283.972 184.014 283.821C184.003 283.647 183.968 283.449 183.91 283.228C183.863 282.996 183.759 282.775 183.596 282.566C183.445 282.345 183.218 282.165 182.916 282.026C182.625 281.886 182.236 281.816 181.748 281.816C181.004 281.816 180.429 282.02 180.022 282.427C179.627 282.822 179.429 283.443 179.429 284.292V289.539C179.429 290.388 179.633 291.015 180.04 291.422C180.446 291.817 181.033 292.015 181.8 292.015C182.288 292.015 182.672 291.945 182.951 291.806C183.241 291.666 183.456 291.492 183.596 291.283C183.735 291.073 183.834 290.853 183.892 290.62C183.95 290.376 183.991 290.15 184.014 289.94C184.026 289.766 184.096 289.638 184.224 289.557C184.351 289.475 184.526 289.435 184.747 289.435C184.991 289.435 185.171 289.493 185.287 289.609C185.415 289.714 185.479 289.929 185.479 290.254C185.479 290.824 185.322 291.347 185.008 291.823C184.706 292.288 184.27 292.66 183.701 292.939C183.143 293.206 182.474 293.34 181.696 293.34ZM188.098 293.235C187.923 293.235 187.755 293.195 187.592 293.113C187.441 293.02 187.365 292.887 187.365 292.712V280.997C187.365 280.823 187.441 280.695 187.592 280.613C187.755 280.532 187.923 280.491 188.098 280.491C188.284 280.491 188.452 280.532 188.603 280.613C188.754 280.695 188.83 280.823 188.83 280.997V292.712C188.83 292.887 188.754 293.02 188.603 293.113C188.452 293.195 188.284 293.235 188.098 293.235ZM191.246 293.235C191.129 293.235 190.996 293.212 190.845 293.165C190.705 293.107 190.589 293.032 190.496 292.939C190.415 292.846 190.374 292.741 190.374 292.625C190.374 292.579 190.38 292.532 190.391 292.486L193.965 280.892C194.012 280.718 194.122 280.59 194.296 280.509C194.471 280.427 194.657 280.387 194.854 280.387C195.063 280.387 195.255 280.433 195.43 280.526C195.604 280.608 195.714 280.73 195.761 280.892L199.317 292.486C199.34 292.532 199.352 292.573 199.352 292.608C199.352 292.724 199.3 292.828 199.195 292.921C199.102 293.014 198.986 293.09 198.846 293.148C198.707 293.206 198.573 293.235 198.446 293.235C198.318 293.235 198.207 293.212 198.114 293.165C198.021 293.107 197.957 293.02 197.922 292.904L197.138 290.306H192.553L191.803 292.904C191.769 293.02 191.699 293.107 191.594 293.165C191.501 293.212 191.385 293.235 191.246 293.235ZM192.902 289.104H196.807L194.854 282.549L192.902 289.104ZM202.895 293.235C202.709 293.235 202.541 293.195 202.39 293.113C202.238 293.02 202.163 292.887 202.163 292.712V281.851H199.339C199.188 281.851 199.066 281.781 198.973 281.642C198.88 281.503 198.833 281.34 198.833 281.154C198.833 280.991 198.874 280.84 198.955 280.701C199.037 280.561 199.164 280.491 199.339 280.491H206.452C206.626 280.491 206.754 280.561 206.835 280.701C206.916 280.84 206.957 280.991 206.957 281.154C206.957 281.328 206.916 281.491 206.835 281.642C206.754 281.781 206.626 281.851 206.452 281.851H203.627V292.712C203.627 292.887 203.552 293.02 203.401 293.113C203.25 293.195 203.081 293.235 202.895 293.235ZM209.071 293.235C208.908 293.235 208.757 293.195 208.617 293.113C208.478 293.02 208.408 292.887 208.408 292.712V281.014C208.408 280.84 208.478 280.712 208.617 280.631C208.757 280.538 208.908 280.491 209.071 280.491H215.277C215.463 280.491 215.591 280.561 215.66 280.701C215.742 280.84 215.782 280.985 215.782 281.136C215.782 281.311 215.736 281.468 215.643 281.607C215.562 281.747 215.44 281.816 215.277 281.816H209.873V286.244H212.592C212.755 286.244 212.877 286.308 212.958 286.436C213.051 286.564 213.098 286.709 213.098 286.872C213.098 287.012 213.057 287.145 212.976 287.273C212.906 287.401 212.778 287.465 212.592 287.465H209.873V291.91H215.277C215.44 291.91 215.562 291.98 215.643 292.119C215.736 292.247 215.782 292.404 215.782 292.59C215.782 292.741 215.742 292.887 215.66 293.026C215.591 293.165 215.463 293.235 215.277 293.235H209.071Z" fill="white"/>
<path d="M544.031 394.32H136.23C135.892 394.88 135.565 395.461 135.29 396.074C134.35 398.134 133.8 400.512 134.233 402.762C135.702 410.433 145.243 410.348 152.089 412.07C164.377 415.166 172.586 423.819 184.8 427.253C197.553 430.835 210.158 427.095 223.111 424.379C259.034 416.857 270.931 431.955 302.1 431.997C333.268 432.039 358.964 417.395 384.152 419.73C394.929 420.724 414.359 426.82 424.851 429.747C457.858 438.96 492.207 418.389 526.091 422.023C531.859 422.647 537.713 423.957 543.397 422.668C549.081 421.368 554.671 416.497 554.935 410.031C555.188 403.026 549.599 397.997 544.031 394.32Z" fill="#E89C63"/>
<path d="M569.199 396.486H119.801C117.667 396.486 115.924 394.753 115.924 392.609C115.924 390.474 117.657 388.731 119.801 388.731H569.188C571.323 388.731 573.066 390.464 573.066 392.609C573.066 394.743 571.333 396.486 569.199 396.486Z" fill="#FFC366"/>
</svg>
