<svg width="40" height="40" viewBox="0 0 40 40" fill="none" xmlns="http://www.w3.org/2000/svg">
<path d="M19.9999 3.33325C10.8166 3.33325 3.33325 10.8166 3.33325 19.9999C3.33325 29.1833 10.8166 36.6666 19.9999 36.6666C29.1833 36.6666 36.6666 29.1833 36.6666 19.9999C36.6666 10.8166 29.1833 3.33325 19.9999 3.33325ZM22.9833 24.9999C23.4666 25.4833 23.4666 26.2833 22.9833 26.7666C22.7333 27.0166 22.4166 27.1333 22.0999 27.1333C21.7833 27.1333 21.4666 27.0166 21.2166 26.7666L15.3333 20.8833C14.8499 20.3999 14.8499 19.5999 15.3333 19.1166L21.2166 13.2333C21.6999 12.7499 22.4999 12.7499 22.9833 13.2333C23.4666 13.7166 23.4666 14.5166 22.9833 14.9999L17.9833 19.9999L22.9833 24.9999Z" fill="#272F36"/>
</svg>
