<svg width="40" height="40" viewBox="0 0 40 40" fill="none" xmlns="http://www.w3.org/2000/svg">
<path d="M19.9998 3.33325C29.1832 3.33325 36.6665 10.8166 36.6665 19.9999C36.6665 29.1833 29.1832 36.6666 19.9998 36.6666C10.8165 36.6666 3.33317 29.1833 3.33317 19.9999C3.33317 10.8166 10.8165 3.33325 19.9998 3.33325ZM17.0165 24.9999C16.5332 25.4833 16.5332 26.2833 17.0165 26.7666C17.2665 27.0166 17.5832 27.1333 17.8998 27.1333C18.2165 27.1333 18.5332 27.0166 18.7832 26.7666L24.6665 20.8833C25.1498 20.3999 25.1498 19.5999 24.6665 19.1166L18.7832 13.2333C18.2998 12.7499 17.4998 12.7499 17.0165 13.2333C16.5332 13.7166 16.5332 14.5166 17.0165 14.9999L22.0165 19.9999L17.0165 24.9999Z" fill="#272F36"/>
</svg>
