<svg width="1680" height="559" viewBox="0 0 1680 559" fill="none" xmlns="http://www.w3.org/2000/svg">
<rect width="1680" height="559" rx="40" fill="#239270"/>
<mask id="mask0_3101_10274" style="mask-type:alpha" maskUnits="userSpaceOnUse" x="0" y="0" width="1680" height="559">
<rect width="1680" height="559" rx="40" fill="#239270"/>
</mask>
<g mask="url(#mask0_3101_10274)">
<g clip-path="url(#clip0_3101_10274)">
<rect y="-80" width="80" height="80" stroke="white" stroke-opacity="0.06" stroke-width="1.6"/>
<rect x="80.0002" y="-80" width="80" height="80" stroke="white" stroke-opacity="0.06" stroke-width="1.6"/>
<rect x="160" y="-80" width="80" height="80" stroke="white" stroke-opacity="0.06" stroke-width="1.6"/>
<rect x="240" y="-80" width="80" height="80" stroke="white" stroke-opacity="0.06" stroke-width="1.6"/>
<rect x="320" y="-80" width="80" height="80" stroke="white" stroke-opacity="0.06" stroke-width="1.6"/>
<rect x="400" y="-80" width="80" height="80" stroke="white" stroke-opacity="0.06" stroke-width="1.6"/>
<rect x="480" y="-80" width="80" height="80" stroke="white" stroke-opacity="0.06" stroke-width="1.6"/>
<rect x="560" y="-80" width="80" height="80" stroke="white" stroke-opacity="0.06" stroke-width="1.6"/>
<rect x="640" y="-80" width="80" height="80" stroke="white" stroke-opacity="0.06" stroke-width="1.6"/>
<rect x="720" y="-80" width="80" height="80" stroke="white" stroke-opacity="0.06" stroke-width="1.6"/>
<rect x="800" y="-80" width="80" height="80" stroke="white" stroke-opacity="0.06" stroke-width="1.6"/>
<rect x="880" y="-80" width="80" height="80" stroke="white" stroke-opacity="0.06" stroke-width="1.6"/>
<rect x="960" y="-80" width="80" height="80" stroke="white" stroke-opacity="0.06" stroke-width="1.6"/>
<rect x="1040" y="-80" width="80" height="80" stroke="white" stroke-opacity="0.06" stroke-width="1.6"/>
<rect x="1120" y="-80" width="80" height="80" stroke="white" stroke-opacity="0.06" stroke-width="1.6"/>
<rect x="1200" y="-80" width="80" height="80" stroke="white" stroke-opacity="0.06" stroke-width="1.6"/>
<rect x="1280" y="-80" width="80" height="80" stroke="white" stroke-opacity="0.06" stroke-width="1.6"/>
<rect x="1360" y="-80" width="80" height="80" stroke="white" stroke-opacity="0.06" stroke-width="1.6"/>
<rect x="1440" y="-80" width="80" height="80" stroke="white" stroke-opacity="0.06" stroke-width="1.6"/>
<rect x="1520" y="-80" width="80" height="80" stroke="white" stroke-opacity="0.06" stroke-width="1.6"/>
<rect x="1600" y="-80" width="80" height="80" stroke="white" stroke-opacity="0.06" stroke-width="1.6"/>
<rect y="0.000488281" width="80" height="80" stroke="white" stroke-opacity="0.06" stroke-width="1.6"/>
<rect x="80.0002" y="0.000488281" width="80" height="80" stroke="white" stroke-opacity="0.06" stroke-width="1.6"/>
<rect x="160" y="0.000488281" width="80" height="80" fill="white" fill-opacity="0.05" stroke="white" stroke-opacity="0.06" stroke-width="1.6"/>
<rect x="240" y="0.000488281" width="80" height="80" stroke="white" stroke-opacity="0.06" stroke-width="1.6"/>
<rect x="320" y="0.000488281" width="80" height="80" stroke="white" stroke-opacity="0.06" stroke-width="1.6"/>
<rect x="400" y="0.000488281" width="80" height="80" stroke="white" stroke-opacity="0.06" stroke-width="1.6"/>
<rect x="480" y="0.000488281" width="80" height="80" stroke="white" stroke-opacity="0.06" stroke-width="1.6"/>
<rect x="560" y="0.000488281" width="80" height="80" stroke="white" stroke-opacity="0.06" stroke-width="1.6"/>
<rect x="640" y="0.000488281" width="80" height="80" stroke="white" stroke-opacity="0.06" stroke-width="1.6"/>
<rect x="720" y="0.000488281" width="80" height="80" fill="white" fill-opacity="0.05" stroke="white" stroke-opacity="0.06" stroke-width="1.6"/>
<rect x="800" y="0.000488281" width="80" height="80" stroke="white" stroke-opacity="0.06" stroke-width="1.6"/>
<rect x="880" y="0.000488281" width="80" height="80" stroke="white" stroke-opacity="0.06" stroke-width="1.6"/>
<rect x="960" y="0.000488281" width="80" height="80" stroke="white" stroke-opacity="0.06" stroke-width="1.6"/>
<rect x="1040" y="0.000488281" width="80" height="80" stroke="white" stroke-opacity="0.06" stroke-width="1.6"/>
<rect x="1120" y="0.000488281" width="80" height="80" stroke="white" stroke-opacity="0.06" stroke-width="1.6"/>
<rect x="1200" y="0.000488281" width="80" height="80" stroke="white" stroke-opacity="0.06" stroke-width="1.6"/>
<rect x="1280" y="0.000488281" width="80" height="80" stroke="white" stroke-opacity="0.06" stroke-width="1.6"/>
<rect x="1360" y="0.000488281" width="80" height="80" stroke="white" stroke-opacity="0.06" stroke-width="1.6"/>
<rect x="1440" y="0.000488281" width="80" height="80" stroke="white" stroke-opacity="0.06" stroke-width="1.6"/>
<rect x="1520" y="0.000488281" width="80" height="80" stroke="white" stroke-opacity="0.06" stroke-width="1.6"/>
<rect x="1600" y="0.000488281" width="80" height="80" stroke="white" stroke-opacity="0.06" stroke-width="1.6"/>
<rect y="80" width="80" height="80" stroke="white" stroke-opacity="0.06" stroke-width="1.6"/>
<rect x="80.0002" y="80" width="80" height="80" stroke="white" stroke-opacity="0.06" stroke-width="1.6"/>
<rect x="160" y="80" width="80" height="80" stroke="white" stroke-opacity="0.06" stroke-width="1.6"/>
<rect x="240" y="80" width="80" height="80" stroke="white" stroke-opacity="0.06" stroke-width="1.6"/>
<rect x="320" y="80" width="80" height="80" stroke="white" stroke-opacity="0.06" stroke-width="1.6"/>
<rect x="400" y="80" width="80" height="80" stroke="white" stroke-opacity="0.06" stroke-width="1.6"/>
<rect x="480" y="80" width="80" height="80" stroke="white" stroke-opacity="0.06" stroke-width="1.6"/>
<rect x="560" y="80" width="80" height="80" stroke="white" stroke-opacity="0.06" stroke-width="1.6"/>
<rect x="640" y="80" width="80" height="80" stroke="white" stroke-opacity="0.06" stroke-width="1.6"/>
<rect x="720" y="80" width="80" height="80" stroke="white" stroke-opacity="0.06" stroke-width="1.6"/>
<rect x="800" y="80" width="80" height="80" stroke="white" stroke-opacity="0.06" stroke-width="1.6"/>
<rect x="880" y="80" width="80" height="80" stroke="white" stroke-opacity="0.06" stroke-width="1.6"/>
<rect x="960" y="80" width="80" height="80" stroke="white" stroke-opacity="0.06" stroke-width="1.6"/>
<rect x="1040" y="80" width="80" height="80" stroke="white" stroke-opacity="0.06" stroke-width="1.6"/>
<rect x="1120" y="80" width="80" height="80" stroke="white" stroke-opacity="0.06" stroke-width="1.6"/>
<rect x="1200" y="80" width="80" height="80" stroke="white" stroke-opacity="0.06" stroke-width="1.6"/>
<rect x="1280" y="80" width="80" height="80" fill="white" fill-opacity="0.05" stroke="white" stroke-opacity="0.06" stroke-width="1.6"/>
<rect x="1360" y="80" width="80" height="80" stroke="white" stroke-opacity="0.06" stroke-width="1.6"/>
<rect x="1440" y="80" width="80" height="80" stroke="white" stroke-opacity="0.06" stroke-width="1.6"/>
<rect x="1520" y="80" width="80" height="80" stroke="white" stroke-opacity="0.06" stroke-width="1.6"/>
<rect x="1600" y="80" width="80" height="80" stroke="white" stroke-opacity="0.06" stroke-width="1.6"/>
<rect y="160" width="80" height="80" stroke="white" stroke-opacity="0.06" stroke-width="1.6"/>
<rect x="80.0002" y="160" width="80" height="80" stroke="white" stroke-opacity="0.06" stroke-width="1.6"/>
<rect x="160" y="160" width="80" height="80" stroke="white" stroke-opacity="0.06" stroke-width="1.6"/>
<rect x="240" y="160" width="80" height="80" stroke="white" stroke-opacity="0.06" stroke-width="1.6"/>
<rect x="320" y="160" width="80" height="80" stroke="white" stroke-opacity="0.06" stroke-width="1.6"/>
<rect x="400" y="160" width="80" height="80" stroke="white" stroke-opacity="0.06" stroke-width="1.6"/>
<rect x="480" y="160" width="80" height="80" stroke="white" stroke-opacity="0.06" stroke-width="1.6"/>
<rect x="560" y="160" width="80" height="80" stroke="white" stroke-opacity="0.06" stroke-width="1.6"/>
<rect x="640" y="160" width="80" height="80" stroke="white" stroke-opacity="0.06" stroke-width="1.6"/>
<rect x="720" y="160" width="80" height="80" stroke="white" stroke-opacity="0.06" stroke-width="1.6"/>
<rect x="800" y="160" width="80" height="80" stroke="white" stroke-opacity="0.06" stroke-width="1.6"/>
<rect x="880" y="160" width="80" height="80" stroke="white" stroke-opacity="0.06" stroke-width="1.6"/>
<rect x="960" y="160" width="80" height="80" stroke="white" stroke-opacity="0.06" stroke-width="1.6"/>
<rect x="1040" y="160" width="80" height="80" stroke="white" stroke-opacity="0.06" stroke-width="1.6"/>
<rect x="1120" y="160" width="80" height="80" stroke="white" stroke-opacity="0.06" stroke-width="1.6"/>
<rect x="1200" y="160" width="80" height="80" stroke="white" stroke-opacity="0.06" stroke-width="1.6"/>
<rect x="1280" y="160" width="80" height="80" stroke="white" stroke-opacity="0.06" stroke-width="1.6"/>
<rect x="1360" y="160" width="80" height="80" stroke="white" stroke-opacity="0.06" stroke-width="1.6"/>
<rect x="1440" y="160" width="80" height="80" stroke="white" stroke-opacity="0.06" stroke-width="1.6"/>
<rect x="1520" y="160" width="80" height="80" stroke="white" stroke-opacity="0.06" stroke-width="1.6"/>
<rect x="1600" y="160" width="80" height="80" stroke="white" stroke-opacity="0.06" stroke-width="1.6"/>
<rect y="240.001" width="80" height="80" stroke="white" stroke-opacity="0.06" stroke-width="1.6"/>
<rect x="80.0002" y="240.001" width="80" height="80" stroke="white" stroke-opacity="0.06" stroke-width="1.6"/>
<rect x="160" y="240.001" width="80" height="80" stroke="white" stroke-opacity="0.06" stroke-width="1.6"/>
<rect x="240" y="240.001" width="80" height="80" fill="white" fill-opacity="0.05" stroke="white" stroke-opacity="0.06" stroke-width="1.6"/>
<rect x="320" y="240.001" width="80" height="80" stroke="white" stroke-opacity="0.06" stroke-width="1.6"/>
<rect x="400" y="240.001" width="80" height="80" stroke="white" stroke-opacity="0.06" stroke-width="1.6"/>
<rect x="480" y="240.001" width="80" height="80" stroke="white" stroke-opacity="0.06" stroke-width="1.6"/>
<rect x="560" y="240.001" width="80" height="80" stroke="white" stroke-opacity="0.06" stroke-width="1.6"/>
<rect x="640" y="240.001" width="80" height="80" stroke="white" stroke-opacity="0.06" stroke-width="1.6"/>
<rect x="720" y="240.001" width="80" height="80" stroke="white" stroke-opacity="0.06" stroke-width="1.6"/>
<rect x="800" y="240.001" width="80" height="80" stroke="white" stroke-opacity="0.06" stroke-width="1.6"/>
<rect x="880" y="240.001" width="80" height="80" stroke="white" stroke-opacity="0.06" stroke-width="1.6"/>
<rect x="960" y="240.001" width="80" height="80" fill="white" fill-opacity="0.05" stroke="white" stroke-opacity="0.06" stroke-width="1.6"/>
<rect x="1040" y="240.001" width="80" height="80" stroke="white" stroke-opacity="0.06" stroke-width="1.6"/>
<rect x="1120" y="240.001" width="80" height="80" stroke="white" stroke-opacity="0.06" stroke-width="1.6"/>
<rect x="1200" y="240.001" width="80" height="80" stroke="white" stroke-opacity="0.06" stroke-width="1.6"/>
<rect x="1280" y="240.001" width="80" height="80" stroke="white" stroke-opacity="0.06" stroke-width="1.6"/>
<rect x="1360" y="240.001" width="80" height="80" stroke="white" stroke-opacity="0.06" stroke-width="1.6"/>
<rect x="1440" y="240.001" width="80" height="80" stroke="white" stroke-opacity="0.06" stroke-width="1.6"/>
<rect x="1520" y="240.001" width="80" height="80" stroke="white" stroke-opacity="0.06" stroke-width="1.6"/>
<rect x="1600" y="240.001" width="80" height="80" stroke="white" stroke-opacity="0.06" stroke-width="1.6"/>
<rect y="320.001" width="80" height="80" stroke="white" stroke-opacity="0.06" stroke-width="1.6"/>
<rect x="80.0002" y="320.001" width="80" height="80" stroke="white" stroke-opacity="0.06" stroke-width="1.6"/>
<rect x="160" y="320.001" width="80" height="80" stroke="white" stroke-opacity="0.06" stroke-width="1.6"/>
<rect x="240" y="320.001" width="80" height="80" stroke="white" stroke-opacity="0.06" stroke-width="1.6"/>
<rect x="320" y="320.001" width="80" height="80" stroke="white" stroke-opacity="0.06" stroke-width="1.6"/>
<rect x="400" y="320.001" width="80" height="80" stroke="white" stroke-opacity="0.06" stroke-width="1.6"/>
<rect x="480" y="320.001" width="80" height="80" stroke="white" stroke-opacity="0.06" stroke-width="1.6"/>
<rect x="560" y="320.001" width="80" height="80" stroke="white" stroke-opacity="0.06" stroke-width="1.6"/>
<rect x="640" y="320.001" width="80" height="80" stroke="white" stroke-opacity="0.06" stroke-width="1.6"/>
<rect x="720" y="320.001" width="80" height="80" stroke="white" stroke-opacity="0.06" stroke-width="1.6"/>
<rect x="800" y="320.001" width="80" height="80" stroke="white" stroke-opacity="0.06" stroke-width="1.6"/>
<rect x="880" y="320.001" width="80" height="80" stroke="white" stroke-opacity="0.06" stroke-width="1.6"/>
<rect x="960" y="320.001" width="80" height="80" stroke="white" stroke-opacity="0.06" stroke-width="1.6"/>
<rect x="1040" y="320.001" width="80" height="80" stroke="white" stroke-opacity="0.06" stroke-width="1.6"/>
<rect x="1120" y="320.001" width="80" height="80" stroke="white" stroke-opacity="0.06" stroke-width="1.6"/>
<rect x="1200" y="320.001" width="80" height="80" stroke="white" stroke-opacity="0.06" stroke-width="1.6"/>
<rect x="1280" y="320.001" width="80" height="80" stroke="white" stroke-opacity="0.06" stroke-width="1.6"/>
<rect x="1360" y="320.001" width="80" height="80" stroke="white" stroke-opacity="0.06" stroke-width="1.6"/>
<rect x="1440" y="320.001" width="80" height="80" fill="white" fill-opacity="0.05" stroke="white" stroke-opacity="0.06" stroke-width="1.6"/>
<rect x="1520" y="320.001" width="80" height="80" stroke="white" stroke-opacity="0.06" stroke-width="1.6"/>
<rect x="1600" y="320.001" width="80" height="80" stroke="white" stroke-opacity="0.06" stroke-width="1.6"/>
<rect y="400" width="80" height="80" stroke="white" stroke-opacity="0.06" stroke-width="1.6"/>
<rect x="80.0002" y="400" width="80" height="80" stroke="white" stroke-opacity="0.06" stroke-width="1.6"/>
<rect x="160" y="400" width="80" height="80" stroke="white" stroke-opacity="0.06" stroke-width="1.6"/>
<rect x="240" y="400" width="80" height="80" stroke="white" stroke-opacity="0.06" stroke-width="1.6"/>
<rect x="320" y="400" width="80" height="80" stroke="white" stroke-opacity="0.06" stroke-width="1.6"/>
<rect x="400" y="400" width="80" height="80" stroke="white" stroke-opacity="0.06" stroke-width="1.6"/>
<rect x="480" y="400" width="80" height="80" stroke="white" stroke-opacity="0.06" stroke-width="1.6"/>
<rect x="560" y="400" width="80" height="80" stroke="white" stroke-opacity="0.06" stroke-width="1.6"/>
<rect x="640" y="400" width="80" height="80" stroke="white" stroke-opacity="0.06" stroke-width="1.6"/>
<rect x="720" y="400" width="80" height="80" stroke="white" stroke-opacity="0.06" stroke-width="1.6"/>
<rect x="800" y="400" width="80" height="80" stroke="white" stroke-opacity="0.06" stroke-width="1.6"/>
<rect x="880" y="400" width="80" height="80" stroke="white" stroke-opacity="0.06" stroke-width="1.6"/>
<rect x="960" y="400" width="80" height="80" stroke="white" stroke-opacity="0.06" stroke-width="1.6"/>
<rect x="1040" y="400" width="80" height="80" stroke="white" stroke-opacity="0.06" stroke-width="1.6"/>
<rect x="1120" y="400" width="80" height="80" stroke="white" stroke-opacity="0.06" stroke-width="1.6"/>
<rect x="1200" y="400" width="80" height="80" stroke="white" stroke-opacity="0.06" stroke-width="1.6"/>
<rect x="1280" y="400" width="80" height="80" stroke="white" stroke-opacity="0.06" stroke-width="1.6"/>
<rect x="1360" y="400" width="80" height="80" stroke="white" stroke-opacity="0.06" stroke-width="1.6"/>
<rect x="1440" y="400" width="80" height="80" stroke="white" stroke-opacity="0.06" stroke-width="1.6"/>
<rect x="1520" y="400" width="80" height="80" stroke="white" stroke-opacity="0.06" stroke-width="1.6"/>
<rect x="1600" y="400" width="80" height="80" stroke="white" stroke-opacity="0.06" stroke-width="1.6"/>
<rect y="480.001" width="80" height="80" stroke="white" stroke-opacity="0.06" stroke-width="1.6"/>
<rect x="80.0002" y="480.001" width="80" height="80" stroke="white" stroke-opacity="0.06" stroke-width="1.6"/>
<rect x="160" y="480.001" width="80" height="80" stroke="white" stroke-opacity="0.06" stroke-width="1.6"/>
<rect x="240" y="480.001" width="80" height="80" stroke="white" stroke-opacity="0.06" stroke-width="1.6"/>
<rect x="320" y="480.001" width="80" height="80" stroke="white" stroke-opacity="0.06" stroke-width="1.6"/>
<rect x="400" y="480.001" width="80" height="80" stroke="white" stroke-opacity="0.06" stroke-width="1.6"/>
<rect x="480" y="480.001" width="80" height="80" stroke="white" stroke-opacity="0.06" stroke-width="1.6"/>
<rect x="560" y="480.001" width="80" height="80" stroke="white" stroke-opacity="0.06" stroke-width="1.6"/>
<rect x="640" y="480.001" width="80" height="80" fill="white" fill-opacity="0.05" stroke="white" stroke-opacity="0.06" stroke-width="1.6"/>
<rect x="720" y="480.001" width="80" height="80" stroke="white" stroke-opacity="0.06" stroke-width="1.6"/>
<rect x="800" y="480.001" width="80" height="80" stroke="white" stroke-opacity="0.06" stroke-width="1.6"/>
<rect x="880" y="480.001" width="80" height="80" stroke="white" stroke-opacity="0.06" stroke-width="1.6"/>
<rect x="960" y="480.001" width="80" height="80" stroke="white" stroke-opacity="0.06" stroke-width="1.6"/>
<rect x="1040" y="480.001" width="80" height="80" stroke="white" stroke-opacity="0.06" stroke-width="1.6"/>
<rect x="1120" y="480.001" width="80" height="80" stroke="white" stroke-opacity="0.06" stroke-width="1.6"/>
<rect x="1200" y="480.001" width="80" height="80" stroke="white" stroke-opacity="0.06" stroke-width="1.6"/>
<rect x="1280" y="480.001" width="80" height="80" stroke="white" stroke-opacity="0.06" stroke-width="1.6"/>
<rect x="1360" y="480.001" width="80" height="80" stroke="white" stroke-opacity="0.06" stroke-width="1.6"/>
<rect x="1440" y="480.001" width="80" height="80" stroke="white" stroke-opacity="0.06" stroke-width="1.6"/>
<rect x="1520" y="480.001" width="80" height="80" stroke="white" stroke-opacity="0.06" stroke-width="1.6"/>
<rect x="1600" y="480.001" width="80" height="80" stroke="white" stroke-opacity="0.06" stroke-width="1.6"/>
</g>
</g>
<rect width="1680" height="559" rx="40" fill="url(#paint0_radial_3101_10274)" fill-opacity="0.9"/>
<defs>
<radialGradient id="paint0_radial_3101_10274" cx="0" cy="0" r="1" gradientUnits="userSpaceOnUse" gradientTransform="translate(840 279.5) rotate(90) scale(279.5 840)">
<stop stop-color="#239270" stop-opacity="0"/>
<stop offset="1" stop-color="#239270"/>
</radialGradient>
<clipPath id="clip0_3101_10274">
<rect width="1680" height="1075.2" fill="white" transform="translate(0 -80)"/>
</clipPath>
</defs>
</svg>
