<svg width="80" height="80" viewBox="0 0 80 80" fill="none" xmlns="http://www.w3.org/2000/svg">
<rect width="80" height="80" rx="40" fill="#BE3455" fill-opacity="0.05"/>
<rect x="6.15405" y="6.15381" width="67.6923" height="67.6923" rx="33.8462" fill="#BE3455" fill-opacity="0.1"/>
<path d="M25.6413 41.5382H32.8208L35.5131 36.1536L39.1028 45.1279L41.7952 41.5382H45.3849M40.0003 31.5404C40.8697 29.808 42.6357 28.4817 43.9826 27.8245C47.3762 26.1686 50.7393 27.0218 53.5256 29.808C57.0303 33.3127 57.0303 38.9949 53.5256 42.4997L40.9521 55.0731C40.4264 55.5988 39.5741 55.5988 39.0484 55.0731L26.475 42.4997C22.9703 38.9949 22.9703 33.3127 26.475 29.808C29.2612 27.0218 32.6244 26.1686 36.0179 27.8245C37.3648 28.4817 39.1309 29.808 40.0003 31.5404Z" stroke="#BE3455" stroke-width="3" stroke-linecap="round" stroke-linejoin="round"/>
</svg>
