<svg width="80" height="80" viewBox="0 0 80 80" fill="none" xmlns="http://www.w3.org/2000/svg">
<rect width="80" height="80" rx="40" fill="#239270" fill-opacity="0.05"/>
<rect x="6.15405" y="6.15381" width="67.6923" height="67.6923" rx="33.8462" fill="#239270" fill-opacity="0.1"/>
<path d="M37.29 24.0023L28.3336 27.3766C26.2695 28.1484 24.5823 30.5894 24.5823 32.7792V46.1151C24.5823 48.233 25.9823 51.0151 27.6874 52.2895L35.4054 58.051C37.9361 59.9536 42.1002 59.9536 44.631 58.051L52.3489 52.2895C54.0541 51.0151 55.4541 48.233 55.4541 46.1151V32.7792C55.4541 30.5715 53.7669 28.1305 51.7028 27.3587L42.7464 24.0023C41.2207 23.4459 38.7797 23.4459 37.29 24.0023Z" stroke="#239270" stroke-width="3" stroke-linecap="round" stroke-linejoin="round"/>
<path d="M34.7056 41.3048L37.5953 44.1945L45.3133 36.4766" stroke="#239270" stroke-width="3" stroke-linecap="round" stroke-linejoin="round"/>
</svg>
